<svg width="817" height="342" viewBox="0 0 817 342" fill="none" xmlns="http://www.w3.org/2000/svg">
<rect width="400" height="54" fill="#E6E6E6"/>
<path d="M21.1689 20.3174H25.6426C27.5293 20.3174 29 20.8711 30.0547 21.9785C31.1152 23.0859 31.6455 24.6387 31.6455 26.6367C31.6455 28.6406 31.1182 30.2021 30.0635 31.3213C29.0088 32.4404 27.5352 33 25.6426 33H21.1689V20.3174ZM23.1377 22.0137V31.2949H25.458C26.8057 31.2949 27.8369 30.8965 28.5518 30.0996C29.2725 29.3027 29.6328 28.1543 29.6328 26.6543C29.6328 25.1602 29.2725 24.0146 28.5518 23.2178C27.8311 22.415 26.7998 22.0137 25.458 22.0137H23.1377ZM36.5322 31.6553C37.2002 31.6553 37.7598 31.4531 38.2109 31.0488C38.668 30.6387 38.8965 30.1348 38.8965 29.5371V28.8076L36.6201 28.9482C36.0518 28.9893 35.6123 29.1299 35.3018 29.3701C34.9971 29.6045 34.8447 29.9209 34.8447 30.3193C34.8447 30.7236 34.9971 31.0488 35.3018 31.2949C35.6123 31.5352 36.0225 31.6553 36.5322 31.6553ZM36.0049 33.1582C35.0967 33.1582 34.3555 32.9004 33.7812 32.3848C33.2129 31.8691 32.9287 31.1982 32.9287 30.3721C32.9287 29.5635 33.2275 28.9219 33.8252 28.4473C34.4229 27.9668 35.2695 27.6973 36.3652 27.6387L38.8965 27.4893V26.7773C38.8965 26.2617 38.7324 25.8604 38.4043 25.5732C38.0762 25.2803 37.6221 25.1338 37.042 25.1338C36.5029 25.1338 36.0635 25.2539 35.7236 25.4941C35.3896 25.7344 35.1787 26.0654 35.0908 26.4873H33.2979C33.3506 25.6318 33.7197 24.9346 34.4053 24.3955C35.0908 23.8564 35.9932 23.5869 37.1123 23.5869C38.2314 23.5869 39.1221 23.8623 39.7842 24.4131C40.4521 24.9639 40.7861 25.7021 40.7861 26.6279V33H38.9668V31.4795H38.9229C38.6592 31.9893 38.2578 32.3965 37.7188 32.7012C37.1855 33.0059 36.6143 33.1582 36.0049 33.1582ZM42.6318 33V23.7539H44.4424V25.3008H44.4863C44.7441 24.7617 45.1191 24.3428 45.6113 24.0439C46.1035 23.7451 46.6982 23.5957 47.3955 23.5957C48.4092 23.5957 49.1973 23.9004 49.7598 24.5098C50.3223 25.1133 50.6035 25.9482 50.6035 27.0146V33H48.6963V27.3838C48.6963 26.6807 48.5293 26.1475 48.1953 25.7842C47.8672 25.415 47.3779 25.2305 46.7275 25.2305C46.0596 25.2305 45.5264 25.4473 45.1279 25.8809C44.7295 26.3145 44.5303 26.8916 44.5303 27.6123V33H42.6318ZM52.502 33V23.7539H54.4004V33H52.502ZM54.2334 22.084C54.0166 22.2949 53.7559 22.4004 53.4512 22.4004C53.1465 22.4004 52.8857 22.2949 52.6689 22.084C52.458 21.873 52.3525 21.6182 52.3525 21.3193C52.3525 21.0146 52.458 20.7568 52.6689 20.5459C52.8857 20.335 53.1465 20.2295 53.4512 20.2295C53.7617 20.2295 54.0225 20.335 54.2334 20.5459C54.4502 20.7568 54.5586 21.0146 54.5586 21.3193C54.5586 21.6182 54.4502 21.873 54.2334 22.084ZM61.8184 25.7842C61.4023 25.3389 60.8662 25.1162 60.21 25.1162C59.5537 25.1162 59.0088 25.3418 58.5752 25.793C58.1416 26.2383 57.9014 26.8154 57.8545 27.5244H62.4775C62.4541 26.8096 62.2344 26.2295 61.8184 25.7842ZM62.4688 30.2842H64.2705C64.1357 31.1338 63.7021 31.8281 62.9697 32.3672C62.2373 32.9062 61.3438 33.1758 60.2891 33.1758C58.9355 33.1758 57.8691 32.751 57.0898 31.9014C56.3164 31.0459 55.9297 29.8857 55.9297 28.4209C55.9297 26.9678 56.3164 25.7988 57.0898 24.9141C57.8691 24.0293 58.9092 23.5869 60.21 23.5869C61.4873 23.5869 62.501 24.0059 63.251 24.8438C64.001 25.6758 64.376 26.7949 64.376 28.2012V28.8516H57.8457V28.9658C57.8457 29.7744 58.0713 30.4219 58.5225 30.9082C58.9736 31.3945 59.5771 31.6377 60.333 31.6377C60.8662 31.6377 61.3232 31.5146 61.7041 31.2686C62.085 31.0225 62.3398 30.6943 62.4688 30.2842ZM65.9229 33V20.3174H67.8213V33H65.9229Z" fill="#121212"/>
<line opacity="0.6" x1="70.5" y1="40" x2="70.5" y2="14" stroke="#121212"/>
<rect x="0.5" y="0.5" width="399" height="53" stroke="#121212" stroke-opacity="0.4"/>
<rect x="417" width="400" height="54" fill="#E6E6E6"/>
<path opacity="0.3" d="M446.22 31.2949V33H438.169V20.3174H446.22V22.0137H440.138V25.7227H445.895V27.3574H440.138V31.2949H446.22ZM448.013 33V23.7539H449.823V25.3096H449.867C450.078 24.7881 450.415 24.3721 450.878 24.0615C451.341 23.751 451.88 23.5957 452.495 23.5957C453.134 23.5957 453.676 23.7539 454.121 24.0703C454.572 24.3867 454.892 24.832 455.079 25.4062H455.123C455.363 24.8438 455.738 24.4014 456.248 24.0791C456.764 23.7568 457.35 23.5957 458.006 23.5957C458.92 23.5957 459.652 23.874 460.203 24.4307C460.754 24.9873 461.029 25.7256 461.029 26.6455V33H459.122V27.1025C459.122 26.5049 458.967 26.042 458.656 25.7139C458.352 25.3857 457.918 25.2217 457.355 25.2217C456.793 25.2217 456.333 25.4092 455.976 25.7842C455.624 26.1592 455.448 26.6396 455.448 27.2256V33H453.585V26.9619C453.585 26.4287 453.427 26.0068 453.11 25.6963C452.794 25.3799 452.369 25.2217 451.836 25.2217C451.273 25.2217 450.811 25.418 450.447 25.8105C450.09 26.1973 449.911 26.6895 449.911 27.2871V33H448.013ZM466.101 31.6553C466.769 31.6553 467.328 31.4531 467.779 31.0488C468.236 30.6387 468.465 30.1348 468.465 29.5371V28.8076L466.188 28.9482C465.62 28.9893 465.181 29.1299 464.87 29.3701C464.565 29.6045 464.413 29.9209 464.413 30.3193C464.413 30.7236 464.565 31.0488 464.87 31.2949C465.181 31.5352 465.591 31.6553 466.101 31.6553ZM465.573 33.1582C464.665 33.1582 463.924 32.9004 463.35 32.3848C462.781 31.8691 462.497 31.1982 462.497 30.3721C462.497 29.5635 462.796 28.9219 463.394 28.4473C463.991 27.9668 464.838 27.6973 465.934 27.6387L468.465 27.4893V26.7773C468.465 26.2617 468.301 25.8604 467.973 25.5732C467.645 25.2803 467.19 25.1338 466.61 25.1338C466.071 25.1338 465.632 25.2539 465.292 25.4941C464.958 25.7344 464.747 26.0654 464.659 26.4873H462.866C462.919 25.6318 463.288 24.9346 463.974 24.3955C464.659 23.8564 465.562 23.5869 466.681 23.5869C467.8 23.5869 468.69 23.8623 469.353 24.4131C470.021 24.9639 470.354 25.7021 470.354 26.6279V33H468.535V31.4795H468.491C468.228 31.9893 467.826 32.3965 467.287 32.7012C466.754 33.0059 466.183 33.1582 465.573 33.1582ZM472.262 33V23.7539H474.16V33H472.262ZM473.993 22.084C473.776 22.2949 473.516 22.4004 473.211 22.4004C472.906 22.4004 472.646 22.2949 472.429 22.084C472.218 21.873 472.112 21.6182 472.112 21.3193C472.112 21.0146 472.218 20.7568 472.429 20.5459C472.646 20.335 472.906 20.2295 473.211 20.2295C473.521 20.2295 473.782 20.335 473.993 20.5459C474.21 20.7568 474.318 21.0146 474.318 21.3193C474.318 21.6182 474.21 21.873 473.993 22.084ZM476.173 33V20.3174H478.071V33H476.173ZM486.069 25.3711L483.969 24L484.101 26.5049H482.791L482.932 24L480.813 25.3799L480.181 24.1934L482.396 23.1123L480.189 22.0225L480.822 20.8623L482.923 22.207L482.8 19.7285H484.109L483.978 22.207L486.069 20.8535L486.72 22.0225L484.487 23.1211L486.72 24.2021L486.069 25.3711Z" fill="#121212"/>
<rect x="417.5" y="0.5" width="399" height="53" stroke="#121212" stroke-opacity="0.4"/>
<rect y="64" width="400" height="54" fill="#E6E6E6"/>
<path opacity="0.3" d="M21.1689 84.3174H25.9238C27.1543 84.3174 28.1562 84.7041 28.9297 85.4775C29.709 86.251 30.0986 87.2529 30.0986 88.4834C30.0986 89.7197 29.7031 90.7275 28.9121 91.5068C28.127 92.2803 27.1104 92.667 25.8623 92.667H23.1377V97H21.1689V84.3174ZM23.1377 85.9785V91.0146H25.3965C26.252 91.0146 26.9141 90.7949 27.3828 90.3555C27.8516 89.916 28.0859 89.2949 28.0859 88.4922C28.0859 87.6953 27.8516 87.0771 27.3828 86.6377C26.9199 86.1982 26.2607 85.9785 25.4053 85.9785H23.1377ZM31.6631 97V84.3174H33.5439V89.3008H33.5879C33.8457 88.7559 34.2236 88.3369 34.7217 88.0439C35.2197 87.7451 35.8174 87.5957 36.5146 87.5957C37.5225 87.5957 38.3135 87.9062 38.8877 88.5273C39.4678 89.1484 39.7578 89.9863 39.7578 91.041V97H37.8506V91.4102C37.8506 90.7188 37.6777 90.1826 37.332 89.8018C36.9922 89.4209 36.4912 89.2305 35.8291 89.2305C35.1318 89.2305 34.5781 89.4531 34.168 89.8984C33.7637 90.3379 33.5615 90.9238 33.5615 91.6562V97H31.6631ZM48.7578 95.8926C47.9609 96.748 46.8975 97.1758 45.5674 97.1758C44.2373 97.1758 43.1738 96.748 42.377 95.8926C41.5801 95.0312 41.1816 93.8594 41.1816 92.377C41.1816 90.9004 41.5801 89.7344 42.377 88.8789C43.1738 88.0176 44.2373 87.5869 45.5674 87.5869C46.8975 87.5869 47.9609 88.0176 48.7578 88.8789C49.5547 89.7344 49.9531 90.9004 49.9531 92.377C49.9531 93.8594 49.5547 95.0312 48.7578 95.8926ZM45.5674 95.6113C46.3232 95.6113 46.9209 95.3271 47.3604 94.7588C47.7998 94.1904 48.0195 93.3965 48.0195 92.377C48.0195 91.3633 47.7969 90.5723 47.3516 90.0039C46.9121 89.4355 46.3174 89.1514 45.5674 89.1514C44.8174 89.1514 44.2197 89.4355 43.7744 90.0039C43.335 90.5723 43.1152 91.3633 43.1152 92.377C43.1152 93.3965 43.335 94.1904 43.7744 94.7588C44.2197 95.3271 44.8174 95.6113 45.5674 95.6113ZM51.4209 97V87.7539H53.2314V89.3008H53.2754C53.5332 88.7617 53.9082 88.3428 54.4004 88.0439C54.8926 87.7451 55.4873 87.5957 56.1846 87.5957C57.1982 87.5957 57.9863 87.9004 58.5488 88.5098C59.1113 89.1133 59.3926 89.9482 59.3926 91.0146V97H57.4854V91.3838C57.4854 90.6807 57.3184 90.1475 56.9844 89.7842C56.6562 89.415 56.167 89.2305 55.5166 89.2305C54.8486 89.2305 54.3154 89.4473 53.917 89.8809C53.5186 90.3145 53.3193 90.8916 53.3193 91.6123V97H51.4209ZM66.7051 89.7842C66.2891 89.3389 65.7529 89.1162 65.0967 89.1162C64.4404 89.1162 63.8955 89.3418 63.4619 89.793C63.0283 90.2383 62.7881 90.8154 62.7412 91.5244H67.3643C67.3408 90.8096 67.1211 90.2295 66.7051 89.7842ZM67.3555 94.2842H69.1572C69.0225 95.1338 68.5889 95.8281 67.8564 96.3672C67.124 96.9062 66.2305 97.1758 65.1758 97.1758C63.8223 97.1758 62.7559 96.751 61.9766 95.9014C61.2031 95.0459 60.8164 93.8857 60.8164 92.4209C60.8164 90.9678 61.2031 89.7988 61.9766 88.9141C62.7559 88.0293 63.7959 87.5869 65.0967 87.5869C66.374 87.5869 67.3877 88.0059 68.1377 88.8438C68.8877 89.6758 69.2627 90.7949 69.2627 92.2012V92.8516H62.7324V92.9658C62.7324 93.7744 62.958 94.4219 63.4092 94.9082C63.8604 95.3945 64.4639 95.6377 65.2197 95.6377C65.7529 95.6377 66.21 95.5146 66.5908 95.2686C66.9717 95.0225 67.2266 94.6943 67.3555 94.2842ZM76.54 97H74.624V84.3174H76.4082L82.9824 93.6689H83.0527V84.3174H84.9688V97H83.1934L76.6191 87.6572H76.54V97ZM95.0146 87.7539V97H93.1953V95.4355H93.1514C92.6182 96.5898 91.6631 97.167 90.2861 97.167C89.2783 97.167 88.4844 96.8623 87.9043 96.2529C87.3301 95.6377 87.043 94.7998 87.043 93.7393V87.7539H88.9414V93.3701C88.9414 94.0791 89.1084 94.6182 89.4424 94.9873C89.7764 95.3506 90.2686 95.5322 90.9189 95.5322C91.5986 95.5322 92.1348 95.3154 92.5273 94.8818C92.9199 94.4482 93.1162 93.8682 93.1162 93.1416V87.7539H95.0146ZM96.8955 97V87.7539H98.7061V89.3096H98.75C98.9609 88.7881 99.2979 88.3721 99.7607 88.0615C100.224 87.751 100.763 87.5957 101.378 87.5957C102.017 87.5957 102.559 87.7539 103.004 88.0703C103.455 88.3867 103.774 88.832 103.962 89.4062H104.006C104.246 88.8438 104.621 88.4014 105.131 88.0791C105.646 87.7568 106.232 87.5957 106.889 87.5957C107.803 87.5957 108.535 87.874 109.086 88.4307C109.637 88.9873 109.912 89.7256 109.912 90.6455V97H108.005V91.1025C108.005 90.5049 107.85 90.042 107.539 89.7139C107.234 89.3857 106.801 89.2217 106.238 89.2217C105.676 89.2217 105.216 89.4092 104.858 89.7842C104.507 90.1592 104.331 90.6396 104.331 91.2256V97H102.468V90.9619C102.468 90.4287 102.31 90.0068 101.993 89.6963C101.677 89.3799 101.252 89.2217 100.719 89.2217C100.156 89.2217 99.6934 89.418 99.3301 89.8105C98.9727 90.1973 98.7939 90.6895 98.7939 91.2871V97H96.8955ZM116.671 97.1582C116.003 97.1582 115.414 97.0059 114.904 96.7012C114.395 96.3965 113.993 95.9717 113.7 95.4268H113.665V97H111.819V84.3174H113.718V89.3271H113.762C114.043 88.7881 114.436 88.3662 114.939 88.0615C115.449 87.7568 116.029 87.6045 116.68 87.6045C117.846 87.6045 118.777 88.0352 119.475 88.8965C120.178 89.7578 120.529 90.918 120.529 92.377C120.529 93.8418 120.181 95.0049 119.483 95.8662C118.786 96.7275 117.849 97.1582 116.671 97.1582ZM116.161 89.2041C115.435 89.2041 114.843 89.4971 114.386 90.083C113.935 90.6631 113.709 91.4277 113.709 92.377C113.709 93.332 113.935 94.0996 114.386 94.6797C114.843 95.2598 115.435 95.5498 116.161 95.5498C116.905 95.5498 117.494 95.2656 117.928 94.6973C118.361 94.1289 118.578 93.3555 118.578 92.377C118.578 91.4043 118.361 90.6338 117.928 90.0654C117.494 89.4912 116.905 89.2041 116.161 89.2041ZM127.49 89.7842C127.074 89.3389 126.538 89.1162 125.882 89.1162C125.226 89.1162 124.681 89.3418 124.247 89.793C123.813 90.2383 123.573 90.8154 123.526 91.5244H128.149C128.126 90.8096 127.906 90.2295 127.49 89.7842ZM128.141 94.2842H129.942C129.808 95.1338 129.374 95.8281 128.642 96.3672C127.909 96.9062 127.016 97.1758 125.961 97.1758C124.607 97.1758 123.541 96.751 122.762 95.9014C121.988 95.0459 121.602 93.8857 121.602 92.4209C121.602 90.9678 121.988 89.7988 122.762 88.9141C123.541 88.0293 124.581 87.5869 125.882 87.5869C127.159 87.5869 128.173 88.0059 128.923 88.8438C129.673 89.6758 130.048 90.7949 130.048 92.2012V92.8516H123.518V92.9658C123.518 93.7744 123.743 94.4219 124.194 94.9082C124.646 95.3945 125.249 95.6377 126.005 95.6377C126.538 95.6377 126.995 95.5146 127.376 95.2686C127.757 95.0225 128.012 94.6943 128.141 94.2842ZM131.524 97V87.7539H133.335V89.3271H133.379C133.531 88.7881 133.804 88.3662 134.196 88.0615C134.589 87.7568 135.058 87.6045 135.603 87.6045C135.784 87.6045 136.001 87.6279 136.253 87.6748V89.4414C136.083 89.3711 135.799 89.3359 135.4 89.3359C134.791 89.3359 134.308 89.5264 133.95 89.9072C133.599 90.2881 133.423 90.8066 133.423 91.4629V97H131.524ZM143.478 89.3711L141.377 88L141.509 90.5049H140.199L140.34 88L138.222 89.3799L137.589 88.1934L139.804 87.1123L137.598 86.0225L138.23 84.8623L140.331 86.207L140.208 83.7285H141.518L141.386 86.207L143.478 84.8535L144.128 86.0225L141.896 87.1211L144.128 88.2021L143.478 89.3711Z" fill="#121212"/>
<rect x="0.5" y="64.5" width="399" height="53" stroke="#121212" stroke-opacity="0.4"/>
<rect x="417" y="64" width="400" height="54" fill="#E6E6E6"/>
<path opacity="0.3" d="M448.619 97H446.65V91.3838H440.138V97H438.169V84.3174H440.138V89.6787H446.65V84.3174H448.619V97ZM457.883 95.8926C457.086 96.748 456.022 97.1758 454.692 97.1758C453.362 97.1758 452.299 96.748 451.502 95.8926C450.705 95.0312 450.307 93.8594 450.307 92.377C450.307 90.9004 450.705 89.7344 451.502 88.8789C452.299 88.0176 453.362 87.5869 454.692 87.5869C456.022 87.5869 457.086 88.0176 457.883 88.8789C458.68 89.7344 459.078 90.9004 459.078 92.377C459.078 93.8594 458.68 95.0312 457.883 95.8926ZM454.692 95.6113C455.448 95.6113 456.046 95.3271 456.485 94.7588C456.925 94.1904 457.145 93.3965 457.145 92.377C457.145 91.3633 456.922 90.5723 456.477 90.0039C456.037 89.4355 455.442 89.1514 454.692 89.1514C453.942 89.1514 453.345 89.4355 452.899 90.0039C452.46 90.5723 452.24 91.3633 452.24 92.377C452.24 93.3965 452.46 94.1904 452.899 94.7588C453.345 95.3271 453.942 95.6113 454.692 95.6113ZM472.71 87.7539L470.179 97H468.201L466.259 90.0742H466.215L464.29 97H462.33L459.79 87.7539H461.688L463.376 95.0312H463.411L465.336 87.7539H467.164L469.098 95.0312H469.142L470.829 87.7539H472.71ZM477.755 84.3174H482.229C484.115 84.3174 485.586 84.8711 486.641 85.9785C487.701 87.0859 488.231 88.6387 488.231 90.6367C488.231 92.6406 487.704 94.2021 486.649 95.3213C485.595 96.4404 484.121 97 482.229 97H477.755V84.3174ZM479.724 86.0137V95.2949H482.044C483.392 95.2949 484.423 94.8965 485.138 94.0996C485.858 93.3027 486.219 92.1543 486.219 90.6543C486.219 89.1602 485.858 88.0146 485.138 87.2178C484.417 86.415 483.386 86.0137 482.044 86.0137H479.724ZM489.945 97V87.7539H491.844V97H489.945ZM491.677 86.084C491.46 86.2949 491.199 86.4004 490.895 86.4004C490.59 86.4004 490.329 86.2949 490.112 86.084C489.901 85.873 489.796 85.6182 489.796 85.3193C489.796 85.0146 489.901 84.7568 490.112 84.5459C490.329 84.335 490.59 84.2295 490.895 84.2295C491.205 84.2295 491.466 84.335 491.677 84.5459C491.894 84.7568 492.002 85.0146 492.002 85.3193C492.002 85.6182 491.894 85.873 491.677 86.084ZM497.258 97.1582C496.086 97.1582 495.146 96.7246 494.437 95.8574C493.728 94.9902 493.373 93.8301 493.373 92.377C493.373 90.9238 493.725 89.7666 494.428 88.9053C495.137 88.0381 496.074 87.6045 497.24 87.6045C497.891 87.6045 498.471 87.7568 498.98 88.0615C499.49 88.3604 499.877 88.7705 500.141 89.292H500.176V84.3174H502.083V97H500.237V95.4268H500.202C499.927 95.9658 499.531 96.3906 499.016 96.7012C498.506 97.0059 497.92 97.1582 497.258 97.1582ZM497.759 89.2041C497.009 89.2041 496.414 89.4912 495.975 90.0654C495.535 90.6338 495.315 91.4043 495.315 92.377C495.315 93.3555 495.535 94.1289 495.975 94.6973C496.414 95.2656 497.009 95.5498 497.759 95.5498C498.491 95.5498 499.08 95.2627 499.525 94.6885C499.971 94.1084 500.193 93.3379 500.193 92.377C500.193 91.4219 499.971 90.6543 499.525 90.0742C499.08 89.4941 498.491 89.2041 497.759 89.2041ZM513.412 97H511.443V91.8057L506.979 84.3174H509.176L512.41 89.916H512.472L515.706 84.3174H517.886L513.412 91.8057V97ZM524.451 95.8926C523.654 96.748 522.591 97.1758 521.261 97.1758C519.931 97.1758 518.867 96.748 518.07 95.8926C517.273 95.0312 516.875 93.8594 516.875 92.377C516.875 90.9004 517.273 89.7344 518.07 88.8789C518.867 88.0176 519.931 87.5869 521.261 87.5869C522.591 87.5869 523.654 88.0176 524.451 88.8789C525.248 89.7344 525.646 90.9004 525.646 92.377C525.646 93.8594 525.248 95.0312 524.451 95.8926ZM521.261 95.6113C522.017 95.6113 522.614 95.3271 523.054 94.7588C523.493 94.1904 523.713 93.3965 523.713 92.377C523.713 91.3633 523.49 90.5723 523.045 90.0039C522.605 89.4355 522.011 89.1514 521.261 89.1514C520.511 89.1514 519.913 89.4355 519.468 90.0039C519.028 90.5723 518.809 91.3633 518.809 92.377C518.809 93.3965 519.028 94.1904 519.468 94.7588C519.913 95.3271 520.511 95.6113 521.261 95.6113ZM535.042 87.7539V97H533.223V95.4355H533.179C532.646 96.5898 531.69 97.167 530.313 97.167C529.306 97.167 528.512 96.8623 527.932 96.2529C527.357 95.6377 527.07 94.7998 527.07 93.7393V87.7539H528.969V93.3701C528.969 94.0791 529.136 94.6182 529.47 94.9873C529.804 95.3506 530.296 95.5322 530.946 95.5322C531.626 95.5322 532.162 95.3154 532.555 94.8818C532.947 94.4482 533.144 93.8682 533.144 93.1416V87.7539H535.042ZM551.258 97H549.289V91.3838H542.776V97H540.808V84.3174H542.776V89.6787H549.289V84.3174H551.258V97ZM558.834 89.7842C558.418 89.3389 557.882 89.1162 557.226 89.1162C556.569 89.1162 556.024 89.3418 555.591 89.793C555.157 90.2383 554.917 90.8154 554.87 91.5244H559.493C559.47 90.8096 559.25 90.2295 558.834 89.7842ZM559.484 94.2842H561.286C561.151 95.1338 560.718 95.8281 559.985 96.3672C559.253 96.9062 558.359 97.1758 557.305 97.1758C555.951 97.1758 554.885 96.751 554.105 95.9014C553.332 95.0459 552.945 93.8857 552.945 92.4209C552.945 90.9678 553.332 89.7988 554.105 88.9141C554.885 88.0293 555.925 87.5869 557.226 87.5869C558.503 87.5869 559.517 88.0059 560.267 88.8438C561.017 89.6758 561.392 90.7949 561.392 92.2012V92.8516H554.861V92.9658C554.861 93.7744 555.087 94.4219 555.538 94.9082C555.989 95.3945 556.593 95.6377 557.349 95.6377C557.882 95.6377 558.339 95.5146 558.72 95.2686C559.101 95.0225 559.355 94.6943 559.484 94.2842ZM566.103 95.6553C566.771 95.6553 567.33 95.4531 567.781 95.0488C568.238 94.6387 568.467 94.1348 568.467 93.5371V92.8076L566.19 92.9482C565.622 92.9893 565.183 93.1299 564.872 93.3701C564.567 93.6045 564.415 93.9209 564.415 94.3193C564.415 94.7236 564.567 95.0488 564.872 95.2949C565.183 95.5352 565.593 95.6553 566.103 95.6553ZM565.575 97.1582C564.667 97.1582 563.926 96.9004 563.352 96.3848C562.783 95.8691 562.499 95.1982 562.499 94.3721C562.499 93.5635 562.798 92.9219 563.396 92.4473C563.993 91.9668 564.84 91.6973 565.936 91.6387L568.467 91.4893V90.7773C568.467 90.2617 568.303 89.8604 567.975 89.5732C567.646 89.2803 567.192 89.1338 566.612 89.1338C566.073 89.1338 565.634 89.2539 565.294 89.4941C564.96 89.7344 564.749 90.0654 564.661 90.4873H562.868C562.921 89.6318 563.29 88.9346 563.976 88.3955C564.661 87.8564 565.563 87.5869 566.683 87.5869C567.802 87.5869 568.692 87.8623 569.354 88.4131C570.022 88.9639 570.356 89.7021 570.356 90.6279V97H568.537V95.4795H568.493C568.229 95.9893 567.828 96.3965 567.289 96.7012C566.756 97.0059 566.185 97.1582 565.575 97.1582ZM572.202 97V87.7539H574.013V89.3271H574.057C574.209 88.7881 574.481 88.3662 574.874 88.0615C575.267 87.7568 575.735 87.6045 576.28 87.6045C576.462 87.6045 576.679 87.6279 576.931 87.6748V89.4414C576.761 89.3711 576.477 89.3359 576.078 89.3359C575.469 89.3359 574.985 89.5264 574.628 89.9072C574.276 90.2881 574.101 90.8066 574.101 91.4629V97H572.202ZM590.255 97L589.095 93.5723H584.261L583.101 97H581.053L585.632 84.3174H587.759L592.338 97H590.255ZM586.651 86.4268L584.762 91.9902H588.594L586.704 86.4268H586.651ZM598.429 97.1582C597.761 97.1582 597.172 97.0059 596.662 96.7012C596.152 96.3965 595.751 95.9717 595.458 95.4268H595.423V97H593.577V84.3174H595.476V89.3271H595.52C595.801 88.7881 596.193 88.3662 596.697 88.0615C597.207 87.7568 597.787 87.6045 598.438 87.6045C599.604 87.6045 600.535 88.0352 601.232 88.8965C601.936 89.7578 602.287 90.918 602.287 92.377C602.287 93.8418 601.938 95.0049 601.241 95.8662C600.544 96.7275 599.606 97.1582 598.429 97.1582ZM597.919 89.2041C597.192 89.2041 596.601 89.4971 596.144 90.083C595.692 90.6631 595.467 91.4277 595.467 92.377C595.467 93.332 595.692 94.0996 596.144 94.6797C596.601 95.2598 597.192 95.5498 597.919 95.5498C598.663 95.5498 599.252 95.2656 599.686 94.6973C600.119 94.1289 600.336 93.3555 600.336 92.377C600.336 91.4043 600.119 90.6338 599.686 90.0654C599.252 89.4912 598.663 89.2041 597.919 89.2041ZM610.936 95.8926C610.139 96.748 609.075 97.1758 607.745 97.1758C606.415 97.1758 605.352 96.748 604.555 95.8926C603.758 95.0312 603.359 93.8594 603.359 92.377C603.359 90.9004 603.758 89.7344 604.555 88.8789C605.352 88.0176 606.415 87.5869 607.745 87.5869C609.075 87.5869 610.139 88.0176 610.936 88.8789C611.732 89.7344 612.131 90.9004 612.131 92.377C612.131 93.8594 611.732 95.0312 610.936 95.8926ZM607.745 95.6113C608.501 95.6113 609.099 95.3271 609.538 94.7588C609.978 94.1904 610.197 93.3965 610.197 92.377C610.197 91.3633 609.975 90.5723 609.529 90.0039C609.09 89.4355 608.495 89.1514 607.745 89.1514C606.995 89.1514 606.397 89.4355 605.952 90.0039C605.513 90.5723 605.293 91.3633 605.293 92.377C605.293 93.3965 605.513 94.1904 605.952 94.7588C606.397 95.3271 606.995 95.6113 607.745 95.6113ZM621.526 87.7539V97H619.707V95.4355H619.663C619.13 96.5898 618.175 97.167 616.798 97.167C615.79 97.167 614.996 96.8623 614.416 96.2529C613.842 95.6377 613.555 94.7998 613.555 93.7393V87.7539H615.453V93.3701C615.453 94.0791 615.62 94.6182 615.954 94.9873C616.288 95.3506 616.78 95.5322 617.431 95.5322C618.11 95.5322 618.646 95.3154 619.039 94.8818C619.432 94.4482 619.628 93.8682 619.628 93.1416V87.7539H621.526ZM623.961 85.5654H625.868V87.7539H627.626V89.2568H625.868V94.3545C625.868 94.7529 625.959 95.0459 626.141 95.2334C626.322 95.4209 626.606 95.5146 626.993 95.5146C627.274 95.5146 627.482 95.5 627.617 95.4707V96.9736C627.383 97.0322 627.031 97.0615 626.562 97.0615C625.631 97.0615 624.963 96.8711 624.559 96.4902C624.16 96.1035 623.961 95.4619 623.961 94.5654V89.2568H622.616V87.7539H623.961V85.5654ZM635.044 84.3174V92.377C635.044 93.3027 635.322 94.0498 635.879 94.6182C636.441 95.1807 637.218 95.4619 638.208 95.4619C639.198 95.4619 639.975 95.1807 640.537 94.6182C641.1 94.0498 641.381 93.3027 641.381 92.377V84.3174H643.341V92.5439C643.341 93.9326 642.878 95.0576 641.952 95.9189C641.026 96.7803 639.778 97.2109 638.208 97.2109C636.638 97.2109 635.39 96.7803 634.464 95.9189C633.538 95.0576 633.075 93.9326 633.075 92.5439V84.3174H635.044ZM645.283 90.373C645.283 89.5469 645.617 88.876 646.285 88.3604C646.953 87.8447 647.826 87.5869 648.904 87.5869C649.93 87.5869 650.771 87.8477 651.427 88.3691C652.089 88.8848 652.435 89.5557 652.464 90.3818H650.68C650.633 89.96 650.448 89.6289 650.126 89.3887C649.804 89.1484 649.379 89.0283 648.852 89.0283C648.336 89.0283 647.92 89.1426 647.604 89.3711C647.293 89.5996 647.138 89.8955 647.138 90.2588C647.138 90.8213 647.609 91.2197 648.553 91.4541L650.108 91.8145C651.04 92.0371 651.699 92.3418 652.086 92.7285C652.479 93.1094 652.675 93.6426 652.675 94.3281C652.675 95.1719 652.317 95.8574 651.603 96.3848C650.894 96.9121 649.971 97.1758 648.834 97.1758C647.75 97.1758 646.865 96.918 646.18 96.4023C645.5 95.8867 645.122 95.2012 645.046 94.3457H646.927C647.003 94.791 647.211 95.1338 647.551 95.374C647.891 95.6084 648.348 95.7256 648.922 95.7256C649.49 95.7256 649.938 95.6172 650.267 95.4004C650.601 95.1777 650.768 94.8789 650.768 94.5039C650.768 94.2051 650.668 93.9678 650.469 93.792C650.27 93.6162 649.93 93.4668 649.449 93.3438L647.797 92.9395C646.121 92.5352 645.283 91.6797 645.283 90.373Z" fill="#121212"/>
<path d="M785 89L789 93L793 89" stroke="#121212" stroke-width="2" stroke-linecap="round" stroke-linejoin="round"/>
<path d="M658.001 89.2727L658.123 86.5753L655.847 88.0391L655.151 86.8246L657.567 85.5909L655.151 84.3572L655.847 83.1428L658.123 84.6065L658.001 81.9091H659.388L659.267 84.6065L661.543 83.1428L662.239 84.3572L659.823 85.5909L662.239 86.8246L661.543 88.0391L659.267 86.5753L659.388 89.2727H658.001Z" fill="#121212" fill-opacity="0.3"/>
<rect x="417.5" y="64.5" width="399" height="53" stroke="#121212" stroke-opacity="0.4"/>
<rect y="128" width="817" height="140" fill="#E6E6E6"/>
<path opacity="0.3" d="M26.6621 161H24.6934V155.806L20.2285 148.317H22.4258L25.6602 153.916H25.7217L28.9561 148.317H31.1357L26.6621 155.806V161ZM37.7012 159.893C36.9043 160.748 35.8408 161.176 34.5107 161.176C33.1807 161.176 32.1172 160.748 31.3203 159.893C30.5234 159.031 30.125 157.859 30.125 156.377C30.125 154.9 30.5234 153.734 31.3203 152.879C32.1172 152.018 33.1807 151.587 34.5107 151.587C35.8408 151.587 36.9043 152.018 37.7012 152.879C38.498 153.734 38.8965 154.9 38.8965 156.377C38.8965 157.859 38.498 159.031 37.7012 159.893ZM34.5107 159.611C35.2666 159.611 35.8643 159.327 36.3037 158.759C36.7432 158.19 36.9629 157.396 36.9629 156.377C36.9629 155.363 36.7402 154.572 36.2949 154.004C35.8555 153.436 35.2607 153.151 34.5107 153.151C33.7607 153.151 33.1631 153.436 32.7178 154.004C32.2783 154.572 32.0586 155.363 32.0586 156.377C32.0586 157.396 32.2783 158.19 32.7178 158.759C33.1631 159.327 33.7607 159.611 34.5107 159.611ZM48.292 151.754V161H46.4727V159.436H46.4287C45.8955 160.59 44.9404 161.167 43.5635 161.167C42.5557 161.167 41.7617 160.862 41.1816 160.253C40.6074 159.638 40.3203 158.8 40.3203 157.739V151.754H42.2188V157.37C42.2188 158.079 42.3857 158.618 42.7197 158.987C43.0537 159.351 43.5459 159.532 44.1963 159.532C44.876 159.532 45.4121 159.315 45.8047 158.882C46.1973 158.448 46.3936 157.868 46.3936 157.142V151.754H48.292ZM50.1729 161V151.754H51.9834V153.327H52.0273C52.1797 152.788 52.4521 152.366 52.8447 152.062C53.2373 151.757 53.7061 151.604 54.251 151.604C54.4326 151.604 54.6494 151.628 54.9014 151.675V153.441C54.7314 153.371 54.4473 153.336 54.0488 153.336C53.4395 153.336 52.9561 153.526 52.5986 153.907C52.2471 154.288 52.0713 154.807 52.0713 155.463V161H50.1729ZM72.7959 161H70.9941V151.666H70.9326L67.1094 160.903H65.6504L61.8184 151.666H61.7568V161H59.9639V148.317H62.2402L66.3447 158.328H66.415L70.5107 148.317H72.7959V161ZM80.3809 153.784C79.9648 153.339 79.4287 153.116 78.7725 153.116C78.1162 153.116 77.5713 153.342 77.1377 153.793C76.7041 154.238 76.4639 154.815 76.417 155.524H81.04C81.0166 154.81 80.7969 154.229 80.3809 153.784ZM81.0312 158.284H82.833C82.6982 159.134 82.2646 159.828 81.5322 160.367C80.7998 160.906 79.9062 161.176 78.8516 161.176C77.498 161.176 76.4316 160.751 75.6523 159.901C74.8789 159.046 74.4922 157.886 74.4922 156.421C74.4922 154.968 74.8789 153.799 75.6523 152.914C76.4316 152.029 77.4717 151.587 78.7725 151.587C80.0498 151.587 81.0635 152.006 81.8135 152.844C82.5635 153.676 82.9385 154.795 82.9385 156.201V156.852H76.4082V156.966C76.4082 157.774 76.6338 158.422 77.085 158.908C77.5361 159.395 78.1396 159.638 78.8955 159.638C79.4287 159.638 79.8857 159.515 80.2666 159.269C80.6475 159.022 80.9023 158.694 81.0312 158.284ZM84.248 154.373C84.248 153.547 84.582 152.876 85.25 152.36C85.918 151.845 86.791 151.587 87.8691 151.587C88.8945 151.587 89.7354 151.848 90.3916 152.369C91.0537 152.885 91.3994 153.556 91.4287 154.382H89.6445C89.5977 153.96 89.4131 153.629 89.0908 153.389C88.7686 153.148 88.3438 153.028 87.8164 153.028C87.3008 153.028 86.8848 153.143 86.5684 153.371C86.2578 153.6 86.1025 153.896 86.1025 154.259C86.1025 154.821 86.5742 155.22 87.5176 155.454L89.0732 155.814C90.0049 156.037 90.6641 156.342 91.0508 156.729C91.4434 157.109 91.6396 157.643 91.6396 158.328C91.6396 159.172 91.2822 159.857 90.5674 160.385C89.8584 160.912 88.9355 161.176 87.7988 161.176C86.7148 161.176 85.8301 160.918 85.1445 160.402C84.4648 159.887 84.0869 159.201 84.0107 158.346H85.8916C85.9678 158.791 86.1758 159.134 86.5156 159.374C86.8555 159.608 87.3125 159.726 87.8867 159.726C88.4551 159.726 88.9033 159.617 89.2314 159.4C89.5654 159.178 89.7324 158.879 89.7324 158.504C89.7324 158.205 89.6328 157.968 89.4336 157.792C89.2344 157.616 88.8945 157.467 88.4141 157.344L86.7617 156.939C85.0859 156.535 84.248 155.68 84.248 154.373ZM92.9492 154.373C92.9492 153.547 93.2832 152.876 93.9512 152.36C94.6191 151.845 95.4922 151.587 96.5703 151.587C97.5957 151.587 98.4365 151.848 99.0928 152.369C99.7549 152.885 100.101 153.556 100.13 154.382H98.3457C98.2988 153.96 98.1143 153.629 97.792 153.389C97.4697 153.148 97.0449 153.028 96.5176 153.028C96.002 153.028 95.5859 153.143 95.2695 153.371C94.959 153.6 94.8037 153.896 94.8037 154.259C94.8037 154.821 95.2754 155.22 96.2188 155.454L97.7744 155.814C98.7061 156.037 99.3652 156.342 99.752 156.729C100.145 157.109 100.341 157.643 100.341 158.328C100.341 159.172 99.9834 159.857 99.2686 160.385C98.5596 160.912 97.6367 161.176 96.5 161.176C95.416 161.176 94.5312 160.918 93.8457 160.402C93.166 159.887 92.7881 159.201 92.7119 158.346H94.5928C94.6689 158.791 94.877 159.134 95.2168 159.374C95.5566 159.608 96.0137 159.726 96.5879 159.726C97.1562 159.726 97.6045 159.617 97.9326 159.4C98.2666 159.178 98.4336 158.879 98.4336 158.504C98.4336 158.205 98.334 157.968 98.1348 157.792C97.9355 157.616 97.5957 157.467 97.1152 157.344L95.4629 156.939C93.7871 156.535 92.9492 155.68 92.9492 154.373ZM105.052 159.655C105.72 159.655 106.279 159.453 106.73 159.049C107.188 158.639 107.416 158.135 107.416 157.537V156.808L105.14 156.948C104.571 156.989 104.132 157.13 103.821 157.37C103.517 157.604 103.364 157.921 103.364 158.319C103.364 158.724 103.517 159.049 103.821 159.295C104.132 159.535 104.542 159.655 105.052 159.655ZM104.524 161.158C103.616 161.158 102.875 160.9 102.301 160.385C101.732 159.869 101.448 159.198 101.448 158.372C101.448 157.563 101.747 156.922 102.345 156.447C102.942 155.967 103.789 155.697 104.885 155.639L107.416 155.489V154.777C107.416 154.262 107.252 153.86 106.924 153.573C106.596 153.28 106.142 153.134 105.562 153.134C105.022 153.134 104.583 153.254 104.243 153.494C103.909 153.734 103.698 154.065 103.61 154.487H101.817C101.87 153.632 102.239 152.935 102.925 152.396C103.61 151.856 104.513 151.587 105.632 151.587C106.751 151.587 107.642 151.862 108.304 152.413C108.972 152.964 109.306 153.702 109.306 154.628V161H107.486V159.479H107.442C107.179 159.989 106.777 160.396 106.238 160.701C105.705 161.006 105.134 161.158 104.524 161.158ZM115.089 159.462C115.833 159.462 116.428 159.181 116.873 158.618C117.324 158.056 117.55 157.3 117.55 156.351C117.55 155.401 117.324 154.64 116.873 154.065C116.428 153.491 115.833 153.204 115.089 153.204C114.356 153.204 113.771 153.488 113.331 154.057C112.897 154.625 112.681 155.39 112.681 156.351C112.681 157.312 112.897 158.07 113.331 158.627C113.771 159.184 114.356 159.462 115.089 159.462ZM115.106 164.48C114.028 164.48 113.114 164.223 112.364 163.707C111.62 163.191 111.189 162.529 111.072 161.721H112.979C113.114 162.107 113.378 162.418 113.771 162.652C114.169 162.887 114.638 163.004 115.177 163.004C115.909 163.004 116.486 162.811 116.908 162.424C117.33 162.043 117.541 161.533 117.541 160.895V159.374H117.506C117.242 159.884 116.85 160.288 116.328 160.587C115.812 160.886 115.229 161.035 114.579 161.035C113.413 161.035 112.481 160.613 111.784 159.77C111.087 158.92 110.738 157.777 110.738 156.342C110.738 154.889 111.087 153.737 111.784 152.888C112.487 152.032 113.434 151.604 114.623 151.604C115.273 151.604 115.856 151.76 116.372 152.07C116.888 152.375 117.286 152.797 117.567 153.336H117.603V151.754H119.448V160.833C119.448 161.935 119.053 162.816 118.262 163.479C117.477 164.146 116.425 164.48 115.106 164.48ZM126.805 153.784C126.389 153.339 125.853 153.116 125.196 153.116C124.54 153.116 123.995 153.342 123.562 153.793C123.128 154.238 122.888 154.815 122.841 155.524H127.464C127.44 154.81 127.221 154.229 126.805 153.784ZM127.455 158.284H129.257C129.122 159.134 128.688 159.828 127.956 160.367C127.224 160.906 126.33 161.176 125.275 161.176C123.922 161.176 122.855 160.751 122.076 159.901C121.303 159.046 120.916 157.886 120.916 156.421C120.916 154.968 121.303 153.799 122.076 152.914C122.855 152.029 123.896 151.587 125.196 151.587C126.474 151.587 127.487 152.006 128.237 152.844C128.987 153.676 129.362 154.795 129.362 156.201V156.852H122.832V156.966C122.832 157.774 123.058 158.422 123.509 158.908C123.96 159.395 124.563 159.638 125.319 159.638C125.853 159.638 126.31 159.515 126.69 159.269C127.071 159.022 127.326 158.694 127.455 158.284Z" fill="#121212"/>
<path d="M134.001 155.273L134.123 152.575L131.847 154.039L131.151 152.825L133.567 151.591L131.151 150.357L131.847 149.143L134.123 150.607L134.001 147.909H135.388L135.267 150.607L137.543 149.143L138.239 150.357L135.823 151.591L138.239 152.825L137.543 154.039L135.267 152.575L135.388 155.273H134.001Z" fill="#121212" fill-opacity="0.3"/>
<rect x="0.5" y="128.5" width="816" height="139" stroke="#121212" stroke-opacity="0.4"/>
<rect width="817" height="64" transform="translate(0 278)" fill="#FF1E00"/>
<path d="M388.426 314.432H390.623C390.693 315.012 390.992 315.48 391.52 315.838C392.047 316.189 392.7 316.365 393.479 316.365C394.241 316.365 394.862 316.195 395.343 315.855C395.829 315.516 396.072 315.082 396.072 314.555C396.072 314.098 395.896 313.729 395.545 313.447C395.193 313.16 394.619 312.923 393.822 312.735L392.179 312.349C391.013 312.079 390.146 311.66 389.577 311.092C389.015 310.523 388.733 309.785 388.733 308.877C388.733 307.758 389.173 306.85 390.052 306.152C390.931 305.455 392.064 305.106 393.453 305.106C394.848 305.106 395.97 305.452 396.819 306.144C397.675 306.829 398.117 307.731 398.146 308.851H395.984C395.932 308.259 395.677 307.796 395.22 307.462C394.763 307.122 394.168 306.952 393.436 306.952C392.721 306.952 392.141 307.113 391.695 307.436C391.256 307.758 391.036 308.183 391.036 308.71C391.036 309.132 391.206 309.475 391.546 309.738C391.892 310.002 392.454 310.228 393.233 310.415L394.692 310.749C395.976 311.042 396.907 311.47 397.487 312.032C398.067 312.595 398.357 313.348 398.357 314.291C398.357 315.492 397.906 316.447 397.004 317.156C396.107 317.859 394.892 318.211 393.356 318.211C391.892 318.211 390.714 317.874 389.823 317.2C388.938 316.521 388.473 315.598 388.426 314.432ZM403.868 310.187C403.259 310.187 402.749 310.397 402.339 310.819C401.935 311.235 401.709 311.771 401.662 312.428H406.013C405.989 311.766 405.781 311.227 405.389 310.811C404.996 310.395 404.489 310.187 403.868 310.187ZM406.021 315.214H408.069C407.929 316.099 407.48 316.816 406.725 317.367C405.969 317.912 405.043 318.185 403.947 318.185C402.553 318.185 401.457 317.757 400.66 316.901C399.863 316.04 399.465 314.865 399.465 313.377C399.465 311.9 399.86 310.717 400.651 309.826C401.448 308.936 402.518 308.49 403.859 308.49C405.178 308.49 406.224 308.915 406.997 309.765C407.771 310.608 408.157 311.739 408.157 313.157V313.869H401.645V314.001C401.645 314.751 401.855 315.354 402.277 315.812C402.705 316.269 403.276 316.497 403.991 316.497C404.495 316.497 404.929 316.383 405.292 316.154C405.661 315.92 405.904 315.606 406.021 315.214ZM409.572 318V308.684H411.673V310.283H411.717C411.975 309.721 412.35 309.284 412.842 308.974C413.34 308.663 413.94 308.508 414.644 308.508C415.663 308.508 416.454 308.815 417.017 309.431C417.585 310.046 417.869 310.896 417.869 311.979V318H415.681V312.419C415.681 311.751 415.522 311.241 415.206 310.89C414.896 310.538 414.433 310.362 413.817 310.362C413.19 310.362 412.689 310.567 412.314 310.978C411.945 311.388 411.761 311.93 411.761 312.604V318H409.572ZM423.107 318.149C421.93 318.149 420.989 317.716 420.286 316.849C419.589 315.981 419.24 314.81 419.24 313.333C419.24 311.862 419.589 310.693 420.286 309.826C420.989 308.959 421.93 308.525 423.107 308.525C423.764 308.525 424.344 308.681 424.848 308.991C425.357 309.302 425.738 309.721 425.99 310.248H426.043V305.317H428.231V318H426.087V316.409H426.052C425.794 316.942 425.404 317.367 424.883 317.684C424.367 317.994 423.775 318.149 423.107 318.149ZM423.767 310.327C423.063 310.327 422.507 310.6 422.097 311.145C421.687 311.684 421.481 312.416 421.481 313.342C421.481 314.273 421.684 315.009 422.088 315.548C422.498 316.087 423.058 316.356 423.767 316.356C424.458 316.356 425.012 316.084 425.428 315.539C425.844 314.994 426.052 314.262 426.052 313.342C426.052 312.428 425.844 311.698 425.428 311.153C425.012 310.603 424.458 310.327 423.767 310.327Z" fill="white"/>
<path d="M130.107 246.29L111.82 155.013L169.046 143.548L171.421 155.403L127.967 164.109L133.538 191.92L174.007 183.812L176.373 195.623L135.905 203.731L141.503 231.676L185.493 222.862L187.868 234.718L130.107 246.29ZM197.024 137.942L226.015 169.267L226.728 169.124L241.415 129.049L257.37 125.852L238.079 177.187L275.836 217.093L259.791 220.308L230.809 189.492L230.096 189.635L215.222 229.237L199.177 232.452L219.137 180.982L181.068 141.139L197.024 137.942ZM297.028 212.847L282.41 215.776L296.97 117.918L312.881 114.731L364.015 199.427L349.397 202.356L308.626 132.828L307.913 132.971L297.028 212.847ZM292.318 176.612L339.74 167.111L342.061 178.699L294.64 188.2L292.318 176.612ZM358.909 105.509L375.623 102.16L418.897 167.292L419.967 167.078L434.81 90.3023L451.523 86.9538L469.811 178.231L456.707 180.856L443.474 114.805L442.627 114.975L428.914 186.285L418.039 188.464L377.904 127.895L377.058 128.065L390.3 194.161L377.197 196.786L358.909 105.509ZM489.833 174.219L471.546 82.9423L504.081 76.4239C511.183 75.0012 517.325 75.115 522.507 76.7654C527.69 78.4158 531.89 81.2521 535.106 85.2744C538.317 89.267 540.482 94.0562 541.601 99.6422C542.726 105.258 542.564 110.544 541.116 115.501C539.691 120.422 536.893 124.66 532.723 128.216C528.576 131.735 522.966 134.204 515.895 135.62L493.521 140.103L491.182 128.426L512.307 124.193C516.794 123.294 520.279 121.793 522.762 119.688C525.24 117.554 526.861 115.004 527.627 112.038C528.393 109.072 528.43 105.866 527.74 102.419C527.049 98.9725 525.782 96.0431 523.939 93.6309C522.096 91.2187 519.611 89.5377 516.485 88.5879C513.389 87.6321 509.552 87.6126 504.977 88.5293L487.684 91.9939L503.605 171.46L489.833 174.219ZM570.113 158.135L551.826 66.8584L565.597 64.0992L581.509 143.521L622.869 135.235L625.245 147.09L570.113 158.135ZM640.955 143.942L622.668 52.6653L679.894 41.2L682.269 53.0554L638.815 61.7614L644.387 89.5724L684.855 81.4646L687.221 93.2753L646.753 101.383L652.352 129.328L696.341 120.515L698.716 132.37L640.955 143.942Z" fill="black" fill-opacity="0.15"/>
</svg>
