<svg width="420" height="94" viewBox="0 0 420 94" fill="none" xmlns="http://www.w3.org/2000/svg">
<rect y="20" width="400" height="54" fill="#121212" fill-opacity="0.05"/>
<path opacity="0.3" d="M29.2197 51.2949V53H21.1689V40.3174H29.2197V42.0137H23.1377V45.7227H28.8945V47.3574H23.1377V51.2949H29.2197ZM31.0127 53V43.7539H32.8232V45.3096H32.8672C33.0781 44.7881 33.415 44.3721 33.8779 44.0615C34.3408 43.751 34.8799 43.5957 35.4951 43.5957C36.1338 43.5957 36.6758 43.7539 37.1211 44.0703C37.5723 44.3867 37.8916 44.832 38.0791 45.4062H38.123C38.3633 44.8438 38.7383 44.4014 39.248 44.0791C39.7637 43.7568 40.3496 43.5957 41.0059 43.5957C41.9199 43.5957 42.6523 43.874 43.2031 44.4307C43.7539 44.9873 44.0293 45.7256 44.0293 46.6455V53H42.1221V47.1025C42.1221 46.5049 41.9668 46.042 41.6562 45.7139C41.3516 45.3857 40.918 45.2217 40.3555 45.2217C39.793 45.2217 39.333 45.4092 38.9756 45.7842C38.624 46.1592 38.4482 46.6396 38.4482 47.2256V53H36.585V46.9619C36.585 46.4287 36.4268 46.0068 36.1104 45.6963C35.7939 45.3799 35.3691 45.2217 34.8359 45.2217C34.2734 45.2217 33.8105 45.418 33.4473 45.8105C33.0898 46.1973 32.9111 46.6895 32.9111 47.2871V53H31.0127ZM49.1006 51.6553C49.7686 51.6553 50.3281 51.4531 50.7793 51.0488C51.2363 50.6387 51.4648 50.1348 51.4648 49.5371V48.8076L49.1885 48.9482C48.6201 48.9893 48.1807 49.1299 47.8701 49.3701C47.5654 49.6045 47.4131 49.9209 47.4131 50.3193C47.4131 50.7236 47.5654 51.0488 47.8701 51.2949C48.1807 51.5352 48.5908 51.6553 49.1006 51.6553ZM48.5732 53.1582C47.665 53.1582 46.9238 52.9004 46.3496 52.3848C45.7812 51.8691 45.4971 51.1982 45.4971 50.3721C45.4971 49.5635 45.7959 48.9219 46.3936 48.4473C46.9912 47.9668 47.8379 47.6973 48.9336 47.6387L51.4648 47.4893V46.7773C51.4648 46.2617 51.3008 45.8604 50.9727 45.5732C50.6445 45.2803 50.1904 45.1338 49.6104 45.1338C49.0713 45.1338 48.6318 45.2539 48.292 45.4941C47.958 45.7344 47.7471 46.0654 47.6592 46.4873H45.8662C45.9189 45.6318 46.2881 44.9346 46.9736 44.3955C47.6592 43.8564 48.5615 43.5869 49.6807 43.5869C50.7998 43.5869 51.6904 43.8623 52.3525 44.4131C53.0205 44.9639 53.3545 45.7021 53.3545 46.6279V53H51.5352V51.4795H51.4912C51.2275 51.9893 50.8262 52.3965 50.2871 52.7012C49.7539 53.0059 49.1826 53.1582 48.5732 53.1582ZM55.2617 53V43.7539H57.1602V53H55.2617ZM56.9932 42.084C56.7764 42.2949 56.5156 42.4004 56.2109 42.4004C55.9062 42.4004 55.6455 42.2949 55.4287 42.084C55.2178 41.873 55.1123 41.6182 55.1123 41.3193C55.1123 41.0146 55.2178 40.7568 55.4287 40.5459C55.6455 40.335 55.9062 40.2295 56.2109 40.2295C56.5215 40.2295 56.7822 40.335 56.9932 40.5459C57.21 40.7568 57.3184 41.0146 57.3184 41.3193C57.3184 41.6182 57.21 41.873 56.9932 42.084ZM59.1729 53V40.3174H61.0713V53H59.1729Z" fill="#121212"/>
<g filter="url(#filter0_d_338_143)">
<rect width="54" height="54" transform="translate(346 20)" fill="#FF1E00"/>
<path d="M365.16 49L380.84 49" stroke="white" stroke-width="2" stroke-linecap="round" stroke-linejoin="round"/>
<path d="M373 41.1598L380.84 48.9998L373 56.8398" stroke="white" stroke-width="2" stroke-linecap="round" stroke-linejoin="round"/>
</g>
<path d="M127.503 69.6918L115.67 72.3538L110.969 51.4599L122.803 48.7979L123.452 51.6848L115.049 53.5752L116.325 59.2488L124.2 57.4774L124.846 60.3499L116.971 62.1214L118.447 68.6811L126.85 66.7906L127.503 69.6918ZM147.439 65.2069L143.538 66.0845L136.353 58.7072L132.991 68.4572L129.318 69.2835L133.827 56.8882L125.089 48.2835L128.876 47.4316L135.517 54.2558L138.566 45.2518L142.239 44.4255L138.022 56.0495L147.439 65.2069ZM163.203 61.6607L159.854 56.3182L151.865 58.1154L151.126 64.3774L147.511 65.1908L150.566 42.4622L154.367 41.607L166.847 60.8409L163.203 61.6607ZM158.305 53.5735L155.033 48.3039C154.901 48.0733 154.713 47.7502 154.469 47.3346C154.224 46.9094 153.977 46.4795 153.729 46.0448C153.479 45.6006 153.27 45.2272 153.101 44.9247C153.094 45.3368 153.074 45.8018 153.04 46.3199C153.014 46.8262 152.981 47.304 152.942 47.7533C152.912 48.2003 152.89 48.5457 152.875 48.7894L152.16 54.956L158.305 53.5735ZM178.623 58.1917L168.681 42.0956L168.552 42.1245C168.669 42.5087 168.822 43.0348 169.012 43.7027C169.203 44.3705 169.399 45.0871 169.601 45.8524C169.803 46.6177 169.984 47.3529 170.142 48.0579L172.721 59.5195L169.605 60.2204L164.905 39.3266L169.721 38.2431L179.261 53.6189L179.347 53.5997L181.583 35.5747L186.385 34.4944L191.085 55.3883L187.812 56.1245L185.195 44.4914C185.052 43.8531 184.906 43.1602 184.758 42.4127C184.619 41.6632 184.489 40.9517 184.367 40.2783C184.256 39.6028 184.164 39.0629 184.093 38.6584L183.979 38.6841L181.653 57.5102L178.623 58.1917ZM197.96 31.8903C200.657 31.2837 202.748 31.3937 204.236 32.2203C205.723 33.0468 206.69 34.4557 207.138 36.447C207.342 37.3521 207.393 38.2465 207.292 39.1301C207.198 40.0021 206.902 40.8243 206.405 41.5968C205.906 42.3597 205.173 43.04 204.207 43.6378C203.25 44.2335 202.009 44.7028 200.485 45.0457L198.255 45.5473L200.017 53.3789L196.587 54.1505L191.887 33.2566L197.96 31.8903ZM198.372 34.7857L195.956 35.329L197.612 42.689L199.484 42.2678C200.561 42.0257 201.448 41.696 202.145 41.279C202.839 40.8524 203.32 40.3189 203.586 39.6784C203.853 39.038 203.884 38.2652 203.68 37.3601C203.408 36.1501 202.839 35.3322 201.972 34.9066C201.115 34.4787 199.915 34.4385 198.372 34.7857ZM214.594 50.0996L209.894 29.2057L213.324 28.4341L217.368 46.4126L226.243 44.4161L226.899 47.3315L214.594 50.0996ZM242.348 43.8561L230.514 46.5181L225.814 25.6242L237.647 22.9622L238.297 25.8491L229.893 27.7395L231.17 33.4131L239.044 31.6417L239.691 34.5142L231.816 36.2857L233.292 42.8454L241.695 40.9549L242.348 43.8561Z" fill="black" fill-opacity="0.15"/>
<rect x="0.5" y="20.5" width="399" height="53" stroke="#121212" stroke-opacity="0.4"/>
<defs>
<filter id="filter0_d_338_143" x="326" y="0" width="94" height="94" filterUnits="userSpaceOnUse" color-interpolation-filters="sRGB">
<feFlood flood-opacity="0" result="BackgroundImageFix"/>
<feColorMatrix in="SourceAlpha" type="matrix" values="0 0 0 0 0 0 0 0 0 0 0 0 0 0 0 0 0 0 127 0" result="hardAlpha"/>
<feOffset/>
<feGaussianBlur stdDeviation="10"/>
<feComposite in2="hardAlpha" operator="out"/>
<feColorMatrix type="matrix" values="0 0 0 0 1 0 0 0 0 0.117647 0 0 0 0 0 0 0 0 0.5 0"/>
<feBlend mode="normal" in2="BackgroundImageFix" result="effect1_dropShadow_338_143"/>
<feBlend mode="normal" in="SourceGraphic" in2="effect1_dropShadow_338_143" result="shape"/>
</filter>
</defs>
</svg>
