<svg width="30" height="30" viewBox="0 0 30 30" fill="none" xmlns="http://www.w3.org/2000/svg">
<path d="M14.998 7.85314C12.4086 7.85314 10.302 9.95596 10.302 12.5406C10.302 15.1253 12.4087 17.2281 14.998 17.2281C17.5874 17.2281 19.6941 15.1253 19.6941 12.5406C19.6941 9.95596 17.5875 7.85314 14.998 7.85314ZM14.998 14.8844C13.701 14.8844 12.6457 13.833 12.6457 12.5406C12.6457 11.2483 13.701 10.1969 14.998 10.1969C16.2951 10.1969 17.3504 11.2483 17.3504 12.5406C17.3504 13.833 16.2951 14.8844 14.998 14.8844ZM27.5664 12.5406C27.5664 5.6257 21.9283 0 14.998 0C8.06781 0 2.42969 5.6257 2.42969 12.5406V12.5445V12.5548C2.42969 21.156 8.71902 27.6093 14.5679 29.9181C14.8442 30.0272 15.1519 30.0272 15.4283 29.9181C20.164 28.0487 27.5664 22.1503 27.5664 12.5548C27.5664 12.5533 27.5664 12.551 27.5664 12.5484C27.5664 12.5456 27.5664 12.5429 27.5664 12.5406ZM25.2227 12.5619C25.2197 19.4799 20.7505 24.8377 14.9968 27.5469C9.28299 24.8675 4.77631 19.4999 4.77344 12.5617C4.7735 12.5571 4.7735 12.5524 4.7735 12.5477L4.77344 12.5389C4.77455 6.91728 9.36086 2.34375 14.998 2.34375C20.6335 2.34375 25.2187 6.91465 25.2227 12.534C25.2226 12.5388 25.2226 12.5438 25.2226 12.5477C25.2226 12.5525 25.2226 12.5572 25.2227 12.5619Z" fill="#FF1E00"/>
</svg>
