<svg width="14" height="14" viewBox="0 0 14 14" fill="none" xmlns="http://www.w3.org/2000/svg">
<path fill-rule="evenodd" clip-rule="evenodd" d="M7.98281 7.0011L13.7518 12.7701C14.0231 13.0414 14.0231 13.4824 13.7518 13.7538C13.6168 13.8888 13.4388 13.9569 13.2607 13.9569C13.0826 13.9569 12.9045 13.8887 12.7682 13.7538L6.99914 7.98477L1.23012 13.7538C1.09512 13.8888 0.917075 13.9569 0.738967 13.9569C0.560858 13.9569 0.382816 13.8887 0.246447 13.7538C-0.0248572 13.4825 -0.0248572 13.0414 0.246447 12.7701L6.01547 7.0011L0.246447 1.23207C-0.0248572 0.960769 -0.0248572 0.519704 0.246447 0.2484C0.517751 -0.0229041 0.958814 -0.0229041 1.23012 0.2484L6.99914 6.01742L12.7682 0.2484C13.0395 -0.0229041 13.4805 -0.0229041 13.7518 0.2484C14.0231 0.519704 14.0231 0.960704 13.7518 1.23207L7.98281 7.0011Z" fill="#1E2129"/>
</svg>
