<svg width="80" height="80" viewBox="0 0 80 80" fill="none" xmlns="http://www.w3.org/2000/svg">
<path d="M40 9.37305C38.7056 9.37305 37.6562 10.4224 37.6562 11.7168C37.6562 13.0112 38.7056 14.0605 40 14.0605C47.7553 14.0605 54.0648 20.369 54.0648 28.123C54.0648 29.4174 55.1142 30.4668 56.4086 30.4668C57.703 30.4668 58.7523 29.4174 58.7523 28.123C58.7523 17.7843 50.3402 9.37305 40 9.37305Z" fill="white"/>
<path d="M33.9571 0.629794C23.368 2.84245 14.7821 11.3462 12.5229 22.001C10.6152 30.9982 12.966 40.031 18.9724 46.7834C21.9085 50.0839 23.5922 54.4406 23.5922 58.7485V63.436C23.5922 66.5548 25.634 69.2043 28.4505 70.122C29.3768 75.5946 34.1268 79.9984 39.9985 79.9984C45.8687 79.9984 50.6199 75.596 51.5465 70.122C54.363 69.2043 56.4047 66.5548 56.4047 63.4359V58.7484C56.4047 54.432 58.0941 50.1276 61.1613 46.6282C65.651 41.5064 68.1235 34.9345 68.1235 28.1235C68.1235 10.379 51.8815 -3.11489 33.9571 0.629794ZM39.9985 75.311C36.9857 75.311 34.3441 73.2379 33.3687 70.4517H46.6282C45.6529 73.2379 43.0113 75.311 39.9985 75.311ZM51.7172 63.436C51.7172 64.7284 50.6658 65.7798 49.3735 65.7798H30.6235C29.3312 65.7798 28.2797 64.7284 28.2797 63.436V61.0923H51.7172V63.436ZM57.6363 43.5387C54.3676 47.2679 52.3565 51.7648 51.8462 56.4048H28.1513C27.6416 51.7623 25.6357 47.2212 22.4751 43.6679C17.4691 38.0404 15.513 30.4974 17.1085 22.9734C18.9708 14.1899 26.1271 7.05479 34.916 5.21839C49.9197 2.08292 63.436 13.3504 63.436 28.1235C63.436 33.7973 61.3763 39.2718 57.6363 43.5387Z" fill="white"/>
<path d="M7.03125 28.123H2.34375C1.04937 28.123 0 29.1724 0 30.4668C0 31.7612 1.04937 32.8105 2.34375 32.8105H7.03125C8.32563 32.8105 9.375 31.7612 9.375 30.4668C9.375 29.1724 8.32563 28.123 7.03125 28.123Z" fill="white"/>
<path d="M8.00305 16.4034L4.68852 13.0888C3.77336 12.1735 2.2893 12.1735 1.37398 13.0888C0.458672 14.0041 0.458672 15.488 1.37398 16.4034L4.68852 19.7179C5.60367 20.6332 7.08773 20.6334 8.00305 19.7179C8.91836 18.8026 8.91836 17.3187 8.00305 16.4034Z" fill="white"/>
<path d="M8.00305 41.2138C7.08773 40.2985 5.60367 40.2985 4.68852 41.2138L1.37398 44.5283C0.458672 45.4437 0.458672 46.9276 1.37398 47.8429C2.28914 48.7582 3.7732 48.7583 4.68852 47.8429L8.00305 44.5283C8.91836 43.613 8.91836 42.1291 8.00305 41.2138Z" fill="white"/>
<path d="M77.6562 28.123H72.9688C71.6744 28.123 70.625 29.1724 70.625 30.4668C70.625 31.7612 71.6744 32.8105 72.9688 32.8105H77.6562C78.9506 32.8105 80 31.7612 80 30.4668C80 29.1724 78.9506 28.123 77.6562 28.123Z" fill="white"/>
<path d="M78.6281 13.0888C77.7129 12.1735 76.2288 12.1735 75.3135 13.0888L71.999 16.4034C71.0837 17.3187 71.0837 18.8026 71.999 19.7179C72.9141 20.633 74.3982 20.6332 75.3135 19.7179L78.6281 16.4034C79.5434 15.488 79.5434 14.0041 78.6281 13.0888Z" fill="white"/>
<path d="M78.6281 44.5283L75.3135 41.2138C74.3984 40.2985 72.9143 40.2985 71.999 41.2138C71.0837 42.1291 71.0837 43.613 71.999 44.5283L75.3135 47.8429C76.2287 48.758 77.7127 48.7582 78.6281 47.8429C79.5434 46.9276 79.5434 45.4437 78.6281 44.5283Z" fill="white"/>
</svg>
