<svg width="80" height="80" viewBox="0 0 80 80" fill="none" xmlns="http://www.w3.org/2000/svg">
<path d="M0 40C13.9269 17.9089 43.1255 11.2897 65.218 25.218C71.1862 28.9807 76.2372 34.0317 80 40C66.0731 62.0911 36.8745 68.7104 14.782 54.7821C8.81375 51.0194 3.76281 45.9683 0 40Z" fill="#F2F2F2"/>
<path d="M0 40C13.9269 17.9089 43.1255 11.2897 65.218 25.218C71.1862 28.9807 76.2372 34.0317 80 40C66.0731 62.0911 36.8745 68.7104 14.782 54.7821C8.81375 51.0194 3.76281 45.9683 0 40Z" fill="#F2F2F2"/>
<path d="M39.9984 62.0691C52.1867 62.0691 62.0672 52.1886 62.0672 40.0004C62.0672 27.8122 52.1867 17.9316 39.9984 17.9316C27.8102 17.9316 17.9297 27.8122 17.9297 40.0004C17.9297 52.1886 27.8102 62.0691 39.9984 62.0691Z" fill="#D9D9D9"/>
<path d="M65.8083 25.5527C63.9145 27.3004 61.9448 28.9499 59.898 30.503C65.1656 41.4699 60.5434 54.6299 49.5766 59.8976C46.5889 61.3321 43.3145 62.0741 40 62.0687C56.258 62.143 71.3931 53.7913 80 39.9996C76.3723 34.212 71.5311 29.2824 65.8083 25.5527Z" fill="#E5E5E5"/>
<path d="M20.2239 49.7539C16.9591 50.7402 13.8791 51.5608 11.0859 52.2367C19.3659 58.6298 29.537 62.0891 39.9977 62.0698C31.5991 62.0656 23.9314 57.2905 20.2239 49.7539Z" fill="#E5E5E5"/>
<path d="M62.0694 40.0005C62.0666 36.7122 61.3245 33.4667 59.8983 30.5039C47.388 40.028 32.4997 46.0487 20.2266 49.7536C25.6059 60.6819 38.8266 65.1798 49.7548 59.8005C57.2984 56.0873 62.0736 48.4087 62.0694 40.0005Z" fill="#BFBFBF"/>
<path d="M40.0025 48.2745C44.5732 48.2745 48.2784 44.5693 48.2784 39.9986C48.2784 35.4279 44.5732 31.7227 40.0025 31.7227C35.4318 31.7227 31.7266 35.4279 31.7266 39.9986C31.7266 44.5693 35.4318 48.2745 40.0025 48.2745Z" fill="#808080"/>
<path d="M41.3758 5.51758H38.6172V27.5863H41.3758V5.51758Z" fill="#808080"/>
<path d="M27.5844 38.6211H5.51562V41.3797H27.5844V38.6211Z" fill="#808080"/>
<path d="M41.3758 52.4141H38.6172V74.4828H41.3758V52.4141Z" fill="#808080"/>
<path d="M8.27437 17.9315H5.51562V6.89695C5.51562 6.13555 6.13359 5.51758 6.895 5.51758H17.9295V8.27617H8.27437V17.9315Z" fill="#808080"/>
<path d="M74.4763 17.9315H71.7177V8.27633H62.0625V5.51758H73.097C73.8584 5.51758 74.4764 6.13555 74.4764 6.89695V17.9315H74.4763Z" fill="#808080"/>
<path d="M73.097 74.4841H62.0625V71.7255H71.7177V62.0703H74.4763V73.1048C74.4764 73.8661 73.8584 74.4841 73.097 74.4841Z" fill="#808080"/>
<path d="M17.9295 74.4823H6.895C6.13359 74.4823 5.51562 73.8643 5.51562 73.1029V62.0684H8.27422V71.7235H17.9294L17.9295 74.4823Z" fill="#808080"/>
<path d="M74.4828 38.6211H52.4141V41.3797H74.4828V38.6211Z" fill="#808080"/>
</svg>
