<svg width="30" height="30" viewBox="0 0 30 30" fill="none" xmlns="http://www.w3.org/2000/svg">
<path d="M7 11V1.5L28 1L29 4.5L28.5 8.5L27.5 11L22.5 18.5V27L13 29.5V22.5V18L7 11Z" fill="#121212" fill-opacity="0.1"/>
<path d="M29.5757 1.07551C29.5757 0.484339 29.0966 0.0041909 28.5043 0.0041909L7.07145 0C6.78686 0 6.51477 0.113025 6.31387 0.313802C6.11303 0.514642 6 0.78776 6 1.07132L6.00316 9.1341C6.00419 10.4104 6.46248 11.647 7.29325 12.6167L11.6595 17.7096C12.1576 18.2922 12.4328 19.035 12.4328 19.8009V28.9287C12.4328 29.2583 12.5845 29.57 12.845 29.7729C13.0355 29.9215 13.2677 30 13.5042 30C13.5911 30 13.6779 29.9896 13.7637 29.9676L22.3352 27.825C22.8123 27.7057 23.1429 27.2779 23.1429 26.7861V19.8009C23.1429 19.035 23.4223 18.2922 23.9214 17.7096L28.2856 12.6167C28.9104 11.8884 29.324 11.0088 29.4915 10.0749C29.5757 1.07551 29.5757 10.0749 29.5757 1.07551ZM26.6586 11.2234L22.2943 16.3161C21.4625 17.2858 21.0043 18.5235 21.0043 19.801V25.9493L14.5715 27.5561V19.8009C14.5715 18.5235 14.1174 17.2858 13.2856 16.316L8.92035 11.2233C8.42228 10.6405 8.144 9.89774 8.1429 9.133V2.14245L27.4286 2.14284L27.4313 6.40331C27.4313 6.41195 27.4286 6.41994 27.4286 6.42858C27.4286 6.43735 27.4313 6.44534 27.4313 6.45411L27.4328 9.13203C27.4328 9.89774 27.1577 10.6405 26.6586 11.2234Z" fill="#121212"/>
</svg>
