<svg width="20" height="20" viewBox="0 0 20 20" fill="none" xmlns="http://www.w3.org/2000/svg">
<path d="M14.6019 12.3423C14.2902 12.8449 13.9497 13.3689 13.5809 13.9138C16.6826 14.3776 18.2707 15.3711 18.2707 15.8655C18.2707 16.5237 15.4567 18.0665 9.99978 18.0665C4.54325 18.0665 1.72933 16.5237 1.72933 15.8655C1.72933 15.3711 3.31699 14.3781 6.41949 13.9138C6.05026 13.3689 5.71024 12.8449 5.39811 12.3423C2.33702 12.9195 0 14.1061 0 15.8655C0 18.4462 5.03106 19.7967 9.99978 19.7967C14.9694 19.7967 20 18.4462 20 15.8655C20.0004 14.1061 17.6639 12.9195 14.6019 12.3423Z" fill="#FF1E00"/>
<path d="M10.023 0.204102C6.78056 0.204102 4.15234 2.83232 4.15234 6.07389C4.15234 8.39957 7.17203 12.8491 8.88 15.1796C9.14722 15.544 9.57138 15.7594 10.023 15.7594C10.4738 15.7594 10.8992 15.544 11.1651 15.1796C12.8731 12.8491 15.8932 8.39957 15.8932 6.07389C15.8932 2.83232 13.265 0.204102 10.023 0.204102ZM10.023 9.71869C8.10709 9.71869 6.54865 8.16025 6.54865 6.24521C6.54865 4.32974 8.10709 2.77129 10.023 2.77129C11.9385 2.77129 13.4965 4.32974 13.4965 6.24521C13.4965 8.16025 11.9385 9.71869 10.023 9.71869Z" fill="#FF1E00"/>
<path d="M10.0231 4.13232C8.85787 4.13232 7.91016 5.08003 7.91016 6.24527C7.91016 7.40964 8.85787 8.35779 10.0231 8.35779C11.1879 8.35779 12.1361 7.41008 12.1361 6.24527C12.1361 5.0796 11.1879 4.13232 10.0231 4.13232Z" fill="#FF1E00"/>
</svg>
