<svg width="50" height="50" viewBox="0 0 50 50" fill="none" xmlns="http://www.w3.org/2000/svg">
<path d="M33.4246 0.324974C33.2273 0.119403 32.9556 0.00246192 32.6709 0H10.3232C7.41689 0.00738577 5.06042 2.35811 5.04688 5.26441V44.7356C5.06042 47.6419 7.41689 49.9926 10.3232 50H39.6865C42.5928 49.9926 44.9493 47.6419 44.9628 44.7356V12.619C44.9583 12.3433 44.8479 12.0802 44.6539 11.8841L33.4246 0.324974ZM33.7233 3.65308L41.4045 11.5546H34.7717C34.1985 11.5604 33.7291 11.1004 33.7233 10.5272V3.65308ZM39.6865 47.8992H10.3232C8.57645 47.8934 7.16002 46.4823 7.14771 44.7356V5.26441C7.16002 3.51768 8.57645 2.10658 10.3232 2.10084H31.6225V10.5182C31.6246 12.2526 33.0319 13.6575 34.7668 13.6555H42.862V44.7356C42.8497 46.4823 41.4333 47.8934 39.6865 47.8992Z" fill="white" fill-opacity="0.3"/>
<path d="M36.7623 40.1261H12.5817C12.0015 40.1261 11.5312 40.5963 11.5312 41.1765C11.5312 41.7567 12.0015 42.2269 12.5817 42.2269H36.7623C37.3425 42.2269 37.8127 41.7567 37.8127 41.1765C37.8127 40.5963 37.3425 40.1261 36.7623 40.1261Z" fill="white" fill-opacity="0.3"/>
<path d="M12.5817 36.5546H27.0582C27.6384 36.5546 28.1086 36.0843 28.1086 35.5042C28.1086 34.924 27.6384 34.4537 27.0582 34.4537H12.5817C12.0015 34.4537 11.5312 34.924 11.5312 35.5042C11.5312 36.0843 12.0015 36.5546 12.5817 36.5546Z" fill="white" fill-opacity="0.3"/>
<path d="M13.3379 29.8319H27.8895C28.4696 29.8319 28.9908 29.3436 28.9908 28.7634V27.4352C28.9768 23.4079 25.7008 20.1545 21.6731 20.168H19.5538C15.5511 20.1586 12.2985 23.396 12.2891 27.3991V28.7634C12.2866 29.3465 12.7544 29.8233 13.3379 29.8319ZM14.3899 27.4352C14.3924 24.5839 16.7025 22.2725 19.5538 22.2689H21.6731C24.5215 22.2689 26.8899 24.5868 26.8899 27.4352V27.731H14.3899V27.4352Z" fill="white" fill-opacity="0.3"/>
<path d="M20.6304 19.727C23.5203 19.727 25.8628 17.3845 25.8628 14.4946C25.8628 11.6051 23.5203 9.26257 20.6304 9.26257C17.741 9.26257 15.3984 11.6051 15.3984 14.4946C15.3984 17.3845 17.741 19.727 20.6304 19.727ZM20.6304 11.3634C22.3599 11.3634 23.762 12.7651 23.762 14.4946C23.762 16.2241 22.3599 17.6261 20.6304 17.6261C18.9009 17.6261 17.4993 16.2241 17.4993 14.4946C17.4993 12.7651 18.9009 11.3634 20.6304 11.3634Z" fill="white" fill-opacity="0.3"/>
</svg>
