<svg width="30" height="30" viewBox="0 0 30 30" fill="none" xmlns="http://www.w3.org/2000/svg">
<g clip-path="url(#clip0_411_4787)">
<path d="M28.6839 20.1963L25.4308 17.8727C24.1752 16.976 22.472 17.1169 21.381 18.2078L19.4748 20.1141C17.0319 18.383 11.6182 12.97 9.88563 10.5251L11.7919 8.6189C12.883 7.52777 13.0239 5.82463 12.1271 4.56914L9.80348 1.31613C8.67555 -0.262855 6.39713 -0.453636 5.02282 0.920504L2.02141 3.92191C-0.675892 6.61916 -0.673724 10.2694 2.02745 13.9369C6.31135 19.7532 10.2466 23.6883 16.063 27.9722C19.4553 30.4707 23.1849 30.8715 26.078 27.9783L29.0795 24.9769C30.4516 23.6047 30.2651 21.3257 28.6839 20.1963ZM27.4225 23.3197L24.421 26.3211C22.3396 28.4026 19.8142 27.8245 17.4528 26.0853C11.8424 21.9531 8.04655 18.1574 3.9144 12.5471C2.17587 10.1866 1.59649 7.66095 3.6785 5.579L6.68003 2.57754C7.03077 2.22679 7.60961 2.27648 7.89655 2.67826L10.2202 5.93127C10.4484 6.25078 10.4125 6.68414 10.1349 6.96175L7.59813 9.49839C7.27856 9.81802 7.17128 10.2929 7.32239 10.7188C8.13046 12.9959 17.0064 21.8702 19.2811 22.6774C19.7071 22.8286 20.182 22.7212 20.5015 22.4016L23.0382 19.865C23.3159 19.5874 23.7494 19.5515 24.0688 19.7797L27.3218 22.1033C27.7245 22.3908 27.7722 22.97 27.4225 23.3197Z" fill="#FF1E00"/>
</g>
<defs>
<clipPath id="clip0_411_4787">
<rect width="30" height="30" fill="white"/>
</clipPath>
</defs>
</svg>
