<svg width="36" height="36" viewBox="0 0 36 36" fill="none" xmlns="http://www.w3.org/2000/svg">
<path d="M35.6855 14.6376C35.6216 14.3014 35.3277 14.0581 34.9855 14.0581H18.38C17.9865 14.0581 17.6676 14.377 17.6676 14.7705V21.6095C17.6676 22.003 17.9865 22.3219 18.38 22.3219H26.5339C25.7076 23.9496 24.42 25.3242 22.8305 26.2564C21.373 27.112 19.7026 27.5642 18 27.5642C14.0332 27.5642 10.4333 25.0696 9.04191 21.3559C8.63972 20.2862 8.43581 19.1571 8.43581 17.9999C8.43581 16.9358 8.60955 15.8899 8.95191 14.8917C10.2788 11.0302 13.915 8.43574 18.0001 8.43574C19.795 8.43574 21.5437 8.93566 23.0567 9.88144C23.3157 10.0434 23.6492 10.0221 23.8855 9.82856L29.4859 5.24355C29.6505 5.10877 29.7463 4.90746 29.747 4.69484C29.7478 4.48207 29.6534 4.2802 29.4897 4.14429C26.271 1.47185 22.1906 0 18 0C8.07476 0 0 8.07476 0 18C0 20.9774 0.741938 23.9273 2.14566 26.5307C5.29502 32.3716 11.3701 36 18 36C22.1487 36 26.1975 34.5547 29.4004 31.9304C32.559 29.3424 34.7631 25.7295 35.6062 21.7578C35.8675 20.5309 36 19.2665 36 17.9999C36 16.8684 35.8942 15.7371 35.6855 14.6376ZM18 1.42481C21.5681 1.42481 25.0493 2.58335 27.8967 4.70334L23.3686 8.4105C21.7345 7.49341 19.8894 7.011 18 7.011C13.6453 7.011 9.73617 9.57818 7.9766 13.4927L3.55753 9.87483C6.40399 4.83518 11.8109 1.42481 18 1.42481ZM1.42481 18C1.42481 15.5682 1.95131 13.2572 2.89603 11.1747L7.45362 14.906C7.1602 15.908 7.011 16.9463 7.011 18C7.011 19.1552 7.18854 20.2868 7.53848 21.3708L3.00952 25.0781C1.97163 22.879 1.42481 20.4502 1.42481 18ZM18 34.5752C12.0902 34.5752 6.65923 31.444 3.68684 26.3649L8.09367 22.7576C8.90255 24.4441 10.1248 25.8933 11.6718 26.9849C13.53 28.296 15.7182 28.9891 17.9999 28.9891C19.7876 28.9891 21.5445 28.5533 23.113 27.7277L27.673 31.4608C24.8688 33.4756 21.4726 34.5752 18 34.5752ZM34.2127 21.4615C33.4653 24.9818 31.5558 28.1957 28.8188 30.5573L24.3949 26.9356C26.161 25.6688 27.5275 23.8975 28.2912 21.8594C28.3732 21.6406 28.3427 21.3955 28.2097 21.2036C28.0766 21.0116 27.8577 20.8971 27.6242 20.8971H19.0924V15.4828H34.3849C34.5113 16.3111 34.5752 17.1553 34.5752 17.9999C34.5752 19.1671 34.4533 20.3316 34.2127 21.4615Z" fill="white"/>
</svg>
