<svg width="78" height="78" viewBox="0 0 78 78" fill="none" xmlns="http://www.w3.org/2000/svg">
<path fill-rule="evenodd" clip-rule="evenodd" d="M53.5915 44.6704L53.0426 44.4644L33.9692 36.9125C33.4203 36.7065 32.8714 36.5692 32.254 36.5692C29.9212 36.5692 28.0688 38.4915 28.0688 40.7571C28.0688 41.7183 28.3432 42.6107 28.9607 43.2973C29.0293 43.4346 29.1665 43.5032 29.2351 43.6406L42.957 59.2936C44.6722 61.2159 47.1422 62.3831 49.8865 62.3831C55.0322 62.3831 59.2174 58.1952 59.2174 53.1148C59.1488 49.4075 56.8847 46.1121 53.5915 44.6704ZM47.1422 13.3642C51.4646 12.0598 56.13 14.2567 57.5708 18.376C59.0116 22.4952 56.6789 26.889 52.3565 28.2621C48.0341 29.5665 43.3687 27.3696 41.9279 23.2504C40.4871 19.1311 42.8884 14.7373 47.1422 13.3642ZM77.1931 18.2386C76.5756 17.3461 75.615 16.7969 74.6545 16.5223L70.881 15.5611C70.8124 15.4238 70.8124 15.2179 70.7438 15.0119C66.8331 3.54672 54.2089 -2.63213 42.4767 1.07518C36.3705 2.99749 31.7737 7.25403 29.2351 12.5404L22.5114 23.2504L6.52545 16.9342C5.49631 16.5223 4.39857 16.4536 3.23221 16.7969C0.762271 17.6208 -0.541307 20.161 0.213395 22.6325C0.350614 22.9758 0.487831 23.319 0.693659 23.5936L17.3657 45.7002V45.7688H17.4343L29.3724 62.5204C34.5867 71.8573 45.8386 77.4869 56.7475 73.9169C68.4797 70.1409 74.8603 57.7832 71.0182 46.3867C69.8519 42.8167 67.7936 39.7273 65.1178 37.3244C68.4111 34.1663 70.6752 30.1158 71.4985 25.6533L75.1348 24.6234V24.5548C75.4778 24.4861 75.7523 24.2802 76.0267 24.0742C78.085 22.9071 78.6339 20.2296 77.1931 18.2386Z" fill="white" fill-opacity="0.2"/>
</svg>
