<svg width="50" height="50" viewBox="0 0 50 50" fill="none" xmlns="http://www.w3.org/2000/svg">
<path d="M45.5898 8.64583H38.961V8.59538L30.7037 0H14.9278C12.763 0 11.0443 1.80664 11.0443 3.97095V8.64583H4.41547C2.77362 8.64583 1.46096 10.0057 1.46096 11.6479V39.5573C1.45445 41.1759 2.76142 42.4935 4.38007 42.5H17.3138L15.9206 47.9167H13.0918C12.5165 47.9167 12.0502 48.383 12.0502 48.9583C12.0502 49.5337 12.5165 50 13.0918 50H36.9134C37.4888 50 37.9551 49.5337 37.9551 48.9583C37.9551 48.383 37.4888 47.9167 36.9134 47.9167H34.0847L32.6914 42.5H45.5898C47.2085 42.513 48.5313 41.2113 48.5443 39.5927C48.5443 39.5809 48.5443 39.5691 48.5443 39.5573V11.6479C48.5443 10.0057 47.2325 8.64583 45.5898 8.64583ZM45.5898 10.7292C46.0838 10.743 46.4736 11.154 46.461 11.6479V32.2917H38.961V10.7292H45.5898ZM31.3568 3.65641L35.4978 8.02083H31.7051C31.4842 8.02083 31.3568 7.79663 31.3568 7.57609V3.65641ZM14.9278 2.08333H29.2735V7.57609C29.2735 8.94531 30.3359 10.1042 31.7051 10.1042H36.8776V32.2917H13.1276V3.97095C13.1276 2.95573 13.9121 2.08333 14.9278 2.08333ZM4.41547 10.7292H11.0443V32.2917H3.5443V11.6479C3.53168 11.154 3.92149 10.743 4.41547 10.7292ZM31.9313 47.9167H18.0739L19.4671 42.5H30.5381L31.9313 47.9167ZM45.5898 40.4167H4.41547C3.94835 40.4309 3.55813 40.0639 3.5443 39.5968C3.5443 39.5837 3.54389 39.5703 3.5443 39.5573V34.375H46.461V39.5573C46.4687 40.024 46.0964 40.4089 45.6293 40.4167C45.6162 40.4167 45.6028 40.4167 45.5898 40.4167Z" fill="white" fill-opacity="0.3"/>
<path d="M16.4792 17.9167H33.0726C33.6479 17.9167 34.1143 17.4504 34.1143 16.875C34.1143 16.2997 33.6479 15.8334 33.0726 15.8334H16.4792C15.9038 15.8334 15.4375 16.2997 15.4375 16.875C15.4375 17.4504 15.9038 17.9167 16.4792 17.9167Z" fill="white" fill-opacity="0.3"/>
<path d="M16.4792 12.6042H26.4132C26.9882 12.6042 27.4549 12.1379 27.4549 11.5625C27.4549 10.9872 26.9882 10.5209 26.4132 10.5209H16.4792C15.9038 10.5209 15.4375 10.9872 15.4375 11.5625C15.4375 12.1379 15.9038 12.6042 16.4792 12.6042Z" fill="white" fill-opacity="0.3"/>
<path d="M16.4792 23.125H33.0726C33.6479 23.125 34.1143 22.6587 34.1143 22.0833C34.1143 21.5079 33.6479 21.0416 33.0726 21.0416H16.4792C15.9038 21.0416 15.4375 21.5079 15.4375 22.0833C15.4375 22.6587 15.9038 23.125 16.4792 23.125Z" fill="white" fill-opacity="0.3"/>
<path d="M16.4792 28.3333H33.0726C33.6479 28.3333 34.1143 27.867 34.1143 27.2917C34.1143 26.7163 33.6479 26.25 33.0726 26.25H16.4792C15.9038 26.25 15.4375 26.7163 15.4375 27.2917C15.4375 27.867 15.9038 28.3333 16.4792 28.3333Z" fill="white" fill-opacity="0.3"/>
</svg>
