<svg width="20" height="20" viewBox="0 0 20 20" fill="none" xmlns="http://www.w3.org/2000/svg">
<g>
<path d="M13.5441 6.45487C12.6446 5.5554 11.3748 4.97339 9.99911 4.97339C8.62345 4.97339 7.35361 5.52894 6.45414 6.45487C5.55467 7.35434 4.97266 8.62418 4.97266 9.99984C4.97266 11.3755 5.55467 12.6453 6.45414 13.5448C7.35361 14.4443 8.62345 15.0263 9.99911 15.0263C11.3748 15.0263 12.6446 14.4707 13.5441 13.5448C14.4436 12.6453 15.0256 11.3755 15.0256 9.99984C15.0256 8.62418 14.47 7.35434 13.5441 6.45487ZM12.5917 12.5924C11.9303 13.2538 11.0044 13.6506 9.99911 13.6506C8.99382 13.6506 8.06789 13.2538 7.40652 12.5924C6.74514 11.9311 6.34832 11.0051 6.34832 9.99984C6.34832 8.99455 6.74514 8.06863 7.40652 7.40725C8.06789 6.74588 8.99382 6.34905 9.99911 6.34905C11.0044 6.34905 11.9303 6.74588 12.5917 7.40725C13.2531 8.06863 13.6499 8.99455 13.6499 9.99984C13.6499 11.0051 13.2531 11.9311 12.5917 12.5924Z" fill="white"/>
<path d="M19.3128 9.31226H17.2757C16.9054 9.31226 16.5879 9.62972 16.5879 10.0001C16.5879 10.3705 16.9054 10.6879 17.2757 10.6879H19.3128C19.6831 10.6879 20.0006 10.3705 20.0006 10.0001C20.0006 9.62972 19.6831 9.31226 19.3128 9.31226Z" fill="white"/>
<path d="M10.0003 16.5874C9.62996 16.5874 9.3125 16.9049 9.3125 17.2752V19.3123C9.3125 19.6826 9.62996 20.0001 10.0003 20.0001C10.3707 20.0001 10.6882 19.6826 10.6882 19.3123V17.2752C10.6882 16.9049 10.3707 16.5874 10.0003 16.5874Z" fill="white"/>
<path d="M17.0628 16.1112L15.6078 14.6562C15.3697 14.3916 14.92 14.3916 14.6554 14.6562C14.3909 14.9207 14.3909 15.344 14.6554 15.6086L16.1105 17.0636C16.375 17.3281 16.7983 17.3281 17.0628 17.0636C17.3274 16.799 17.3274 16.3758 17.0628 16.1112Z" fill="white"/>
<path d="M10.0003 0C9.62996 0 9.3125 0.31746 9.3125 0.68783V2.72487C9.3125 3.09524 9.62996 3.4127 10.0003 3.4127C10.3707 3.4127 10.6882 3.09524 10.6882 2.72487V0.68783C10.6882 0.31746 10.3707 0 10.0003 0Z" fill="white"/>
<path d="M17.0902 2.93645C16.8256 2.6719 16.4024 2.6719 16.1378 2.93645L14.6828 4.39147C14.4182 4.65602 14.4182 5.0793 14.6828 5.34385C14.9209 5.6084 15.3706 5.6084 15.6352 5.34385L17.0902 3.88883C17.3547 3.62428 17.3547 3.201 17.0902 2.93645Z" fill="white"/>
<path d="M2.72487 9.31226H0.68783C0.31746 9.31226 0 9.62972 0 10.0001C0 10.3705 0.291005 10.6879 0.68783 10.6879H2.72487C3.09524 10.6879 3.4127 10.3705 3.4127 10.0001C3.4127 9.62972 3.09524 9.31226 2.72487 9.31226Z" fill="white"/>
<path d="M5.31676 14.6562C5.07866 14.3916 4.62893 14.3916 4.36438 14.6562L2.90935 16.1112C2.6448 16.3758 2.6448 16.799 2.90935 17.0636C3.1739 17.3281 3.59718 17.3281 3.86173 17.0636L5.31676 15.6086C5.58131 15.344 5.58131 14.9207 5.31676 14.6562Z" fill="white"/>
<path d="M5.31676 4.39147L3.86173 2.93645C3.59718 2.6719 3.1739 2.6719 2.90935 2.93645C2.6448 3.201 2.6448 3.62428 2.90935 3.88883L4.36438 5.34385C4.62893 5.6084 5.05221 5.6084 5.31676 5.34385C5.58131 5.0793 5.58131 4.65602 5.31676 4.39147Z" fill="white"/>
</g>
</svg>
