<svg width="100" height="100" viewBox="0 0 100 100" fill="none" xmlns="http://www.w3.org/2000/svg">
<g clip-path="url(#clip0_256_2757)">
<path d="M74.9959 0H54.9959C52.2345 0 49.9959 2.23858 49.9959 5V8.33333H3.32927C1.48832 8.33333 -0.00406568 9.82572 -0.00406568 11.6667V18.3333C-0.00406568 20.1743 1.48832 21.6667 3.32927 21.6667H21.6626V36.95C21.1172 37.1443 20.6096 37.4319 20.1626 37.8L1.82927 52.8C0.79514 53.6341 0.135488 54.8454 -0.00406568 56.1667C-0.215313 58.1885 0.818577 60.137 2.61125 61.0955C4.40393 62.0541 6.59849 61.8318 8.1626 60.5333L23.3293 48.1333L38.4959 60.5333C39.8706 61.7276 41.7859 62.08 43.4957 61.4533C45.2054 60.8267 46.4393 59.32 46.7167 57.5203C46.994 55.7206 46.271 53.9123 44.8293 52.8L26.4959 37.8C26.0489 37.4319 25.5414 37.1443 24.9959 36.95V21.6667H49.9959V25C49.9959 27.7614 52.2345 30 54.9959 30V35C54.9959 36.841 56.4883 38.3333 58.3293 38.3333V86.6667H53.3293C49.6474 86.6667 46.6626 89.6514 46.6626 93.3333V96.6667C46.6626 98.5076 48.155 100 49.9959 100H79.9959C81.8369 100 83.3293 98.5076 83.3293 96.6667V93.3333C83.3293 89.6514 80.3445 86.6667 76.6626 86.6667H71.6626V38.3333C73.5036 38.3333 74.9959 36.841 74.9959 35V30C77.7574 30 79.9959 27.7614 79.9959 25V21.6667H85.4626C86.0544 22.6918 87.1456 23.3262 88.3293 23.3333H96.6626C98.5036 23.3333 99.9959 21.8409 99.9959 20V10C99.9959 8.15905 98.5036 6.66667 96.6626 6.66667H88.3293C87.1456 6.67381 86.0544 7.30818 85.4626 8.33333H79.9959V5C79.9959 2.23858 77.7574 0 74.9959 0ZM42.7126 55.3833C43.0581 55.659 43.2799 56.0607 43.3293 56.5C43.3679 56.9403 43.23 57.378 42.9459 57.7167C42.3637 58.421 41.3228 58.5251 40.6126 57.95L24.3793 44.6167C23.7673 44.1202 22.8912 44.1202 22.2793 44.6167L6.04594 57.95C5.33572 58.5251 4.29488 58.421 3.7126 57.7167C3.42854 57.378 3.29065 56.9403 3.32927 56.5C3.37861 56.0607 3.60043 55.659 3.94593 55.3833L22.2793 40.3833C22.8912 39.8869 23.7673 39.8869 24.3793 40.3833L42.7126 55.3833ZM88.3293 10H96.6626V20H88.3293V10ZM25.7793 11.6667H31.4459L25.8793 18.3333H20.2126L25.7793 11.6667ZM15.8793 18.3333H10.2126L15.7793 11.6667H21.4459L15.8793 18.3333ZM35.7793 11.6667H41.4459L35.8793 18.3333H30.2126L35.7793 11.6667ZM3.32927 11.6667H11.4459L5.87927 18.3333H3.32927V11.6667ZM40.2126 18.3333L45.7793 11.6667H49.9959V18.3333H40.2126ZM79.9959 93.3333V96.6667H49.9959V93.3333C49.9959 91.4924 51.4883 90 53.3293 90H76.6626C78.5036 90 79.9959 91.4924 79.9959 93.3333ZM68.3293 86.6667H61.6626V38.3333H68.3293V86.6667ZM71.6626 35H58.3293V30H71.6626V35ZM76.6626 25C76.6626 25.9205 75.9164 26.6667 74.9959 26.6667H54.9959C54.0755 26.6667 53.3293 25.9205 53.3293 25V5C53.3293 4.07953 54.0755 3.33333 54.9959 3.33333H74.9959C75.9164 3.33333 76.6626 4.07953 76.6626 5V25ZM84.9959 11.6667V18.3333H79.9959V11.6667H84.9959Z" fill="white" fill-opacity="0.5"/>
<path d="M69.9974 6.66626H59.9974C58.1564 6.66626 56.6641 8.15864 56.6641 9.99959V13.3329C56.6641 15.1739 58.1564 16.6663 59.9974 16.6663H69.9974C71.8383 16.6663 73.3307 15.1739 73.3307 13.3329V9.99959C73.3307 8.15864 71.8383 6.66626 69.9974 6.66626ZM69.9974 13.3329H59.9974V9.99959H69.9974V13.3329Z" fill="white" fill-opacity="0.5"/>
<path d="M5.00001 70.1668V96.6668C5.00001 98.5078 6.4924 100 8.33334 100H38.3333C40.1743 100 41.6667 98.5078 41.6667 96.6668V70.1668C41.6692 69.2204 41.2693 68.3176 40.5667 67.6835L25.5667 54.1835C24.2979 53.0384 22.3687 53.0384 21.1 54.1835L6.10001 67.6835C5.39744 68.3176 4.99752 69.2204 5.00001 70.1668ZM25 96.6668H16.6667V80.1335C16.6741 80.0632 16.7297 80.0076 16.8 80.0002H24.8667C24.937 80.0076 24.9925 80.0632 25 80.1335V96.6668ZM8.33334 70.1668L23.3333 56.6668L38.3333 70.1668V96.6668H28.3333V80.1335C28.3333 78.2189 26.7813 76.6668 24.8667 76.6668H16.8C14.8854 76.6668 13.3333 78.2189 13.3333 80.1335V96.6668H8.33334V70.1668Z" fill="white" fill-opacity="0.5"/>
</g>
<defs>
<clipPath id="clip0_256_2757">
<rect width="100" height="100" fill="white"/>
</clipPath>
</defs>
</svg>
