<svg width="36" height="36" viewBox="0 0 36 36" fill="none" xmlns="http://www.w3.org/2000/svg">
<path fill-rule="evenodd" clip-rule="evenodd" d="M12.72 18.96C13.515 18.96 14.16 18.3155 14.16 17.52C14.16 17.3808 14.1412 17.2458 14.1056 17.1187C14.0737 17.0095 14.0287 16.9055 13.9725 16.8084C13.8094 16.5216 13.5487 16.2961 13.2375 16.1756C13.0762 16.1137 12.9019 16.08 12.72 16.08C11.925 16.08 11.28 16.7245 11.28 17.52C11.28 18.3155 11.925 18.96 12.72 18.96ZM19.53 18.5053C19.2675 18.7852 18.8944 18.96 18.48 18.96C17.685 18.96 17.04 18.3155 17.04 17.52C17.04 16.7245 17.685 16.08 18.48 16.08C19.275 16.08 19.92 16.7245 19.92 17.52C19.92 17.9011 19.7719 18.248 19.53 18.5053ZM24.24 18.96C24.5625 18.96 24.8606 18.8536 25.1006 18.6736C25.4531 18.4111 25.68 17.992 25.68 17.52C25.68 16.7245 25.035 16.08 24.24 16.08C23.445 16.08 22.8 16.7245 22.8 17.52C22.8 18.3155 23.445 18.96 24.24 18.96ZM18 1.44C8.85375 1.44 1.44 8.85422 1.44 18C1.44 22.6898 3.38812 26.9236 6.52312 29.9377C6.66187 30.0717 6.7425 30.2559 6.74437 30.4495C6.74625 30.6427 6.66937 30.8287 6.5325 30.9656L2.93812 34.56H18C27.1462 34.56 34.56 27.1458 34.56 18C34.56 8.85422 27.1462 1.44 18 1.44ZM0 18C0 8.05875 8.05875 0 18 0C27.9412 0 36 8.05875 36 18C36 27.9412 27.9412 36 18 36H1.2C0.909375 36 0.646875 35.8247 0.534375 35.5556C0.42375 35.2866 0.485625 34.9767 0.69 34.7709L5.00625 30.4561C1.90687 27.2231 0 22.8337 0 18Z" fill="black"/>
</svg>
