<svg width="28" height="28" viewBox="0 0 28 28" fill="none" xmlns="http://www.w3.org/2000/svg">
<path d="M21.3438 6.65575C20.8896 6.2015 20.1531 6.2015 19.6988 6.65575L13.9997 12.3549L8.30051 6.65575C7.84625 6.2015 7.10976 6.2015 6.65551 6.65575C6.20125 7.11001 6.20125 7.8465 6.65551 8.30075L12.3547 13.9999L6.65551 19.6991C6.20125 20.1533 6.20125 20.8898 6.65551 21.3441C7.10976 21.7983 7.84625 21.7983 8.30051 21.3441L13.9997 15.6449L19.6988 21.3441C20.1531 21.7983 20.8896 21.7983 21.3438 21.3441C21.7981 20.8898 21.7981 20.1533 21.3438 19.6991L15.6447 13.9999L21.3438 8.30075C21.7981 7.8465 21.7981 7.11001 21.3438 6.65575Z" fill="white"/>
</svg>
