<svg width="80" height="80" viewBox="0 0 80 80" fill="none" xmlns="http://www.w3.org/2000/svg">
<g clip-path="url(#clip0_3884_10781)">
<path d="M6.204 0H61.3694C64.4159 0 66.8859 2.47 66.8859 5.5165V49.6489C66.8859 52.6954 64.4159 55.1654 61.3694 55.1654H6.204C3.1575 55.1654 0.6875 52.6954 0.6875 49.6489V5.5165C0.6875 2.47 3.1561 0 6.204 0Z" fill="#F2F2F2"/>
<path d="M7.58638 4.13672H4.82812V6.89497H7.58638V4.13672Z" fill="#BFBFBF"/>
<path d="M13.102 4.13672H10.3438V6.89497H13.102V4.13672Z" fill="#BFBFBF"/>
<path d="M18.6176 4.13672H15.8594V6.89497H18.6176V4.13672Z" fill="#BFBFBF"/>
<path d="M14.4852 11.0312H69.6507C72.6972 11.0312 75.1672 13.5013 75.1672 16.5477V60.6802C75.1672 63.7267 72.6972 66.1967 69.6507 66.1967H14.4852C11.4388 66.1967 8.96875 63.7267 8.96875 60.6802V16.5477C8.96859 13.5013 11.4373 11.0312 14.4852 11.0312Z" fill="#E5E5E5"/>
<path d="M69.6468 11.0332H63.0945C53.2102 42.5038 34.2829 58.4093 21.1797 66.1986H69.6468C72.6933 66.1986 75.1633 63.7286 75.1633 60.6822V16.5497C75.1633 13.5032 72.6933 11.0332 69.6468 11.0332Z" fill="#D9D9D9"/>
<path d="M15.8598 15.1719H13.1016V17.9301H15.8598V15.1719Z" fill="white"/>
<path d="M21.3754 15.1719H18.6172V17.9301H21.3754V15.1719Z" fill="white"/>
<path d="M26.8911 15.1719H24.1328V17.9301H26.8911V15.1719Z" fill="white"/>
<path d="M71.0254 55.166H13.1016V57.9243H71.0254V55.166Z" fill="#BFBFBF"/>
<path d="M18.6176 44.1328H15.8594V52.4077H18.6176V44.1328Z" fill="#BFBFBF"/>
<path d="M24.1332 35.8594H21.375V52.409H24.1332V35.8594Z" fill="#BFBFBF"/>
<path d="M29.6489 39.9961H26.8906V52.4083H29.6489V39.9961Z" fill="#BFBFBF"/>
<path d="M35.1645 30.3418H32.4062V52.4079H35.1645V30.3418Z" fill="#BFBFBF"/>
<path d="M40.6801 27.582H37.9219V52.4066H40.6801V27.582Z" fill="#BFBFBF"/>
<path d="M46.2036 28.9609H43.4453V38.6149H46.2036V28.9609Z" fill="#BFBFBF"/>
<path d="M51.7192 23.4453H48.9609V38.6158H51.7192V23.4453Z" fill="#BFBFBF"/>
<path d="M57.2348 20.6875H54.4766V38.6164H57.2348V20.6875Z" fill="#BFBFBF"/>
<path d="M62.7504 26.2031H59.9922V52.4067H62.7504V26.2031Z" fill="#BFBFBF"/>
<path d="M68.2661 31.7207H65.5078V52.4078H68.2661V31.7207Z" fill="#BFBFBF"/>
<path d="M75.1748 80.001L79.3125 75.8633L62.7627 59.3135L58.625 63.4511L75.1748 80.001Z" fill="#999999"/>
<path d="M64.128 68.9619L68.2656 64.8242L62.7491 59.3077L58.6114 63.4453L64.128 68.9619Z" fill="#808080"/>
<path d="M50.3351 70.3362C60.2369 70.3362 68.264 62.3092 68.264 52.4074C68.264 42.5055 60.2369 34.4785 50.3351 34.4785C40.4333 34.4785 32.4062 42.5055 32.4062 52.4074C32.4062 62.3092 40.4333 70.3362 50.3351 70.3362Z" fill="#999999"/>
<path d="M50.3341 64.8205C57.1891 64.8205 62.7463 59.2634 62.7463 52.4083C62.7463 45.5532 57.1891 39.9961 50.3341 39.9961C43.479 39.9961 37.9219 45.5532 37.9219 52.4083C37.9219 59.2634 43.479 64.8205 50.3341 64.8205Z" fill="#E5E5E5"/>
<path d="M38.2422 55.168C38.4601 56.1238 38.791 57.0492 39.2297 57.9262H61.4421C61.8807 57.0492 62.2117 56.1236 62.4297 55.168H38.2422Z" fill="white"/>
<path d="M51.7114 52.4086V40.0778C50.7956 39.9689 49.8688 39.9689 48.9531 40.0778V52.4086H51.7114Z" fill="white"/>
<path d="M46.1957 52.4096V40.7188C45.2221 41.0593 44.2966 41.5201 43.4375 42.0909V52.4096H46.1957Z" fill="white"/>
<path d="M57.227 52.4096V42.0909C56.3677 41.5199 55.4424 41.0593 54.4688 40.7188V52.4096H57.227Z" fill="white"/>
<path d="M40.6801 44.6152C38.8927 46.819 37.9191 49.5718 37.9219 52.4088H40.6801V44.6152Z" fill="white"/>
<path d="M59.9844 52.4088H62.7426C62.7454 49.572 61.7716 46.8192 59.9844 44.6152V52.4088Z" fill="white"/>
</g>
<defs>
<clipPath id="clip0_3884_10781">
<rect width="80" height="80" fill="white"/>
</clipPath>
</defs>
</svg>
