<svg width="30" height="30" viewBox="0 0 30 30" fill="none" xmlns="http://www.w3.org/2000/svg">
<path d="M15 0C6.7218 0 0 6.70944 0 15C0 23.278 6.70944 30 15 30C23.2782 30 30 23.2906 30 15C30 6.72203 23.2906 0 15 0ZM24.7398 23.0825L24.0321 22.3748C23.5746 21.9173 22.8326 21.9173 22.3748 22.3748C21.9173 22.8326 21.9173 23.5746 22.3748 24.0321L23.0825 24.7398C21.1143 26.3791 18.7228 27.3697 16.1719 27.6022V26.6016C16.1719 25.9543 15.6473 25.4297 15 25.4297C14.3527 25.4297 13.8281 25.9543 13.8281 26.6016V27.6022C11.2772 27.3697 8.88588 26.3791 6.9175 24.7398L7.6252 24.0321C8.08273 23.5746 8.08273 22.8326 7.6252 22.3748C7.16743 21.9173 6.4254 21.9173 5.96786 22.3748L5.26016 23.0825C3.62091 21.1143 2.63031 18.7228 2.39777 16.1719H3.39844C4.04572 16.1719 4.57031 15.6473 4.57031 15C4.57031 14.3527 4.04572 13.8281 3.39844 13.8281H2.39777C2.63031 11.2772 3.62091 8.88588 5.26016 6.9175L5.96786 7.6252C6.4254 8.08273 7.16743 8.08273 7.6252 7.6252C8.08273 7.16743 8.08273 6.4254 7.6252 5.96786L6.9175 5.26016C8.88565 3.62091 11.2772 2.63031 13.8281 2.39777V3.39844C13.8281 4.04572 14.3527 4.57031 15 4.57031C15.6473 4.57031 16.1719 4.04572 16.1719 3.39844V2.39777C18.7228 2.63031 21.1141 3.62091 23.0825 5.26016L22.3748 5.96786C21.9173 6.4254 21.9173 7.16743 22.3748 7.6252C22.8323 8.08273 23.5746 8.08273 24.0321 7.6252L24.7398 6.9175C26.3791 8.88588 27.3695 11.2772 27.6022 13.8281H26.6016C25.9543 13.8281 25.4297 14.3527 25.4297 15C25.4297 15.6473 25.9543 16.1719 26.6016 16.1719H27.6022C27.3697 18.7228 26.3791 21.1143 24.7398 23.0825ZM18.5218 11.4782C18.9793 11.936 18.9793 12.678 18.5218 13.1355L15.8286 15.8288C15.0865 16.5708 13.8274 16.0329 13.8281 14.9993V7.38281C13.8281 6.73553 14.3527 6.21094 15 6.21094C15.6473 6.21094 16.1719 6.73553 16.1719 7.38281V12.1708L16.8645 11.4782C17.322 11.0207 18.064 11.0207 18.5218 11.4782Z" fill="#FF1E00"/>
</svg>
