<svg width="50" height="50" viewBox="0 0 50 50" fill="none" xmlns="http://www.w3.org/2000/svg">
<g clip-path="url(#clip0_190_479)">
<path d="M44.8262 2.66398C44.6465 2.29272 44.2727 2.05448 43.8606 2.04774H34.7501V1.04004C34.7501 0.444854 34.2442 0.000356487 33.649 0.000356487H23.6444C23.0703 -0.0169015 22.5908 0.434752 22.5736 1.0089V1.04004V19.2434L5.10723 48.4069C4.90729 48.7327 4.9014 49.1414 5.0925 49.4726C5.28529 49.8056 5.64349 50.0072 6.02822 49.9996H41.2606C41.6457 50.0081 42.0048 49.806 42.198 49.4726C42.3912 49.1393 42.3874 48.7272 42.1883 48.3972L24.7287 19.2434V12.0691H27.4226V13.7318C27.4075 14.2862 27.8444 14.7479 28.3988 14.7631H28.4585H43.8606C44.2668 14.774 44.6431 14.5492 44.8262 14.186C45.0098 13.8231 44.9672 13.3871 44.7172 13.0663L41.181 8.43908L44.7172 3.8009C44.9656 3.473 45.0081 3.03313 44.8262 2.66398ZM23.6444 21.6389L31.7868 35.2369H15.5016L23.6444 21.6389ZM7.92954 47.8445L14.2119 37.3921H33.0773L39.3597 47.8445H7.92954ZM24.7287 2.1555H32.595V9.91401H24.7287V2.1555ZM38.969 7.77486C38.674 8.15538 38.674 8.68701 38.969 9.06795L41.6823 12.6079H29.5778V12.0691H33.649C34.258 12.0485 34.743 11.5531 34.7501 10.9436V4.20288H41.6823L38.969 7.77486Z" fill="white" fill-opacity="0.3"/>
</g>
<defs>
<clipPath id="clip0_190_479">
<rect width="50" height="50" fill="white"/>
</clipPath>
</defs>
</svg>
