<svg width="420" height="94" viewBox="0 0 420 94" fill="none" xmlns="http://www.w3.org/2000/svg">
<path d="M400 20H0V74H400V20Z" fill="#121212" fill-opacity="0.05"/>
<path opacity="0.3" d="M29.2197 51.2949V53H21.1689V40.3174H29.2197V42.0137H23.1377V45.7227H28.8945V47.3574H23.1377V51.2949H29.2197ZM31.0127 53V43.7539H32.8232V45.3096H32.8672C33.0781 44.7881 33.415 44.3721 33.8779 44.0615C34.3408 43.751 34.8799 43.5957 35.4951 43.5957C36.1338 43.5957 36.6758 43.7539 37.1211 44.0703C37.5723 44.3867 37.8916 44.832 38.0791 45.4062H38.123C38.3633 44.8438 38.7383 44.4014 39.248 44.0791C39.7637 43.7568 40.3496 43.5957 41.0059 43.5957C41.9199 43.5957 42.6523 43.874 43.2031 44.4307C43.7539 44.9873 44.0293 45.7256 44.0293 46.6455V53H42.1221V47.1025C42.1221 46.5049 41.9668 46.042 41.6562 45.7139C41.3516 45.3857 40.918 45.2217 40.3555 45.2217C39.793 45.2217 39.333 45.4092 38.9756 45.7842C38.624 46.1592 38.4482 46.6396 38.4482 47.2256V53H36.585V46.9619C36.585 46.4287 36.4268 46.0068 36.1104 45.6963C35.7939 45.3799 35.3691 45.2217 34.8359 45.2217C34.2734 45.2217 33.8105 45.418 33.4473 45.8105C33.0898 46.1973 32.9111 46.6895 32.9111 47.2871V53H31.0127ZM49.1006 51.6553C49.7686 51.6553 50.3281 51.4531 50.7793 51.0488C51.2363 50.6387 51.4648 50.1348 51.4648 49.5371V48.8076L49.1885 48.9482C48.6201 48.9893 48.1807 49.1299 47.8701 49.3701C47.5654 49.6045 47.4131 49.9209 47.4131 50.3193C47.4131 50.7236 47.5654 51.0488 47.8701 51.2949C48.1807 51.5352 48.5908 51.6553 49.1006 51.6553ZM48.5732 53.1582C47.665 53.1582 46.9238 52.9004 46.3496 52.3848C45.7812 51.8691 45.4971 51.1982 45.4971 50.3721C45.4971 49.5635 45.7959 48.9219 46.3936 48.4473C46.9912 47.9668 47.8379 47.6973 48.9336 47.6387L51.4648 47.4893V46.7773C51.4648 46.2617 51.3008 45.8604 50.9727 45.5732C50.6445 45.2803 50.1904 45.1338 49.6104 45.1338C49.0713 45.1338 48.6318 45.2539 48.292 45.4941C47.958 45.7344 47.7471 46.0654 47.6592 46.4873H45.8662C45.9189 45.6318 46.2881 44.9346 46.9736 44.3955C47.6592 43.8564 48.5615 43.5869 49.6807 43.5869C50.7998 43.5869 51.6904 43.8623 52.3525 44.4131C53.0205 44.9639 53.3545 45.7021 53.3545 46.6279V53H51.5352V51.4795H51.4912C51.2275 51.9893 50.8262 52.3965 50.2871 52.7012C49.7539 53.0059 49.1826 53.1582 48.5732 53.1582ZM55.2617 53V43.7539H57.1602V53H55.2617ZM56.9932 42.084C56.7764 42.2949 56.5156 42.4004 56.2109 42.4004C55.9062 42.4004 55.6455 42.2949 55.4287 42.084C55.2178 41.873 55.1123 41.6182 55.1123 41.3193C55.1123 41.0146 55.2178 40.7568 55.4287 40.5459C55.6455 40.335 55.9062 40.2295 56.2109 40.2295C56.5215 40.2295 56.7822 40.335 56.9932 40.5459C57.21 40.7568 57.3184 41.0146 57.3184 41.3193C57.3184 41.6182 57.21 41.873 56.9932 42.084ZM59.1729 53V40.3174H61.0713V53H59.1729Z" fill="#121212"/>
<g filter="url(#filter0_i_1_2)">
<path d="M400 20H346V74H400V20Z" fill="#FF1E00"/>
<path d="M365.156 48H380.836" stroke="white" stroke-width="2" stroke-linecap="round" stroke-linejoin="round"/>
<path d="M372.996 40.1608L380.836 48.0008L372.996 55.8408" stroke="white" stroke-width="2" stroke-linecap="round" stroke-linejoin="round"/>
</g>
<path d="M345.5 20.5H0.5V73.5H345.5V20.5Z" stroke="#121212" stroke-opacity="0.4"/>
<path d="M121.021 60.5347L121.359 63.5279L109.732 64.8392L109.394 61.8459L121.021 60.5347ZM108.33 42.8185L110.8 64.7187L107.024 65.1445L104.554 43.2443L108.33 42.8185ZM118.401 50.9442L118.733 53.8923L108.626 55.0322L108.293 52.0841L118.401 50.9442ZM118.814 41.6362L119.153 44.6444L107.601 45.9472L107.262 42.9389L118.814 41.6362ZM124.845 40.956L130.394 48.4188L134.141 39.9076L138.488 39.4174L133.093 51.0086L141.123 61.299L136.731 61.7943L131.045 54.1947L127.195 62.8698L122.788 63.3668L128.339 51.5446L120.483 41.4479L124.845 40.956ZM150.293 41.0412L145.891 60.7613L141.935 61.2074L147.708 38.3776L150.235 38.0926L150.293 41.0412ZM157.909 59.4059L149.21 41.1633L148.595 38.2775L151.137 37.9908L161.88 58.9581L157.909 59.4059ZM156.677 51.3192L157.015 54.3124L145.102 55.6559L144.764 52.6627L156.677 51.3192ZM163.396 36.6083L166.765 36.2284L175.003 52.4057L179.415 34.8018L182.785 34.4218L176.891 57.2652L174.214 57.5671L163.396 36.6083ZM161.862 36.7814L165.066 36.4201L167.271 50.9775L168.092 58.2575L164.332 58.6816L161.862 36.7814ZM181.115 34.6101L184.334 34.2471L186.804 56.1473L183.028 56.5731L182.207 49.2931L181.115 34.6101ZM198.683 46.5363L192.982 47.1792L192.644 44.186L198.345 43.5431C199.338 43.4311 200.122 43.1802 200.697 42.7904C201.273 42.4005 201.669 41.909 201.887 41.3158C202.113 40.7114 202.185 40.0432 202.103 39.3112C202.025 38.6193 201.806 37.9889 201.448 37.42C201.098 36.84 200.596 36.399 199.943 36.097C199.289 35.7949 198.466 35.6999 197.473 35.8118L192.931 36.3241L195.061 55.2161L191.286 55.6418L188.816 33.7416L197.134 32.8036C198.829 32.6124 200.302 32.751 201.553 33.2192C202.813 33.6763 203.813 34.3962 204.553 35.379C205.293 36.3517 205.738 37.5099 205.89 38.8536C206.049 40.2675 205.875 41.5159 205.368 42.5988C204.86 43.6817 204.04 44.5612 202.908 45.2373C201.786 45.9122 200.377 46.3452 198.683 46.5363ZM224.34 48.8828L224.678 51.8761L213.683 53.1161L213.345 50.1228L224.34 48.8828ZM212.266 31.0971L214.735 52.9973L210.96 53.4231L208.49 31.5229L212.266 31.0971ZM241.593 46.9372L241.93 49.9304L230.303 51.2417L229.966 48.2484L241.593 46.9372ZM228.901 29.221L231.371 51.1212L227.596 51.547L225.126 29.6467L228.901 29.221ZM238.973 37.3467L239.305 40.2948L229.197 41.4347L228.865 38.4866L238.973 37.3467ZM239.385 28.0387L239.724 31.0469L228.173 32.3497L227.833 29.3414L239.385 28.0387Z" fill="black" fill-opacity="0.15"/>
<defs>
<filter id="filter0_i_1_2" x="346" y="20" width="54" height="54" filterUnits="userSpaceOnUse" color-interpolation-filters="sRGB">
<feFlood flood-opacity="0" result="BackgroundImageFix"/>
<feBlend mode="normal" in="SourceGraphic" in2="BackgroundImageFix" result="shape"/>
<feColorMatrix in="SourceAlpha" type="matrix" values="0 0 0 0 0 0 0 0 0 0 0 0 0 0 0 0 0 0 127 0" result="hardAlpha"/>
<feOffset/>
<feGaussianBlur stdDeviation="10"/>
<feComposite in2="hardAlpha" operator="arithmetic" k2="-1" k3="1"/>
<feColorMatrix type="matrix" values="0 0 0 0 1 0 0 0 0 0.117647 0 0 0 0 0 0 0 0 0.5 0"/>
<feBlend mode="normal" in2="shape" result="effect1_innerShadow_1_2"/>
</filter>
</defs>
</svg>
