<svg width="80" height="80" viewBox="0 0 80 80" fill="none" xmlns="http://www.w3.org/2000/svg">
<g clip-path="url(#clip0_486_9578)">
<path d="M27.699 15.4121H13.7109C12.4164 15.4121 11.3672 16.4613 11.3672 17.7559C11.3672 19.0504 12.4164 20.0996 13.7109 20.0996H27.699C28.9929 20.0996 30.0427 19.0504 30.0427 17.7559C30.0427 16.4613 28.9929 15.4121 27.699 15.4121Z" fill="white"/>
<path d="M27.699 24.7871H13.7109C12.4164 24.7871 11.3672 25.8363 11.3672 27.1309C11.3672 28.4254 12.4164 29.4746 13.7109 29.4746H27.699C28.9929 29.4746 30.0427 28.4254 30.0427 27.1309C30.0427 25.8363 28.9929 24.7871 27.699 24.7871Z" fill="white"/>
<path d="M27.699 34.1641H13.7109C12.4164 34.1641 11.3672 35.2133 11.3672 36.5078C11.3672 37.8024 12.4164 38.8516 13.7109 38.8516H27.699C28.9929 38.8516 30.0427 37.8024 30.0427 36.5078C30.0427 35.2133 28.9929 34.1641 27.699 34.1641Z" fill="white"/>
<path d="M27.699 43.5391H13.7109C12.4164 43.5391 11.3672 44.5883 11.3672 45.8828C11.3672 47.1774 12.4164 48.2266 13.7109 48.2266H27.699C28.9929 48.2266 30.0427 47.1774 30.0427 45.8828C30.0427 44.5883 28.9929 43.5391 27.699 43.5391Z" fill="white"/>
<path d="M27.699 53.0703H13.7109C12.4164 53.0703 11.3672 54.1201 11.3672 55.4141C11.3672 56.7086 12.4164 57.7578 13.7109 57.7578H27.699C28.9929 57.7578 30.0427 56.7086 30.0427 55.4141C30.0427 54.1201 28.9929 53.0703 27.699 53.0703Z" fill="white"/>
<path d="M35.5703 20.0996H49.5583C50.8529 20.0996 51.9021 19.0504 51.9021 17.7559C51.9021 16.4613 50.8529 15.4121 49.5583 15.4121H35.5703C34.2764 15.4121 33.2266 16.4613 33.2266 17.7559C33.2266 19.0504 34.2764 20.0996 35.5703 20.0996Z" fill="white"/>
<path d="M35.5703 29.4746H49.5583C50.8529 29.4746 51.9021 28.4254 51.9021 27.1309C51.9021 25.8363 50.8529 24.7871 49.5583 24.7871H35.5703C34.2764 24.7871 33.2266 25.8363 33.2266 27.1309C33.2266 28.4254 34.2764 29.4746 35.5703 29.4746Z" fill="white"/>
<path d="M44.6511 36.5078C44.6511 35.2133 43.6019 34.1641 42.3074 34.1641H35.5703C34.2764 34.1641 33.2266 35.2133 33.2266 36.5078C33.2266 37.8024 34.2764 38.8516 35.5703 38.8516H42.3074C43.6019 38.8516 44.6511 37.8024 44.6511 36.5078Z" fill="white"/>
<path d="M66.8576 54.0606C65.8481 53.2507 64.3735 53.4124 63.5629 54.4219L57.5265 61.9476L53.7894 59.2401C52.7414 58.4802 51.2753 58.7145 50.5161 59.7625C49.7568 60.8111 49.9912 62.2765 51.0391 63.0358L56.5829 67.0526C56.998 67.3528 57.4789 67.4987 57.9568 67.4987C58.6447 67.4987 59.3246 67.1966 59.7861 66.621L67.2195 57.3553C68.0295 56.3458 67.8677 54.8705 66.8576 54.0606Z" fill="white"/>
<path d="M72.7789 46.8658C69.726 43.7592 65.8032 41.8011 61.5527 41.2244V9.43909C61.5527 4.23462 57.3181 0 52.1136 0H11.1584C5.95337 0 1.71875 4.23462 1.71875 9.43909V63.7317C1.71875 68.9368 5.95337 73.1714 11.1578 73.1714H44.0979C47.8046 77.5256 53.1342 80 58.9001 80C69.6332 80 78.3649 71.2622 78.3649 60.5219C78.3649 55.3802 76.3812 50.5304 72.7789 46.8658ZM6.40625 63.7317V9.43909C6.40625 6.81946 8.53821 4.6875 11.1584 4.6875H52.1136C54.7339 4.6875 56.8652 6.81946 56.8652 9.43909V41.1499C47.085 42.171 39.4354 50.4688 39.4354 60.5219C39.4354 63.3081 40.0165 66.0022 41.131 68.4833H11.1584C8.53821 68.4833 6.40625 66.3519 6.40625 63.7317ZM58.9001 75.3125C54.2194 75.3125 49.9164 73.1635 47.0935 69.4171C45.1501 66.8372 44.1223 63.7616 44.1223 60.5219C44.1223 52.3663 50.752 45.7312 58.9001 45.7312C58.9771 45.7312 59.0546 45.7324 59.1315 45.7336L59.1675 45.7343C63.0573 45.8032 66.7041 47.3718 69.436 50.1514C72.171 52.934 73.6774 56.6174 73.6774 60.5219C73.6774 68.6774 67.0483 75.3125 58.9001 75.3125Z" fill="white"/>
</g>
<defs>
<clipPath id="clip0_486_9578">
<rect width="80" height="80" fill="white"/>
</clipPath>
</defs>
</svg>
