<svg width="80" height="80" viewBox="0 0 80 80" fill="none" xmlns="http://www.w3.org/2000/svg">
<g clip-path="url(#clip0_3884_10785)">
<path d="M66.2044 0H13.7906C10.7438 0 8.27344 2.47031 8.27344 5.51719V38.6206H71.7217V5.51719C71.7216 2.47031 69.2513 0 66.2044 0Z" fill="#F2F2F2"/>
<path d="M66.2109 0H58.855L20.2344 38.6206H71.7281V5.51719C71.7281 2.47031 69.2578 0 66.2109 0Z" fill="#E5E5E5"/>
<path d="M47.8777 56.5531L45.5134 48.2773H34.4791L32.1148 56.5531H26.2031V59.3117H53.7894V56.5531H47.8777Z" fill="#B2B2B2"/>
<path d="M8.27344 42.7591C8.27344 45.8059 10.7438 48.2763 13.7906 48.2763H66.2044C69.2512 48.2763 71.7216 45.8059 71.7216 42.7591V38.6211H8.27344V42.7591Z" fill="#B2B2B2"/>
<path d="M51.0269 63.4492H12.4062V80.0009H51.0269V63.4492Z" fill="#B2B2B2"/>
<path d="M62.0641 63.4492C65.1109 63.4492 67.5813 65.9195 67.5813 68.9664V74.4836C67.5813 77.5305 65.1109 80.0008 62.0641 80.0008C59.0172 80.0008 56.5469 77.5305 56.5469 74.4836V68.9664C56.5469 65.9195 59.0172 63.4492 62.0641 63.4492Z" fill="#B2B2B2"/>
<path d="M19.3055 73.1035H16.5469V75.8621H19.3055V73.1035Z" fill="#808080"/>
<path d="M19.3055 67.5859H16.5469V70.3445H19.3055V67.5859Z" fill="#808080"/>
<path d="M24.8211 67.5859H22.0625V70.3445H24.8211V67.5859Z" fill="#808080"/>
<path d="M30.3367 67.5859H27.5781V70.3445H30.3367V67.5859Z" fill="#808080"/>
<path d="M41.3758 67.5859H38.6172V70.3445H41.3758V67.5859Z" fill="#808080"/>
<path d="M35.8523 67.5859H33.0938V70.3445H35.8523V67.5859Z" fill="#808080"/>
<path d="M46.8914 73.1035H44.1328V75.8621H46.8914V73.1035Z" fill="#808080"/>
<path d="M46.8914 67.5859H44.1328V70.3445H46.8914V67.5859Z" fill="#808080"/>
<path d="M41.3728 73.1035H22.0625V75.8621H41.3728V73.1035Z" fill="#808080"/>
<path d="M63.4461 67.5859H60.6875V70.3445H63.4461V67.5859Z" fill="#808080"/>
<path d="M38.5557 30.7427L44.0781 11.4434L41.4274 10.6849L35.9049 29.9842L38.5557 30.7427Z" fill="#808080"/>
<path d="M30.8421 28.6461L22.5662 21.7495C21.9813 21.2612 21.9027 20.3923 22.3896 19.8075C22.4434 19.7441 22.5013 19.6847 22.5662 19.6309L30.8421 12.7344L32.6076 14.853L25.6035 20.6902L32.6076 26.5273L30.8421 28.6461Z" fill="#808080"/>
<path d="M49.1561 28.6459L47.3906 26.5273L54.3947 20.6902L47.3906 14.853L49.1561 12.7344L57.432 19.6309C58.0169 20.1192 58.0955 20.9881 57.6086 21.573C57.5548 21.6364 57.4969 21.6958 57.432 21.7495L49.1561 28.6459Z" fill="#808080"/>
<path d="M46.305 51.0359L45.5173 48.2773H34.483L33.6953 51.0359H46.305Z" fill="#808080"/>
</g>
<defs>
<clipPath id="clip0_3884_10785">
<rect width="80" height="80" fill="white"/>
</clipPath>
</defs>
</svg>
