<svg width="80" height="80" viewBox="0 0 80 80" fill="none" xmlns="http://www.w3.org/2000/svg">
<path d="M58.914 39.9749L79.3143 19.5506C79.7542 19.1103 80.0009 18.513 79.9999 17.8907C79.999 17.2684 79.7504 16.672 79.3093 16.2331L63.6826 0.684477C62.7667 -0.226902 61.2861 -0.225183 60.3722 0.68854L40 21.0609L22.9397 4.00079C22.5989 3.65986 22.1613 3.43237 21.6866 3.3494L2.74765 0.0349652C1.99549 -0.0962809 1.22629 0.146524 0.686306 0.686509C0.146322 1.22649 -0.0966401 1.99569 0.0352311 2.74785L3.35185 21.6846C3.43498 22.1598 3.66278 22.5977 4.00418 22.9385L21.0737 39.9872L0.6874 60.3734C0.247881 60.8129 0.000857087 61.4089 0.000857087 62.0305C0.000857087 62.6522 0.247881 63.2483 0.6874 63.6878L16.3099 79.3101C16.7494 79.7498 17.3455 79.9965 17.9671 79.9965H17.9677C18.5895 79.9964 19.1858 79.749 19.6251 79.3092L40.0102 58.9007L60.4478 79.3131C60.8875 79.7522 61.4831 79.9986 62.1042 79.9986H62.1078C62.7301 79.9978 63.3265 79.749 63.7654 79.308L79.314 63.6811C80.2254 62.7652 80.2235 61.2844 79.3099 60.3707L58.914 39.9749ZM48.1202 19.5695L53.092 24.5413C53.5496 24.9991 54.1494 25.2278 54.7493 25.2278C55.3491 25.2278 55.9489 24.9991 56.4064 24.5413C57.3217 23.6262 57.3217 22.1421 56.4064 21.2268L51.4347 16.2551L55.9325 11.7573L60.9042 16.729C61.3619 17.1868 61.9617 17.4156 62.5615 17.4156C63.1614 17.4156 63.7612 17.1868 64.2187 16.729C65.1339 15.8139 65.1339 14.3299 64.2187 13.4146L59.2469 8.44284L62.0337 5.65605L74.3387 17.8994L55.5995 36.6605L43.3144 24.3753L48.1202 19.5695ZM16.4368 7.18929L7.19096 16.4353L5.22805 5.22778L16.4368 7.18929ZM17.9661 74.3375L5.65913 62.0305L8.44233 59.2473L13.4141 64.219C13.8715 64.6767 14.4715 64.9056 15.0712 64.9056C15.671 64.9056 16.2709 64.6767 16.7283 64.219C17.6436 63.3039 17.6436 61.8199 16.7283 60.9046L11.7566 55.9329L16.2544 51.435L21.2262 56.4068C21.6837 56.8644 22.2836 57.0933 22.8835 57.0933C23.4833 57.0933 24.0831 56.8644 24.5406 56.4068C25.4559 55.4916 25.4559 54.0076 24.5406 53.0923L19.5689 48.1206L24.39 43.2996L36.6935 55.588L17.9661 74.3375ZM62.0989 74.3373L8.97559 21.2793L13.4703 16.7846L66.5498 69.8642L62.0989 74.3373ZM69.8558 66.5413L16.7847 13.4702L21.2826 8.97236L74.3424 62.0322L69.8558 66.5413Z" fill="white"/>
</svg>
