<svg width="30" height="30" viewBox="0 0 30 30" fill="none" xmlns="http://www.w3.org/2000/svg">
<path d="M18.8133 6.25C20.0342 6.48821 21.1563 7.08532 22.0359 7.96492C22.9155 8.84452 23.5126 9.96658 23.7508 11.1875M18.8133 1.25C21.3499 1.5318 23.7153 2.66772 25.5211 4.47126C27.3269 6.2748 28.4658 8.63876 28.7508 11.175M27.5008 21.15V24.9C27.5022 25.2481 27.4309 25.5927 27.2914 25.9117C27.1519 26.2307 26.9474 26.517 26.6909 26.7523C26.4343 26.9877 26.1315 27.1669 25.8017 27.2784C25.4719 27.3899 25.1225 27.4313 24.7758 27.4C20.9293 26.9821 17.2345 25.6677 13.9883 23.5625C10.9681 21.6433 8.40744 19.0827 6.48827 16.0625C4.37574 12.8015 3.06107 9.08874 2.65077 5.225C2.61953 4.87933 2.66061 4.53095 2.7714 4.20203C2.88218 3.87311 3.06023 3.57086 3.29423 3.31453C3.52822 3.05819 3.81303 2.85339 4.13051 2.71315C4.44799 2.57292 4.7912 2.50033 5.13827 2.5H8.88827C9.4949 2.49403 10.083 2.70885 10.543 3.10442C11.0029 3.49998 11.3034 4.04931 11.3883 4.65C11.5465 5.85008 11.8401 7.02841 12.2633 8.1625C12.4315 8.6099 12.4678 9.09614 12.3682 9.5636C12.2685 10.0311 12.0368 10.4601 11.7008 10.8L10.1133 12.3875C11.8927 15.5169 14.4838 18.1081 17.6133 19.8875L19.2008 18.3C19.5406 17.9639 19.9697 17.7323 20.4372 17.6326C20.9046 17.5329 21.3909 17.5693 21.8383 17.7375C22.9724 18.1607 24.1507 18.4542 25.3508 18.6125C25.958 18.6982 26.5125 19.004 26.9089 19.4719C27.3054 19.9397 27.516 20.537 27.5008 21.15Z" stroke="white" stroke-width="2" stroke-linecap="round" stroke-linejoin="round"/>
</svg>
