<svg width="32" height="32" viewBox="0 0 32 32" fill="none" xmlns="http://www.w3.org/2000/svg">
<path d="M24.9499 9.61315C24.8259 9.48818 24.6784 9.38898 24.516 9.32129C24.3535 9.2536 24.1792 9.21875 24.0032 9.21875C23.8272 9.21875 23.6529 9.2536 23.4904 9.32129C23.3279 9.38898 23.1805 9.48818 23.0565 9.61315L13.1232 19.5598L8.94986 15.3731C8.82116 15.2488 8.66924 15.1511 8.50276 15.0855C8.33629 15.0199 8.15853 14.9877 7.97962 14.9908C7.80071 14.9939 7.62416 15.0322 7.46006 15.1035C7.29596 15.1748 7.14751 15.2778 7.02319 15.4065C6.89887 15.5352 6.80112 15.6871 6.73551 15.8536C6.66991 16.02 6.63773 16.1978 6.64083 16.3767C6.64392 16.5556 6.68223 16.7322 6.75355 16.8963C6.82488 17.0604 6.92783 17.2088 7.05652 17.3331L12.1765 22.4531C12.3005 22.5781 12.4479 22.6773 12.6104 22.745C12.7729 22.8127 12.9472 22.8475 13.1232 22.8475C13.2992 22.8475 13.4735 22.8127 13.636 22.745C13.7984 22.6773 13.9459 22.5781 14.0699 22.4531L24.9499 11.5731C25.0852 11.4483 25.1932 11.2968 25.2671 11.1281C25.341 10.9594 25.3791 10.7773 25.3791 10.5931C25.3791 10.409 25.341 10.2269 25.2671 10.0582C25.1932 9.88954 25.0852 9.738 24.9499 9.61315V9.61315Z" fill="white"/>
</svg>
