<svg width="100" height="100" viewBox="0 0 100 100" fill="none" xmlns="http://www.w3.org/2000/svg">
<g clip-path="url(#clip0_256_2751)">
<path d="M98.3606 56.5524H96.5579C96.345 55.5077 95.9272 54.5392 95.3572 53.6794L96.6396 52.3979C97.28 51.7575 97.28 50.72 96.6396 50.0796C95.9992 49.4392 94.9618 49.4392 94.3214 50.0796L93.0382 51.362C92.1793 50.7929 91.2107 50.3766 90.1668 50.1637V48.3586C90.1668 47.4524 89.4336 46.7192 88.5274 46.7192C87.6213 46.7192 86.888 47.4524 86.888 48.3586V49.998H83.6092V48.3586C83.6092 47.4524 82.876 46.7192 81.9698 46.7192C81.0637 46.7192 80.3304 47.4524 80.3304 48.3586V49.998H77.0516V48.3586C77.0516 47.4524 76.3184 46.7192 75.4122 46.7192C74.5061 46.7192 73.7728 47.4524 73.7728 48.3586V49.998H70.494V48.3586C70.494 47.4524 69.7608 46.7192 68.8546 46.7192C67.9485 46.7192 67.2152 47.4524 67.2152 48.3586V49.998H63.9364V48.3586C63.9364 47.4524 63.2032 46.7192 62.297 46.7192C61.3909 46.7192 60.6576 47.4524 60.6576 48.3586V49.998H57.3788V46.7192C57.3788 46.0628 56.9882 45.4704 56.3846 45.2127L44.9088 40.2945C44.7055 40.2064 44.4861 40.1616 44.2636 40.1616H40.9848V30.3252C40.9848 27.6131 38.7786 25.407 36.0666 25.407H19.1587C18.0716 25.407 17.0005 25.7736 16.1376 26.4428L3.53791 36.244C2.33078 37.1822 1.63916 38.5974 1.63916 40.1264V57.6875L0.577707 58.5856C0.0301724 59.0499 -0.150738 59.8184 0.132635 60.4796L5.05084 71.9554C5.3086 72.559 5.90096 72.9496 6.55736 72.9496H44.2636C44.4861 72.9496 44.7055 72.9048 44.9088 72.8167L56.3846 67.8985C56.9882 67.6408 57.3788 67.0484 57.3788 66.392H60.6576V68.0266C60.6576 68.9327 61.3909 69.666 62.297 69.666C63.2032 69.666 63.9364 68.9327 63.9364 68.0266V66.392H67.2152V68.0266C67.2152 68.9327 67.9485 69.666 68.8546 69.666C69.7608 69.666 70.494 68.9327 70.494 68.0266V66.392H73.7728V68.0266C73.7728 68.9327 74.5061 69.666 75.4122 69.666C76.3184 69.666 77.0516 68.9327 77.0516 68.0266V66.392H80.3304V68.0266C80.3304 68.9327 81.0637 69.666 81.9698 69.666C82.876 69.666 83.6092 68.9327 83.6092 68.0266V66.392H86.888V68.0266C86.888 68.9327 87.6213 69.666 88.5274 69.666C89.4336 69.666 90.1668 68.9327 90.1668 68.0266V66.2263C91.2115 66.0134 92.1817 65.5955 93.0414 65.0256L94.3214 66.3055C94.6416 66.6257 95.061 66.7858 95.4805 66.7858C95.8999 66.7858 96.3194 66.6257 96.6396 66.3055C97.28 65.6651 97.28 64.6277 96.6396 63.9873L95.3588 62.7065C95.9296 61.8468 96.3458 60.8766 96.5587 59.8312H98.3606C99.2668 59.8312 100 59.0979 100 58.1918C100 57.2856 99.2668 56.5524 98.3606 56.5524ZM26.1293 49.998L28.0361 50.2525C28.2146 50.3038 28.3827 50.3758 28.554 50.4415C28.7061 50.4999 28.8638 50.5471 29.0095 50.616C29.1912 50.7016 29.3577 50.8089 29.529 50.9097C29.6635 50.989 29.8052 51.0578 29.9332 51.1459C30.0989 51.2604 30.247 51.3948 30.4007 51.5229C30.5168 51.6198 30.6417 51.707 30.7505 51.8111C30.8986 51.9528 31.0267 52.1129 31.1612 52.2682C31.2556 52.377 31.3605 52.4779 31.4478 52.5932C31.575 52.7605 31.6791 52.9438 31.7896 53.1223C31.8632 53.2416 31.9481 53.352 32.0145 53.4761C32.1162 53.6666 32.1914 53.87 32.2747 54.0709C32.3259 54.1957 32.3907 54.3134 32.4348 54.4423C32.5132 54.6704 32.562 54.9098 32.6149 55.1475C32.6389 55.2572 32.6781 55.3621 32.6965 55.4741C32.7566 55.8271 32.7878 56.189 32.7878 56.5556C32.7878 56.9222 32.7566 57.284 32.6965 57.6371C32.6781 57.7475 32.6397 57.8516 32.6149 57.9612C32.562 58.1998 32.5132 58.4399 32.4348 58.6689C32.3915 58.7954 32.3275 58.9122 32.2763 59.0355C32.193 59.2372 32.117 59.443 32.0145 59.6351C31.9481 59.7583 31.8632 59.8696 31.7896 59.9881C31.6791 60.1674 31.575 60.3507 31.4478 60.518C31.3605 60.6333 31.2556 60.7341 31.1612 60.843C31.0267 60.9983 30.8986 61.1584 30.7505 61.3001C30.6425 61.4033 30.5184 61.4898 30.4031 61.5859C30.2486 61.7147 30.0997 61.85 29.9324 61.9653C29.806 62.0525 29.6659 62.1206 29.5322 62.199C29.3601 62.3007 29.1928 62.4088 29.0095 62.4952C28.8638 62.5641 28.7061 62.6113 28.554 62.6697C28.3739 62.7386 28.1986 62.8146 28.0105 62.8682L26.1293 63.1132C22.5607 63.0588 19.6726 60.1386 19.6726 56.5556C19.6726 52.9726 22.5607 50.0524 26.1293 49.998ZM50.6035 59.8488L34.4064 62.0133C34.5064 61.8636 34.5817 61.6979 34.6737 61.5426C34.781 61.3617 34.8891 61.184 34.9843 60.9967C35.1236 60.7237 35.2397 60.4404 35.3533 60.1538C35.4262 59.9689 35.507 59.788 35.5695 59.5982C35.6751 59.2757 35.7504 58.9426 35.8224 58.6072C35.8585 58.4407 35.9089 58.2798 35.9361 58.1101C36.0178 57.601 36.0666 57.0831 36.0666 56.5556C36.0666 56.0281 36.0178 55.5094 35.9361 55.0002C35.9089 54.8313 35.8585 54.6704 35.8224 54.5031C35.7504 54.1685 35.6759 53.8355 35.5695 53.5129C35.507 53.3224 35.4262 53.1423 35.3525 52.9566C35.2389 52.6708 35.1236 52.3874 34.9843 52.1145C34.8891 51.9264 34.781 51.7487 34.6737 51.5677C34.5825 51.4141 34.508 51.2508 34.4088 51.1019L50.6035 53.2624C50.6755 53.272 50.7492 53.2768 50.8212 53.2768C52.6287 53.2768 54.1 54.7481 54.1 56.5556C54.1 58.3631 52.6287 59.8344 50.8212 59.8344C50.7492 59.8344 50.6755 59.8392 50.6035 59.8488ZM4.91796 40.1264C4.91796 39.6237 5.1549 39.1402 5.55195 38.8312L18.1484 29.0316C18.4366 28.8091 18.7952 28.6858 19.1587 28.6858H36.0666C36.9711 28.6858 37.706 29.4206 37.706 30.3252V40.1616H34.4272V33.604C34.4272 32.6978 33.6939 31.9646 32.7878 31.9646H21.312C20.971 31.9646 20.6364 32.0718 20.3594 32.2704L8.88358 40.4674C8.45292 40.7748 8.19676 41.2711 8.19676 41.801V52.1385L4.91796 54.9098V40.1264ZM11.4756 42.6447L21.8371 35.2434H31.1484V40.1616H22.9514C22.5639 40.1616 22.1877 40.2993 21.8931 40.549L11.4756 49.364V42.6447ZM54.1 65.3113L43.9274 69.6708H7.63802L3.62277 60.3003L7.7741 56.7885L10.8944 54.1509C10.8968 54.1485 10.8968 54.1461 10.8992 54.1437L23.5517 43.4404H43.9274L54.1 47.7998V50.8785C53.9167 50.7721 53.7246 50.6824 53.5309 50.5944C53.4924 50.5767 53.4572 50.5543 53.4188 50.5375C53.0786 50.3902 52.7216 50.279 52.3549 50.1909C52.2709 50.1701 52.186 50.1533 52.1004 50.1365C51.7217 50.0604 51.3367 50.006 50.9381 49.9996L28.5948 47.0122C28.5932 47.0122 28.5916 47.0122 28.59 47.0122C27.8143 46.8249 27.0227 46.7192 26.2302 46.7192C20.8061 46.7192 16.3938 51.1315 16.3938 56.5556C16.3938 61.9797 20.8061 66.392 26.2302 66.392C27.0211 66.392 27.8119 66.2863 28.586 66.0998C28.5884 66.099 28.5916 66.099 28.5948 66.099L50.9381 63.1116C51.3367 63.1044 51.7217 63.05 52.1004 62.9747C52.186 62.9579 52.2709 62.9403 52.3549 62.9203C52.7216 62.8314 53.0786 62.7201 53.4188 62.5729C53.4572 62.556 53.4924 62.5344 53.5309 62.5168C53.7246 62.4288 53.9167 62.3383 54.1 62.2327V65.3113ZM57.3788 53.2768H88.5274C91.2347 53.2768 93.4368 55.4757 93.444 58.1822C93.444 58.1854 93.4424 58.1886 93.4424 58.1918C93.4424 58.1958 93.4448 58.199 93.4448 58.203C93.4424 59.5534 92.8933 60.7774 92.0072 61.6659C92.0064 61.6675 92.004 61.6675 92.0032 61.6691C92.0016 61.6707 92.0008 61.6723 91.9992 61.6739C91.113 62.5593 89.8907 63.1068 88.5434 63.1116C88.5378 63.1116 88.533 63.1084 88.5274 63.1084C88.5186 63.1084 88.5114 63.1132 88.5034 63.1132H81.993C81.985 63.1132 81.9778 63.1084 81.9698 63.1084C81.961 63.1084 81.9538 63.1132 81.9458 63.1132H75.4354C75.4274 63.1132 75.4202 63.1084 75.4122 63.1084C75.4034 63.1084 75.3962 63.1132 75.3882 63.1132H68.8778C68.8698 63.1132 68.8626 63.1084 68.8546 63.1084C68.8458 63.1084 68.8386 63.1132 68.8306 63.1132H62.3202C62.3122 63.1132 62.305 63.1084 62.297 63.1084C62.2882 63.1084 62.281 63.1132 62.273 63.1132H57.3788V53.2768Z" fill="white" fill-opacity="0.5"/>
<path d="M60.4885 37.3587C61.9518 38.822 68.4374 45.069 72.4366 45.069C73.1619 45.069 73.8015 44.8553 74.3186 44.3782C74.3482 44.3526 74.3858 44.343 74.4138 44.315C74.4234 44.3038 74.4346 44.2925 74.4442 44.2813L84.7786 33.6044H87.7396C89.84 36.4037 93.078 38.2152 96.5986 38.4858C96.6402 38.489 96.6818 38.4906 96.7234 38.4906C97.1349 38.4906 97.5335 38.3353 97.8377 38.0535C98.1723 37.743 98.3629 37.3075 98.3629 36.8512V2.45581C98.3629 1.54965 97.6296 0.816406 96.7234 0.816406H57.5091C57.0336 0.816406 56.5821 1.02293 56.2716 1.37995C55.9594 1.73857 55.8201 2.21566 55.8857 2.68475C56.3228 5.78104 57.8661 8.62918 60.2324 10.7056C61.1818 11.5382 62.264 12.2082 63.4135 12.7325L53.4843 23.4926C53.4354 23.5447 53.417 23.6103 53.377 23.6672C50.5929 27.1237 58.7811 35.6521 60.4885 37.3587ZM56.1723 26.0862C56.3604 26.1487 56.5797 26.2383 56.8247 26.3504C56.9672 26.4168 57.1385 26.5089 57.2994 26.5929C57.4307 26.6602 57.5547 26.7218 57.6972 26.8011C57.8725 26.8987 58.0678 27.0188 58.26 27.1349C58.4169 27.2293 58.573 27.3246 58.7403 27.4319C58.9428 27.5615 59.1581 27.708 59.3758 27.8569C59.56 27.9826 59.7489 28.1155 59.9434 28.2556C60.1691 28.4181 60.3997 28.5886 60.6374 28.7695C60.8511 28.932 61.0737 29.1089 61.297 29.2866C61.5388 29.4795 61.7805 29.6732 62.0319 29.8838C62.28 30.0919 62.5386 30.3216 62.7963 30.5474C63.0445 30.7651 63.2886 30.9748 63.5456 31.2102C63.8738 31.5119 64.2164 31.8457 64.5574 32.1764C64.7471 32.3613 64.9304 32.5286 65.125 32.7223C65.2811 32.8784 65.4147 33.0257 65.5652 33.1802C65.9383 33.5636 66.3105 33.9454 66.6475 34.3137C66.846 34.5298 67.0205 34.7347 67.2062 34.9452C67.4768 35.2518 67.7474 35.5576 67.9923 35.8506C68.1636 36.0555 68.3197 36.2516 68.479 36.4502C68.7063 36.7335 68.9281 37.0137 69.1306 37.2819C69.2667 37.4612 69.3964 37.6365 69.5212 37.8094C69.7166 38.0784 69.8999 38.3393 70.0696 38.5899C70.1696 38.7372 70.2705 38.886 70.3618 39.0269C70.5323 39.2903 70.6836 39.5368 70.8236 39.7746C70.8853 39.8787 70.9541 39.9899 71.0102 40.0892C71.1694 40.3726 71.3047 40.6327 71.4192 40.8721C71.4368 40.9073 71.4616 40.9513 71.4776 40.9857C71.5993 41.2467 71.689 41.4732 71.7562 41.6726C70.2521 41.1658 66.9028 39.135 62.8067 35.0405C58.7082 30.9404 56.6766 27.5879 56.1723 26.0862ZM84.0837 30.3256C83.6403 30.3256 83.2144 30.5065 82.9054 30.8251L74.4346 39.5777C74.2017 39.075 73.9672 38.6395 73.7686 38.3001C73.3804 37.6205 72.9337 36.9425 72.459 36.2741C72.3926 36.1796 72.3222 36.0843 72.2533 35.9891C71.8947 35.496 71.5313 35.0181 71.1598 34.5546C71.0486 34.4145 70.9429 34.2776 70.8276 34.1367C70.3634 33.5724 69.9159 33.0545 69.4884 32.5758C69.3523 32.4229 69.2163 32.2724 69.0762 32.1195C68.3725 31.3486 67.773 30.7307 67.4384 30.3961C67.1014 30.0591 66.4786 29.4555 65.7013 28.7463C65.5604 28.6174 65.4211 28.4917 65.2803 28.366C64.7807 27.9194 64.2412 27.4519 63.6481 26.966C63.5552 26.8899 63.4647 26.8219 63.3719 26.7482C62.87 26.3432 62.3473 25.9461 61.8085 25.5563C61.7309 25.5003 61.654 25.4442 61.5764 25.3898C61.0481 25.0144 60.5149 24.6622 59.9762 24.3372C59.9482 24.3196 59.9162 24.2955 59.8882 24.2787C59.8649 24.2643 59.8273 24.2427 59.8017 24.2283C59.6696 24.1499 59.5391 24.0698 59.4079 23.9962C59.0492 23.7912 58.5946 23.5527 58.0943 23.3318L67.2559 13.4033C67.5344 13.1007 67.6897 12.7037 67.6897 12.2922V9.01341H70.9685V18.8498C70.9685 19.756 71.7018 20.4892 72.6079 20.4892H74.2473C74.6828 20.4892 75.099 20.3163 75.4064 20.0089L82.4443 12.971L84.8042 15.3309L77.968 22.6489C77.6846 22.9531 77.5261 23.3518 77.5261 23.768V25.4074C77.5261 26.3136 78.2594 27.0468 79.1655 27.0468H89.0019V30.3256H84.0837ZM59.5888 4.09521H95.084V34.8996C93.8689 34.5538 92.7402 33.955 91.7748 33.1497C91.7788 33.1457 91.7804 33.1393 91.7844 33.1353C91.8853 33.0369 91.9533 32.912 92.0262 32.7903C92.063 32.7279 92.1174 32.6783 92.1463 32.611C92.2319 32.4125 92.2807 32.1948 92.2807 31.965V25.4074C92.2807 24.5013 91.5475 23.768 90.6413 23.768H81.4085L88.2815 16.4115C88.8851 15.7663 88.8675 14.7577 88.2431 14.1333L83.6034 9.4937C82.963 8.85331 81.9256 8.85331 81.2852 9.4937L74.2473 16.5316V7.37401C74.2473 6.46786 73.5141 5.73461 72.6079 5.73461H66.0503C65.1442 5.73461 64.4109 6.46786 64.4109 7.37401V9.60097C63.6857 9.23435 63.0053 8.77647 62.3953 8.24014C61.1081 7.11145 60.1459 5.68018 59.5888 4.09521Z" fill="white" fill-opacity="0.5"/>
<path d="M63.934 89.5094V82.7869C63.934 78.1056 51.6433 77.8687 49.1794 77.8687C46.7155 77.8687 34.4248 78.1056 34.4248 82.7869V89.5094C32.8718 89.8264 31.4326 90.5916 30.2574 91.7507C28.7157 93.3149 27.8672 95.3721 27.8672 97.5415C27.8672 98.4476 28.6004 99.1809 29.5066 99.1809H68.8522C69.7584 99.1809 70.4916 98.4476 70.4916 97.5415C70.4916 95.3721 69.6431 93.3149 68.0853 91.7347C66.9214 90.5884 65.487 89.8248 63.934 89.5094ZM60.1989 82.7853C60.0132 82.8781 59.7867 82.975 59.5185 83.0726C59.4497 83.0982 59.3592 83.1231 59.2848 83.1487C59.063 83.2247 58.8269 83.3008 58.5579 83.376C58.4331 83.4104 58.2882 83.4449 58.1537 83.4793C57.8991 83.5441 57.6334 83.6082 57.3444 83.6698C57.1755 83.7066 56.9946 83.7402 56.8145 83.7755C56.5183 83.8323 56.2061 83.8867 55.8779 83.9388C55.673 83.9716 55.4624 84.0028 55.2447 84.0332C54.8965 84.0812 54.5259 84.1245 54.1464 84.1653C53.9159 84.1901 53.6894 84.2165 53.4476 84.2381C53.0193 84.2766 52.5615 84.3062 52.0988 84.3334C51.8722 84.347 51.6569 84.3638 51.4224 84.3742C50.7099 84.4062 49.9663 84.4263 49.1794 84.4263C48.3925 84.4263 47.6489 84.4062 46.9356 84.3742C46.7011 84.3638 46.4866 84.347 46.26 84.3334C45.7973 84.3062 45.3395 84.2766 44.9112 84.2381C44.6686 84.2165 44.4421 84.1901 44.2116 84.1653C43.8329 84.1245 43.4615 84.0812 43.1133 84.0332C42.8964 84.0028 42.6858 83.9716 42.4809 83.9388C42.1527 83.8867 41.8405 83.8323 41.5443 83.7755C41.3634 83.741 41.1825 83.7058 41.0144 83.6698C40.7246 83.6082 40.4589 83.5441 40.2043 83.4785C40.0698 83.4449 39.9258 83.4112 39.8009 83.376C39.5311 83.3008 39.295 83.2247 39.0724 83.1487C38.9988 83.1231 38.9083 83.0982 38.8395 83.0726C38.5713 82.975 38.3456 82.8781 38.1591 82.7853C39.5807 82.08 43.3871 81.1475 49.1794 81.1475C54.9717 81.1475 58.7773 82.08 60.1989 82.7853ZM31.4262 95.9021C31.6663 95.2216 32.0569 94.5957 32.5757 94.0689C33.5218 93.1372 34.761 92.6233 36.0642 92.6233C36.9703 92.6233 37.7036 91.89 37.7036 90.9839V86.1425C37.9341 86.2306 38.1735 86.313 38.4184 86.3907C38.4368 86.3971 38.4545 86.4027 38.4729 86.4083C38.8011 86.5115 39.1437 86.6052 39.4919 86.6924C39.5911 86.7181 39.6912 86.7421 39.7921 86.7661C40.1339 86.8477 40.4797 86.9238 40.8311 86.991C40.8655 86.9974 40.8991 87.0046 40.9336 87.011C41.2898 87.0775 41.6484 87.1367 42.0078 87.1919C42.1135 87.208 42.2184 87.224 42.324 87.2384C42.6762 87.2896 43.0276 87.336 43.3751 87.3761C43.4135 87.3809 43.4519 87.3849 43.4895 87.3897C43.8409 87.4289 44.1852 87.4625 44.5246 87.4929C44.6254 87.5017 44.7239 87.5105 44.8231 87.5185C45.1577 87.5466 45.4859 87.5722 45.7997 87.5922C45.8246 87.5938 45.8494 87.5954 45.8742 87.597C46.1944 87.617 46.497 87.6322 46.7891 87.6458C46.8724 87.6498 46.9516 87.6538 47.0325 87.657C47.3159 87.6682 47.5888 87.6786 47.8354 87.6858H47.8402C48.0987 87.693 48.3253 87.6963 48.535 87.6995C48.5886 87.7003 48.6359 87.7011 48.6863 87.7019C48.8736 87.7035 49.0457 87.7051 49.1794 87.7051C49.3131 87.7051 49.4844 87.7035 49.6725 87.7019C49.7221 87.7011 49.7694 87.7003 49.823 87.6995C50.0327 87.6963 50.2593 87.693 50.5186 87.6858H50.5226C50.7692 87.6786 51.0421 87.6682 51.3263 87.657C51.4064 87.6538 51.4856 87.6498 51.5689 87.6458C51.861 87.6322 52.1636 87.617 52.4838 87.597C52.5094 87.5954 52.5334 87.5938 52.5591 87.5922C52.8729 87.5722 53.2011 87.5466 53.5349 87.5185C53.6349 87.5105 53.7326 87.5017 53.8342 87.4929C54.1729 87.4625 54.5171 87.4289 54.8685 87.3897C54.9069 87.3849 54.9445 87.3809 54.9829 87.3761C55.3304 87.336 55.6818 87.2896 56.034 87.2384C56.1397 87.224 56.2445 87.208 56.351 87.1919C56.7096 87.1367 57.069 87.0775 57.4252 87.011C57.4589 87.0046 57.4933 86.9974 57.5269 86.991C57.8791 86.9238 58.2249 86.8477 58.5659 86.7661C58.6676 86.7421 58.7669 86.7181 58.8669 86.6924C59.2143 86.6052 59.5569 86.5115 59.8859 86.4083C59.9035 86.4027 59.922 86.3971 59.9396 86.3907C60.1853 86.313 60.4247 86.2306 60.6552 86.1425V90.9839C60.6552 91.89 61.3885 92.6233 62.2946 92.6233C63.5978 92.6233 64.837 93.1372 65.7671 94.0529C66.2955 94.5893 66.6893 95.22 66.931 95.9021H31.4262Z" fill="white" fill-opacity="0.5"/>
</g>
<defs>
<clipPath id="clip0_256_2751">
<rect width="100" height="100" fill="white"/>
</clipPath>
</defs>
</svg>
