<svg width="50" height="50" viewBox="0 0 50 50" fill="none" xmlns="http://www.w3.org/2000/svg">
<path d="M46.4201 5.69768H42.0555C41.9742 2.55814 39.4002 4.84449e-06 36.2457 4.84449e-06H8.2224C5.03154 -0.00408309 2.44161 2.57949 2.43752 5.7699V44.2078C2.42934 47.3983 5.00929 49.9918 8.19969 50H36.2457C39.4002 50 41.9742 47.4419 42.056 44.4186H46.4201C47.0623 44.4186 47.5538 43.8399 47.5538 43.1977V36.3372C47.5624 35.7354 47.0814 35.2403 46.4796 35.2316C46.4596 35.2316 46.4401 35.2316 46.4201 35.2326H42.0887V34.6512H46.4201C47.0623 34.6512 47.5538 34.0725 47.5538 33.4302V26.5698C47.5624 25.9679 47.0814 25.4728 46.4796 25.4642C46.4596 25.4642 46.4401 25.4642 46.4201 25.4651H42.0887V24.7674H46.4201C47.0623 24.7674 47.5538 24.1888 47.5538 23.5465V16.6861C47.5624 16.0842 47.0814 15.5891 46.4796 15.5805C46.4596 15.5805 46.4401 15.5805 46.4201 15.5814H42.0887V15H46.4201C47.0623 15 47.5538 14.4213 47.5538 13.7791V6.80233C47.5624 6.20049 47.0814 5.7054 46.4796 5.69677C46.4596 5.69677 46.4401 5.69677 46.4201 5.69768V5.69768ZM8.2224 2.32559H36.2457C38.1688 2.32559 39.7631 3.86901 39.7631 5.79216V39.5349H4.7631V5.79216C4.75356 3.88763 6.28972 2.33558 8.1947 2.32559H8.2224ZM36.2457 47.6744H8.2224C6.31742 47.6799 4.76855 46.1401 4.7631 44.2356V41.8605H39.7631V44.2078C39.7631 46.131 38.1688 47.6744 36.2457 47.6744ZM45.2282 37.5581V42.093H42.0887V37.5581H45.2282ZM45.2282 27.7907V32.3256H42.0887V27.7907H45.2282ZM45.2282 17.907V22.4419H42.0887V17.907H45.2282ZM45.2282 12.6744H42.0887V8.02326H45.2282V12.6744Z" fill="white" fill-opacity="0.3"/>
<path d="M13.5382 34.4186H32.1065C32.7301 34.4304 33.2456 33.9344 33.2575 33.3108C33.2575 33.3017 33.2575 33.2926 33.2575 33.2835V31.5893C33.2797 26.5598 29.2204 22.4642 24.1909 22.4419H21.4701C16.4224 22.4501 12.3336 26.5416 12.3281 31.5893V33.2835C12.3281 33.9258 12.8959 34.4186 13.5382 34.4186ZM14.6537 31.5893C14.6592 27.8257 17.7069 24.7757 21.4701 24.7675H24.1745C27.92 24.7806 30.946 27.8271 30.9328 31.573V32.0931H14.6537V31.5893Z" fill="white" fill-opacity="0.3"/>
<path d="M22.8344 21.5747C26.424 21.5747 29.3338 18.665 29.3338 15.0758C29.3338 11.4866 26.424 8.5769 22.8348 8.5769C19.2456 8.5769 16.3359 11.4866 16.3359 15.0758C16.3396 18.6632 19.247 21.5706 22.8344 21.5747ZM22.8344 10.9025C25.1395 10.9025 27.0082 12.7707 27.0082 15.0758C27.0082 17.3805 25.1395 19.2491 22.8348 19.2491C20.5302 19.2491 18.6615 17.381 18.6615 15.0758C18.6638 12.772 20.5306 10.9052 22.8344 10.9025Z" fill="white" fill-opacity="0.3"/>
</svg>
