<svg width="81" height="81" viewBox="0 0 81 81" fill="none" xmlns="http://www.w3.org/2000/svg">
<path d="M57.8218 75.2404L38.7287 36.9987L42.0837 35.3234L61.1755 73.5651C61.2855 73.7855 61.351 74.0253 61.3682 74.2709C61.3855 74.5166 61.3543 74.7632 61.2762 74.9968C61.1982 75.2303 61.0749 75.4462 60.9134 75.6321C60.7519 75.818 60.5554 75.9703 60.335 76.0802C59.8903 76.3018 59.3759 76.3378 58.9046 76.1803C58.4334 76.0229 58.044 75.6848 57.8218 75.2404Z" fill="#F2F2F2"/>
<path d="M23.6929 75.4481L42.321 36.9787L38.9511 35.344L20.3223 73.8134C20.215 74.035 20.1524 74.2756 20.1381 74.5215C20.1238 74.7673 20.158 75.0135 20.2389 75.2461C20.3198 75.4787 20.4456 75.6931 20.6094 75.8771C20.7731 76.061 20.9714 76.2109 21.1931 76.3182C21.6401 76.5334 22.1542 76.5626 22.6227 76.3995C23.0913 76.2364 23.4761 75.8943 23.6929 75.4481Z" fill="#F2F2F2"/>
<path d="M34.3359 28.8145L5.99305 35.8483L4.55314 30.0461L32.896 23.0123L34.3359 28.8145Z" fill="white"/>
<path d="M31.6094 19.6738L34.7566 32.3555L15.4848 37.1381L12.3376 24.4565L31.6094 19.6738Z" fill="white"/>
<path d="M67.1129 26.8908C72.2436 26.8598 76.3776 22.6755 76.3467 17.5449C76.3157 12.4142 72.1314 8.28014 67.0008 8.31111C61.8701 8.34208 57.736 12.5264 57.767 17.657C57.798 22.7876 61.9823 26.9217 67.1129 26.8908Z" fill="white" fill-opacity="0.6"/>
<path d="M63.8594 8.82227L68.3346 26.8553L24.5652 37.7175L20.09 19.6844L63.8594 8.82227Z" fill="white"/>
<path d="M40.416 19.6103C40.1484 19.6119 39.8894 19.5153 39.6882 19.3387C39.487 19.1622 39.3575 18.9181 39.3243 18.6525C39.291 18.3869 39.3563 18.1183 39.5078 17.8976C39.6592 17.677 39.8863 17.5195 40.1461 17.455L48.5343 15.3693C48.6751 15.3301 48.8224 15.3195 48.9674 15.3381C49.1124 15.3568 49.2521 15.4043 49.3785 15.4779C49.5048 15.5514 49.615 15.6496 49.7028 15.7665C49.7905 15.8835 49.8539 16.0168 49.8892 16.1586C49.9246 16.3005 49.9311 16.448 49.9085 16.5924C49.8858 16.7368 49.8344 16.8752 49.7574 16.9994C49.6804 17.1237 49.5792 17.2312 49.4599 17.3156C49.3406 17.4001 49.2055 17.4598 49.0628 17.4912L40.6733 19.5787C40.5891 19.5992 40.5027 19.6098 40.416 19.6103Z" fill="white"/>
<path d="M53.1183 16.4524C52.8507 16.454 52.5917 16.3574 52.3905 16.1808C52.1893 16.0043 52.0598 15.7602 52.0266 15.4946C51.9933 15.229 52.0586 14.9604 52.2101 14.7397C52.3615 14.5191 52.5886 14.3616 52.8484 14.2971L55.3416 13.6771C55.4826 13.6375 55.63 13.6266 55.7752 13.645C55.9205 13.6635 56.0605 13.7109 56.1871 13.7845C56.3136 13.8581 56.4241 13.9563 56.512 14.0734C56.5999 14.1904 56.6634 14.324 56.6988 14.466C56.7341 14.6081 56.7406 14.7558 56.7178 14.9004C56.695 15.045 56.6434 15.1836 56.566 15.3079C56.4887 15.4322 56.3872 15.5397 56.2675 15.624C56.1479 15.7084 56.0125 15.7678 55.8694 15.7989L53.3763 16.419C53.2919 16.4404 53.2053 16.4516 53.1183 16.4524Z" fill="white"/>
<path d="M66.9844 4.35547L73.1815 29.3269L67.0657 30.8446L60.8686 5.87321L66.9844 4.35547Z" fill="white"/>
<path d="M40.7651 76.3919C40.2678 76.3949 39.7897 76.2003 39.436 75.8508C39.0822 75.5013 38.8818 75.0256 38.8788 74.5283L38.6484 36.3652L42.3984 36.3426L42.6287 74.5057C42.6318 75.0029 42.4371 75.481 42.0876 75.8348C41.7381 76.1885 41.2624 76.3889 40.7651 76.3919Z" fill="white" fill-opacity="0.4"/>
<path d="M40.5374 38.8151C42.6084 38.8026 44.2772 37.1136 44.2647 35.0425C44.2522 32.9715 42.5631 31.3028 40.4921 31.3153C38.4211 31.3278 36.7523 33.0168 36.7648 35.0878C36.7773 37.1589 38.4664 38.8276 40.5374 38.8151Z" fill="white"/>
</svg>
