<svg width="100" height="100" viewBox="0 0 100 100" fill="none" xmlns="http://www.w3.org/2000/svg">
<g clip-path="url(#clip0_256_2397)">
<path d="M90 13.3339H10C4.47949 13.3393 0.00546875 17.8132 0 23.3339V70.0005C0.00546875 75.521 4.47949 79.995 10 80.0005H11.6666V81.6671C11.6666 84.4284 13.9053 86.6671 16.6666 86.6671H21.6666C24.4279 86.6671 26.6666 84.4284 26.6666 81.6671V80.0005H73.3332V81.6671C73.3332 84.4284 75.5719 86.6671 78.3332 86.6671H83.3332C86.0945 86.6671 88.3332 84.4284 88.3332 81.6671V80.0005H89.9998C95.5203 79.995 99.9943 75.521 99.9998 70.0005V23.3339C99.9945 17.8132 95.5205 13.3393 90 13.3339ZM23.3334 81.6671C23.3334 82.5876 22.5871 83.3337 21.6668 83.3337H16.6668C15.7463 83.3337 15.0002 82.5876 15.0002 81.6671V80.0005H23.3336V81.6671H23.3334ZM85 81.6671C85 82.5876 84.2539 83.3337 83.3334 83.3337H78.3334C77.4129 83.3337 76.6668 82.5876 76.6668 81.6671V80.0005H85V81.6671ZM96.6666 70.0005C96.6666 73.6823 93.6818 76.6671 90 76.6671H10C6.31816 76.6671 3.3334 73.6823 3.3334 70.0005V23.3339C3.3334 19.652 6.31816 16.6673 10 16.6673H90C93.6818 16.6673 96.6666 19.652 96.6666 23.3339V70.0005Z" fill="white" fill-opacity="0.5"/>
<path d="M33.3307 20.0006C18.6031 20.0006 6.66406 31.9397 6.66406 46.6672C6.66406 61.3947 18.6031 73.3338 33.3307 73.3338C48.0582 73.3338 59.9973 61.3949 59.9973 46.6672C59.9799 31.9469 48.051 20.018 33.3307 20.0006ZM33.3307 70.0006C20.4439 70.0006 9.99727 59.5539 9.99727 46.6672C9.99727 33.7805 20.4439 23.3338 33.3307 23.3338C46.2174 23.3338 56.6641 33.7805 56.6641 46.6672C56.6502 59.5483 46.2115 69.9867 33.3307 70.0006Z" fill="white" fill-opacity="0.5"/>
<path d="M43.3204 40.6372C42.6763 41.2941 41.9228 41.8337 41.0937 42.2322C40.8771 42.3388 40.6544 42.433 40.4271 42.5138C41.8749 40.5687 42.7714 38.2691 43.022 35.8572C43.2872 33.6552 42.5388 31.4519 40.9871 29.8671C39.9472 28.8169 38.6978 27.9976 37.3205 27.4621C34.8201 26.3394 31.9474 26.4005 29.4972 27.6287C27.9417 28.3126 26.7306 29.5986 26.1406 31.1919C25.3601 33.0798 25.8142 35.2531 27.2855 36.6703C27.9408 37.3154 28.4806 38.0679 28.8822 38.8953C28.9869 39.1087 29.0792 39.3279 29.1589 39.5519C27.2132 38.1085 24.914 37.2171 22.5038 36.9718C20.3101 36.7158 18.1175 37.4607 16.5339 39.0001C15.4853 40.0406 14.6669 41.2898 14.1322 42.6667C13.0044 45.1695 13.0658 48.0474 14.2988 50.5001C14.9884 52.0433 16.2695 53.2445 17.8538 53.8335C18.4947 54.0691 19.171 54.1937 19.8538 54.2019C21.1749 54.1941 22.437 53.6531 23.3538 52.7019C23.9984 52.0449 24.7525 51.5052 25.5822 51.107C25.7913 51.0023 26.0068 50.9103 26.2271 50.832C24.7865 52.7773 23.8953 55.0742 23.647 57.482C23.382 59.681 24.1249 61.882 25.6687 63.4703C26.7089 64.5201 27.9581 65.3394 29.3353 65.8753C30.5353 66.3884 31.8253 66.6576 33.1302 66.6669C34.5331 66.6628 35.9158 66.332 37.1685 65.7003C38.7175 65.0124 39.9232 63.7281 40.5119 62.1386C41.2884 60.2525 40.8345 58.0835 39.3669 56.6669C38.7121 56.0191 38.1732 55.2636 37.7736 54.4335C37.6691 54.2234 37.5767 54.0076 37.4968 53.7869C39.4425 55.2279 41.74 56.1189 44.1486 56.3669C44.431 56.3966 44.7146 56.4117 44.9986 56.4119C46.9177 56.4201 48.7632 55.6736 50.1369 54.3335C51.1867 53.2931 52.0066 52.0439 52.5435 50.6669C53.666 48.1621 53.6003 45.2849 52.3652 42.8335C51.6765 41.2908 50.3968 40.0898 48.8134 39.5001C46.9236 38.7091 44.7414 39.1607 43.3204 40.6372ZM29.1687 46.6671C29.1687 44.366 31.0341 42.5005 33.3353 42.5005C34.824 42.5027 36.1984 43.2988 36.9408 44.589C37.6833 45.8792 37.681 47.4675 36.9349 48.7556C36.1888 50.0437 34.8122 50.8359 33.3236 50.8339C31.0271 50.8275 29.1687 48.9638 29.1687 46.6671ZM29.297 32.3123C29.6056 31.5496 30.2107 30.9451 30.9738 30.6372C32.5646 29.8355 34.4343 29.8029 36.0521 30.549C37.0021 30.9089 37.8654 31.4656 38.5855 32.1824C39.4603 33.057 39.8769 34.2898 39.7122 35.5158C39.5265 37.3636 38.8345 39.1244 37.7122 40.604C36.446 39.6783 34.9191 39.1771 33.3505 39.1724C33.081 39.1853 32.8122 39.2124 32.5454 39.254C32.407 38.6288 32.1919 38.0232 31.9054 37.4507C31.3386 36.2878 30.5802 35.2287 29.6621 34.3173C29.0943 33.8087 28.9439 32.9796 29.297 32.304V32.3123ZM24.1138 48.1222C22.9513 48.6841 21.8937 49.4412 20.987 50.3605C20.473 50.9246 19.6415 51.0673 18.9687 50.7072C18.2074 50.4007 17.6023 49.7996 17.2904 49.0406C16.4869 47.448 16.4562 45.5753 17.207 43.9572C17.5661 43.0066 18.1214 42.1421 18.837 41.4205C19.7136 40.5492 20.9454 40.1345 22.1704 40.2988C24.0197 40.4896 25.7816 41.1812 27.2671 42.2988C26.3425 43.5638 25.8415 45.0886 25.8355 46.6554C25.8482 46.9279 25.8755 47.1994 25.9171 47.4687C25.2913 47.607 24.6853 47.8236 24.1138 48.1136V48.1222ZM37.3654 61.0439C37.0576 61.8017 36.4564 62.4027 35.6988 62.7105C34.1091 63.514 32.2394 63.5472 30.622 62.8005C29.6712 62.4416 28.807 61.8863 28.0853 61.1705C27.2117 60.2917 26.7966 59.0568 26.9621 57.8289C27.1482 55.98 27.8402 54.2183 28.9621 52.7372C30.2259 53.663 31.7503 54.1648 33.3171 54.1707H33.3355C33.605 54.1597 33.8738 54.1335 34.1406 54.0923C34.2798 54.7175 34.497 55.3228 34.7872 55.8941C35.3505 57.0564 36.106 58.1152 37.0222 59.0257C37.5767 59.5417 37.7173 60.365 37.3656 61.0357V61.0439H37.3654ZM49.4654 49.3939C49.1078 50.3435 48.5535 51.2068 47.8386 51.9273C46.9585 52.8011 45.723 53.2173 44.4937 53.054C42.646 52.8617 40.8853 52.1703 39.4003 51.054C40.5624 49.6011 41.0542 47.7236 40.7537 45.8874C41.3802 45.7494 41.9867 45.5328 42.5587 45.2425C43.7234 44.6794 44.7826 43.9206 45.6904 42.9992C46.2042 42.4396 47.0316 42.2984 47.7021 42.6558C48.458 42.9664 49.0581 43.5665 49.3687 44.3224C50.1683 45.908 50.2038 47.7708 49.4654 49.3857V49.3939Z" fill="white" fill-opacity="0.5"/>
<path d="M90.0051 21.6671H83.3385C82.418 21.6671 81.6719 22.4134 81.6719 23.3337C81.6719 24.254 82.418 25.0003 83.3385 25.0003H90.0051C90.9256 25.0003 91.6717 24.2542 91.6717 23.3337C91.6717 22.4132 90.9256 21.6671 90.0051 21.6671Z" fill="white" fill-opacity="0.5"/>
<path d="M83.3385 31.6673C84.2589 31.6673 85.0051 30.9211 85.0051 30.0007C85.0051 29.0803 84.2589 28.3341 83.3385 28.3341C82.418 28.3341 81.6719 29.0803 81.6719 30.0007C81.6719 30.9211 82.418 31.6673 83.3385 31.6673Z" fill="white" fill-opacity="0.5"/>
<path d="M90.0025 31.6673C90.923 31.6673 91.6691 30.9211 91.6691 30.0007C91.6691 29.0803 90.923 28.3341 90.0025 28.3341C89.0821 28.3341 88.3359 29.0803 88.3359 30.0007C88.3359 30.9211 89.0821 31.6673 90.0025 31.6673Z" fill="white" fill-opacity="0.5"/>
<path d="M89.9973 35.0009H68.3307C67.4102 35.0009 66.6641 35.7471 66.6641 36.6675C66.6641 37.588 67.4103 38.3341 68.3307 38.3341H89.9973C90.9178 38.3341 91.6639 37.5878 91.6639 36.6675C91.6639 35.7471 90.9178 35.0009 89.9973 35.0009Z" fill="white" fill-opacity="0.5"/>
<path d="M89.9973 41.6666H68.3307C67.4102 41.6666 66.6641 42.4129 66.6641 43.3332C66.6641 44.2537 67.4103 44.9998 68.3307 44.9998H89.9973C90.9178 44.9998 91.6639 44.2535 91.6639 43.3332C91.6639 42.4129 90.9178 41.6666 89.9973 41.6666Z" fill="white" fill-opacity="0.5"/>
<path d="M89.9973 48.3336H68.3307C67.4102 48.3336 66.6641 49.0799 66.6641 50.0002C66.6641 50.9207 67.4103 51.6668 68.3307 51.6668H89.9973C90.9178 51.6668 91.6639 50.9205 91.6639 50.0002C91.6639 49.0797 90.9178 48.3336 89.9973 48.3336Z" fill="white" fill-opacity="0.5"/>
<path d="M89.9973 55.0004H68.3307C67.4102 55.0004 66.6641 55.7467 66.6641 56.667C66.6641 57.5875 67.4103 58.3336 68.3307 58.3336H89.9973C90.9178 58.3336 91.6639 57.5873 91.6639 56.667C91.6639 55.7467 90.9178 55.0004 89.9973 55.0004Z" fill="white" fill-opacity="0.5"/>
<path d="M89.9973 61.6674H68.3307C67.4102 61.6674 66.6641 62.4136 66.6641 63.334C66.6641 64.2543 67.4103 65.0006 68.3307 65.0006H89.9973C90.9178 65.0006 91.6639 64.2545 91.6639 63.334C91.6639 62.4135 90.9178 61.6674 89.9973 61.6674Z" fill="white" fill-opacity="0.5"/>
<path d="M89.9973 68.3341H68.3307C67.4102 68.3341 66.6641 69.0802 66.6641 70.0007C66.6641 70.9212 67.4103 71.6673 68.3307 71.6673H89.9973C90.9178 71.6673 91.6639 70.9212 91.6639 70.0007C91.6639 69.0802 90.9178 68.3341 89.9973 68.3341Z" fill="white" fill-opacity="0.5"/>
</g>
<defs>
<clipPath id="clip0_256_2397">
<rect width="100" height="100" fill="white"/>
</clipPath>
</defs>
</svg>
