<svg width="80" height="80" viewBox="0 0 80 80" fill="none" xmlns="http://www.w3.org/2000/svg">
<mask id="mask0_3942_10784" style="mask-type:alpha" maskUnits="userSpaceOnUse" x="0" y="0" width="80" height="80">
<circle cx="40" cy="40" r="40" fill="#2A2A2B"/>
<circle cx="40" cy="40" r="39.5" stroke="black" stroke-opacity="0.05"/>
</mask>
<g mask="url(#mask0_3942_10784)">
<path d="M78.0333 53.7695C71.6766 53.7722 66.4647 58.8122 66.2509 65.1662C61.9375 63.0916 56.7533 64.6916 54.3623 68.8384C52.0411 65.443 47.4981 64.407 43.9348 66.462V60.2181H36.0661V66.462C32.5041 64.4069 27.9598 65.4417 25.6386 68.8358C23.2478 64.6889 18.0634 63.0889 13.75 65.1636C13.5348 58.8108 8.32438 53.7722 1.96766 53.7695H0.65625V79.9991H79.3448V53.7695H78.0333Z" fill="#E5E5E5"/>
<path d="M46.5599 49.8361H33.4452L28.5468 34.5955C24.434 21.7994 29.0649 7.8125 40.0026 0C50.9402 7.8125 55.5712 21.7994 51.4584 34.5955L46.5599 49.8361Z" fill="#B3B3B3"/>
<path d="M31.8828 44.9838L33.4448 49.8363H46.5595L51.458 34.5957C53.1367 29.3643 53.3858 23.7799 52.1806 18.4199C46.633 34.791 37.8317 41.9229 31.8828 44.9838Z" fill="#999999"/>
<path d="M40.0026 31.4741C43.6242 31.4741 46.56 28.5382 46.56 24.9167C46.56 21.2952 43.6242 18.3594 40.0026 18.3594C36.3811 18.3594 33.4453 21.2952 33.4453 24.9167C33.4453 28.5382 36.3811 31.4741 40.0026 31.4741Z" fill="#F2F2F2"/>
<path d="M36.0616 49.8359L34.75 56.3933H45.2419L43.9303 49.8359H36.0616Z" fill="#808080"/>
<path d="M26.8856 59.0168L27.8757 52.0882C28.0606 50.7963 29.1676 49.8363 30.4725 49.8363H33.4429L28.8331 35.4941C21.8809 40.466 20.277 50.1329 25.2489 57.0837C25.7406 57.7723 26.2875 58.4187 26.8856 59.0168Z" fill="#808080"/>
<path d="M53.112 59.015L52.1219 52.0864C51.937 50.7945 50.83 49.8345 49.5252 49.8345H46.5547L51.1645 35.4922C58.1167 40.4641 59.7206 50.1309 54.7487 57.0817C54.257 57.7705 53.7102 58.4169 53.112 59.015Z" fill="#808080"/>
<path d="M34.7545 64.4945C31.5703 63.5227 28.108 64.3686 25.7316 66.7005C23.7381 64.3306 20.8017 62.9589 17.7053 62.9509C16.7506 62.9509 15.7997 63.0834 14.8817 63.3444C13.8233 57.0441 8.35719 52.4369 1.96766 52.4591H0.65625V55.082H1.96766C7.32891 55.065 11.83 59.1148 12.3769 64.4486C11.1022 65.1909 9.99781 66.1928 9.13625 67.3902C6.77297 65.3705 3.76578 64.2609 0.65625 64.2623V66.8853C6.44766 66.8919 11.1416 71.5856 11.1481 77.3772H13.7711C13.7723 74.4723 12.8033 71.65 11.017 69.3589C11.7961 68.0684 12.9266 67.0284 14.2773 66.3609C14.2905 66.3609 14.3048 66.3609 14.318 66.3478C15.375 65.8377 16.5331 65.5727 17.7055 65.5741C20.247 65.5859 22.6275 66.8227 24.0989 68.8947C23.3541 70.2953 22.9592 71.8559 22.9514 73.4428H25.5744C25.5731 72.1025 25.952 70.7884 26.6669 69.6539H26.6591C26.6775 69.6291 26.7023 69.6106 26.7208 69.5844C28.4927 66.9798 31.8709 66.0106 34.7548 67.2787V70.7148H37.3778V60.223H34.7548V64.4945H34.7545Z" fill="#BFBFBF"/>
<path d="M78.0348 55.082H79.3462V52.4591H78.0348C71.6453 52.4367 66.1791 57.0439 65.1208 63.3444C64.2028 63.0834 63.2519 62.9509 62.2972 62.9509C59.2008 62.9587 56.2644 64.3306 54.2709 66.7005C51.8945 64.3686 48.4322 63.5228 45.248 64.4945V60.2191H42.625V70.7109H45.248V67.2788C48.1319 66.0106 51.5089 66.9784 53.282 69.583C53.3005 69.6092 53.3253 69.6275 53.3438 69.6525H53.3359C54.0506 70.7869 54.4297 72.1011 54.4284 73.4427H57.0514C57.0436 71.8558 56.6488 70.2952 55.9039 68.8945C57.3753 66.8223 59.7558 65.5856 62.2973 65.5739C63.4711 65.5739 64.6292 65.8388 65.6848 66.3503C65.698 66.3569 65.7123 66.3581 65.7255 66.3634C67.0777 67.0297 68.212 68.0683 68.9923 69.3589C67.2034 71.6488 66.2317 74.4711 66.2317 77.3773H68.8547C68.8613 71.5859 73.555 66.892 79.3466 66.8855V64.2625C76.237 64.2625 73.2298 65.3706 70.8666 67.3903C70.005 66.193 68.9006 65.1909 67.6259 64.4487C68.1725 59.1147 72.6734 55.0648 78.0348 55.082Z" fill="#BFBFBF"/>
<path d="M36.0683 36.7227H33.4453V39.3456H36.0683V36.7227Z" fill="#808080"/>
<path d="M41.3105 36.7227H38.6875V39.3456H41.3105V36.7227Z" fill="#808080"/>
<path d="M46.5605 36.7227H43.9375V39.3456H46.5605V36.7227Z" fill="#808080"/>
<path d="M17.7011 68.1953H15.0781V70.8183H17.7011V68.1953Z" fill="#F2F2F2"/>
<path d="M3.27922 47.2129H0.65625V49.8359H3.27922V47.2129Z" fill="#E5E5E5"/>
<path d="M76.7245 59.0156H74.1016V61.6386H76.7245V59.0156Z" fill="#F2F2F2"/>
<path d="M66.2323 53.7695H63.6094V56.3925H66.2323V53.7695Z" fill="#E5E5E5"/>
<path d="M51.8027 74.7539H49.1797V77.3769H51.8027V74.7539Z" fill="#F2F2F2"/>
<path d="M79.3417 44.5898H76.7188V47.2128H79.3417V44.5898Z" fill="#E5E5E5"/>
<path d="M49.2247 10.4922H30.7722C30.3106 11.3498 29.8778 12.2208 29.5 13.1152H50.4969C50.1191 12.2206 49.6862 11.3498 49.2247 10.4922Z" fill="#808080"/>
<path d="M34.5469 28.5591C36.535 31.5794 40.5955 32.4161 43.6144 30.428C46.6347 28.4398 47.4714 24.3794 45.4833 21.3605C45.4086 21.2477 45.3311 21.1363 45.2486 21.0273L34.5469 28.5591Z" fill="#E5E5E5"/>
</g>
</svg>
