<svg width="50" height="50" viewBox="0 0 50 50" fill="none" xmlns="http://www.w3.org/2000/svg">
<g clip-path="url(#clip0_190_495)">
<path d="M20.9746 17.3076H28.1156C28.7057 17.3076 29.184 16.8294 29.184 16.2393C29.184 15.6492 28.7057 15.1709 28.1156 15.1709H20.9746C20.3845 15.1709 19.9062 15.6492 19.9062 16.2393C19.9062 16.8294 20.3845 17.3076 20.9746 17.3076Z" fill="white" fill-opacity="0.3"/>
<path d="M34.5259 21.688H20.9746C20.3845 21.688 19.9062 22.1663 19.9062 22.7564C19.9062 23.3465 20.3845 23.8247 20.9746 23.8247H34.5259C35.116 23.8247 35.5943 23.3465 35.5943 22.7564C35.5943 22.1663 35.116 21.688 34.5259 21.688Z" fill="white" fill-opacity="0.3"/>
<path d="M34.5259 28.2051H20.9746C20.3845 28.2051 19.9062 28.6833 19.9062 29.2735C19.9062 29.8636 20.3845 30.3418 20.9746 30.3418H34.5259C35.116 30.3418 35.5943 29.8636 35.5943 29.2735C35.5943 28.6833 35.116 28.2051 34.5259 28.2051Z" fill="white" fill-opacity="0.3"/>
<path d="M45.7182 11.0043H44.0171V9.34036C44.0012 6.96531 42.0823 5.04223 39.7073 5.02136H4.28185C1.92558 5.02136 0 6.98409 0 9.34036V34.6492C0.0095987 37 1.92308 38.8985 4.27434 38.8889H5.98291V40.6596C5.98291 43.0159 7.87677 44.9786 10.233 44.9786H45.7182C48.0744 44.9786 50 43.0159 50 40.6596V15.2915C49.9946 12.9282 48.0815 11.0126 45.7182 11.0043ZM41.8803 34.6154C41.8803 35.7956 40.9238 36.7521 39.7436 36.7521H4.2735C3.09328 36.7521 2.13675 35.7956 2.13675 34.6154V9.29487C2.13675 8.11464 3.09328 7.15811 4.2735 7.15811H39.7436C40.9238 7.15811 41.8803 8.11464 41.8803 9.29487V34.6154ZM47.8632 40.6596C47.8632 41.8378 46.8963 42.8419 45.7182 42.8419H10.233C9.0549 42.8419 8.11966 41.8378 8.11966 40.6596V38.8889H39.7073C42.064 38.8889 44.0171 37.0055 44.0171 34.6492V13.141H45.7182C46.9017 13.1481 47.8591 14.1076 47.8632 15.2915V40.6596Z" fill="white" fill-opacity="0.3"/>
<path d="M11.6495 18.8822C12.6833 18.8831 13.5204 19.7211 13.5217 20.7544C13.5217 21.3445 14 21.8228 14.5901 21.8228C15.1802 21.8228 15.6585 21.3445 15.6585 20.7544C15.6559 18.9114 14.3994 17.3072 12.6111 16.8628V15.8119C12.6111 15.2218 12.1328 14.7435 11.5427 14.7435C10.9526 14.7435 10.4743 15.2218 10.4743 15.8119V16.9216C8.57712 17.5034 7.39106 19.386 7.68528 21.3483C7.9795 23.311 9.66511 24.7629 11.6495 24.7633C12.6837 24.7633 13.5221 25.6013 13.5221 26.6355C13.5221 27.6696 12.6837 28.5081 11.65 28.5081C10.6158 28.5081 9.77738 27.6696 9.77738 26.6359C9.77738 26.0458 9.29911 25.5675 8.709 25.5675C8.11889 25.5675 7.64062 26.0458 7.64062 26.6359C7.64271 28.3966 8.79163 29.9504 10.4743 30.4687V31.3034C10.4743 31.8935 10.9526 32.3717 11.5427 32.3717C12.1328 32.3717 12.6111 31.8935 12.6111 31.3034V30.5275C14.5788 30.0413 15.8742 28.1633 15.6292 26.1514C15.3843 24.1394 13.6761 22.6266 11.6495 22.6266C10.6154 22.6266 9.77738 21.7886 9.77738 20.7544C9.77738 19.7202 10.6154 18.8822 11.6495 18.8822Z" fill="white" fill-opacity="0.3"/>
</g>
<defs>
<clipPath id="clip0_190_495">
<rect width="50" height="50" fill="white"/>
</clipPath>
</defs>
</svg>
