<svg width="10" height="10" viewBox="0 0 10 10" fill="none" xmlns="http://www.w3.org/2000/svg">
<g clip-path="url(#clip0_1917_9993)">
<path d="M5.27441 7.58558L9.88692 2.96029C10.038 2.80874 10.0377 2.56339 9.88614 2.4121C9.73459 2.26093 9.48911 2.26132 9.33795 2.41289L4.99998 6.76287L0.662031 2.41273C0.51086 2.26119 0.265529 2.2608 0.113967 2.41195C0.0379906 2.48779 1.89475e-06 2.58714 1.8904e-06 2.6865C1.88607e-06 2.7856 0.0377369 2.88456 0.113186 2.96027L4.72557 7.58558C4.79819 7.65857 4.89701 7.69952 4.99998 7.69952C5.10295 7.69952 5.20166 7.65845 5.27441 7.58558Z" fill="#121212" fill-opacity="0.4"/>
</g>
<defs>
<clipPath id="clip0_1917_9993">
<rect width="10" height="10" fill="white" transform="translate(10) rotate(90)"/>
</clipPath>
</defs>
</svg>
