<svg width="40" height="40" viewBox="0 0 40 40" fill="none" xmlns="http://www.w3.org/2000/svg">
<path d="M30.4916 9.50825C29.8427 8.85932 28.7906 8.85932 28.1416 9.50825L20 17.6499L11.8583 9.50825C11.2094 8.85932 10.1572 8.85932 9.50831 9.50825V9.50825C8.85938 10.1572 8.85938 11.2093 9.50831 11.8583L17.65 19.9999L9.50831 28.1416C8.85938 28.7905 8.85938 29.8427 9.50831 30.4916V30.4916C10.1572 31.1405 11.2094 31.1405 11.8583 30.4916L20 22.3499L28.1416 30.4916C28.7906 31.1405 29.8427 31.1405 30.4916 30.4916V30.4916C31.1406 29.8427 31.1406 28.7905 30.4916 28.1416L22.35 19.9999L30.4916 11.8583C31.1406 11.2093 31.1406 10.1572 30.4916 9.50825V9.50825Z" fill="white"/>
</svg>
