<svg width="24" height="24" viewBox="0 0 24 24" fill="none" xmlns="http://www.w3.org/2000/svg">
<path d="M21.7075 20.2894L17.9975 16.6094C19.4376 14.8138 20.135 12.5347 19.9463 10.2407C19.7576 7.94672 18.6971 5.8122 16.983 4.27606C15.2688 2.73992 13.0313 1.91893 10.7304 1.98189C8.4295 2.04485 6.24018 2.98698 4.6126 4.61456C2.98502 6.24214 2.04289 8.43145 1.97993 10.7323C1.91697 13.0332 2.73797 15.2708 4.27411 16.9849C5.81025 18.6991 7.94476 19.7595 10.2388 19.9482C12.5328 20.1369 14.8119 19.4395 16.6075 17.9994L20.2875 21.6794C20.3804 21.7731 20.491 21.8475 20.6129 21.8983C20.7347 21.9491 20.8655 21.9752 20.9975 21.9752C21.1295 21.9752 21.2602 21.9491 21.382 21.8983C21.5039 21.8475 21.6145 21.7731 21.7075 21.6794C21.8877 21.493 21.9885 21.2438 21.9885 20.9844C21.9885 20.7251 21.8877 20.4759 21.7075 20.2894ZM10.9975 17.9994C9.61299 17.9994 8.25962 17.5889 7.10847 16.8197C5.95733 16.0505 5.06012 14.9573 4.53031 13.6782C4.00049 12.3991 3.86187 10.9917 4.13197 9.63378C4.40206 8.27592 5.06875 7.02864 6.04772 6.04967C7.02668 5.0707 8.27396 4.40402 9.63183 4.13392C10.9897 3.86382 12.3972 4.00245 13.6762 4.53226C14.9553 5.06207 16.0486 5.95928 16.8178 7.11042C17.5869 8.26157 17.9975 9.61495 17.9975 10.9994C17.9975 12.8559 17.26 14.6364 15.9472 15.9492C14.6345 17.2619 12.854 17.9994 10.9975 17.9994Z" fill="#121212"/>
</svg>
