<svg width="80" height="80" viewBox="0 0 80 80" fill="none" xmlns="http://www.w3.org/2000/svg">
<path d="M4.74219 0V80H58.5353L68.1905 70.3448V0H4.74219Z" fill="#E5E5E5"/>
<path d="M4.74219 58.6206V80H58.5353L68.1905 70.3448V0H63.363L4.74219 58.6206Z" fill="#D9D9D9"/>
<path d="M15.7828 27.5871C12.7359 27.5871 10.2656 25.1168 10.2656 22.0699C10.2656 19.023 12.7359 16.5527 15.7828 16.5527C18.8297 16.5527 21.3 19.023 21.3 22.0699C21.3 25.1168 18.8311 27.5871 15.7828 27.5871ZM15.7828 19.3112C14.2588 19.3112 13.0242 20.5457 13.0242 22.0698C13.0242 23.5938 14.2588 24.8284 15.7828 24.8284C17.3069 24.8284 18.5414 23.5938 18.5414 22.0698C18.5414 20.5457 17.3069 19.3112 15.7828 19.3112Z" fill="#BFBFBF"/>
<path d="M54.4078 26.2082C51.3609 26.2082 48.8906 23.7379 48.8906 20.691C48.8906 17.6441 51.3609 15.1738 54.4078 15.1738C57.4547 15.1738 59.925 17.6441 59.925 20.691C59.925 23.7379 57.4561 26.2082 54.4078 26.2082ZM54.4078 17.9324C52.8837 17.9324 51.6492 19.167 51.6492 20.691C51.6492 22.2151 52.8837 23.4496 54.4078 23.4496C55.9319 23.4496 57.1664 22.2151 57.1664 20.691C57.1664 19.1668 55.932 17.9324 54.4078 17.9324Z" fill="#BFBFBF"/>
<path d="M19.9234 66.2082C16.8766 66.2082 14.4062 63.7379 14.4062 60.691C14.4062 57.6441 16.8766 55.1738 19.9234 55.1738C22.9703 55.1738 25.4406 57.6441 25.4406 60.691C25.4406 63.7379 22.9717 66.2082 19.9234 66.2082ZM19.9234 57.9324C18.3994 57.9324 17.1648 59.167 17.1648 60.691C17.1648 62.2151 18.3994 63.4496 19.9234 63.4496C21.4475 63.4496 22.682 62.2151 22.682 60.691C22.682 59.167 21.4475 57.9324 19.9234 57.9324Z" fill="#BFBFBF"/>
<path d="M36.4703 73.1047C33.4234 73.1047 30.9531 70.6344 30.9531 67.5875C30.9531 64.5406 33.4234 62.0703 36.4703 62.0703C39.5172 62.0703 41.9875 64.5406 41.9875 67.5875C41.9875 70.6344 39.5186 73.1047 36.4703 73.1047ZM36.4703 64.8289C34.9463 64.8289 33.7117 66.0634 33.7117 67.5875C33.7117 69.1116 34.9463 70.3461 36.4703 70.3461C37.9944 70.3461 39.2289 69.1116 39.2289 67.5875C39.2289 66.0634 37.9944 64.8289 36.4703 64.8289Z" fill="#BFBFBF"/>
<path d="M41.5856 5.11437L39.6352 3.16406L36.4725 6.32672L33.3097 3.16406L31.3594 5.11437L34.522 8.27719L31.3594 11.4398L33.3097 13.3902L36.4725 10.2275L39.6352 13.3902L41.5856 11.4398L38.4228 8.27719L41.5856 5.11437Z" fill="#BFBFBF"/>
<path d="M26.4138 36.837L24.4634 34.8867L21.3006 38.0495L18.138 34.8867L16.1875 36.837L19.3503 39.9998L16.1875 43.1627L18.138 45.113L21.3006 41.9502L24.4634 45.113L26.4138 43.1627L23.2509 39.9998L26.4138 36.837Z" fill="#BFBFBF"/>
<path d="M60.8981 56.1497L58.9477 54.1992L55.785 57.362L52.6222 54.1992L50.6719 56.1497L53.8347 59.3123L50.6719 62.4752L52.6222 64.4255L55.785 61.2627L58.9477 64.4255L60.8981 62.4752L57.7353 59.3123L60.8981 56.1497Z" fill="#BFBFBF"/>
<path d="M28.5361 26.2078H30.8809V23.4492H25.3638C24.6023 23.4492 23.9844 24.0672 23.9844 24.8286V30.3458H26.743V28.4147C32.7264 36.1292 32.2961 47.0284 25.7223 54.2464L27.7652 56.103C35.4105 47.7113 35.7388 34.9816 28.5361 26.2078Z" fill="#BFBFBF"/>
<path d="M45.7195 18.3352L41.5816 14.1973L39.6312 16.1476L41.4147 17.931H24.0547V20.6896H41.4147L39.6312 22.473L41.5816 24.4234L45.7195 20.2854C46.2589 19.7463 46.2589 18.8732 45.7195 18.3352Z" fill="#BFBFBF"/>
<path d="M48.8868 26.207H43.3697V28.9656H45.6042C38.829 36.178 35.069 45.7091 35.0939 55.6042V59.3105H37.8525V55.6042C37.829 46.4636 41.2814 37.6553 47.5076 30.9642V33.1036H50.2662V27.5864C50.2661 26.825 49.6497 26.207 48.8868 26.207Z" fill="#BFBFBF"/>
<path d="M58.5391 70.3438V79.9989L68.1942 70.3438H58.5391Z" fill="#999999"/>
<path d="M68.8873 32.4096L72.3359 28.9609L68.1977 24.8227L64.7491 28.2714L68.8873 32.4096Z" fill="#999999"/>
<path d="M46.125 46.896V51.034H50.2628L68.8836 32.4132L64.7456 28.2754L46.125 46.896Z" fill="#999999"/>
<path d="M74.3944 22.7589C73.2509 21.6168 71.3998 21.6168 70.2564 22.7589L68.1875 24.8278L72.3255 28.9657L74.3944 26.8968C75.5378 25.7534 75.5378 23.9023 74.3944 22.7589Z" fill="#999999"/>
<path d="M71.3541 29.9428L73.3047 27.9922L69.1665 23.854L67.2159 25.8046L71.3541 29.9428Z" fill="#808080"/>
<path d="M67.901 33.3901L69.8516 31.4395L65.7134 27.3013L63.7628 29.2519L67.901 33.3901Z" fill="#808080"/>
</svg>
