<svg width="80" height="80" viewBox="0 0 80 80" fill="none" xmlns="http://www.w3.org/2000/svg">
<path d="M47.9688 65.9375H27.6562C26.3617 65.9375 25.3125 66.9867 25.3125 68.2812C25.3125 69.5758 26.3617 70.625 27.6562 70.625H47.9688C49.2633 70.625 50.3125 69.5758 50.3125 68.2812C50.3125 66.9867 49.2633 65.9375 47.9688 65.9375Z" fill="white"/>
<path d="M47.9688 56.5625H27.6562C26.3617 56.5625 25.3125 57.6117 25.3125 58.9062C25.3125 60.2008 26.3617 61.25 27.6562 61.25H47.9688C49.2633 61.25 50.3125 60.2008 50.3125 58.9062C50.3125 57.6117 49.2633 56.5625 47.9688 56.5625Z" fill="white"/>
<path d="M47.9688 47.1875H13.2812C11.9867 47.1875 10.9375 48.2367 10.9375 49.5312C10.9375 50.8258 11.9867 51.875 13.2812 51.875H47.9688C49.2633 51.875 50.3125 50.8258 50.3125 49.5312C50.3125 48.2367 49.2633 47.1875 47.9688 47.1875Z" fill="white"/>
<path d="M13.2812 42.5H33.5938C34.8883 42.5 35.9375 41.4508 35.9375 40.1562C35.9375 38.8617 34.8883 37.8125 33.5938 37.8125H13.2812C11.9867 37.8125 10.9375 38.8617 10.9375 40.1562C10.9375 41.4508 11.9867 42.5 13.2812 42.5Z" fill="white"/>
<path d="M13.2812 32.8125H21.0938C24.9707 32.8125 28.125 29.6582 28.125 25.7812C28.125 23.9819 27.4451 22.3389 26.3287 21.0938C27.4445 19.8486 28.125 18.2056 28.125 16.4062C28.125 12.5293 24.9707 9.375 21.0938 9.375H13.2812C11.9867 9.375 10.9375 10.4242 10.9375 11.7188V30.4688C10.9375 31.7633 11.9867 32.8125 13.2812 32.8125ZM21.0938 28.125H15.625V23.4375H21.0938C22.3859 23.4375 23.4375 24.4891 23.4375 25.7812C23.4375 27.0734 22.3859 28.125 21.0938 28.125ZM15.625 14.0625H21.0938C22.3859 14.0625 23.4375 15.1141 23.4375 16.4062C23.4375 17.6984 22.3859 18.75 21.0938 18.75H15.625V14.0625Z" fill="white"/>
<path d="M80 18.1409C80 16.6803 79.4312 15.307 78.3984 14.2737L72.8741 8.74939C71.8414 7.71667 70.4675 7.14783 69.007 7.14783C67.5464 7.14783 66.1731 7.71667 65.1398 8.74939L61.25 12.6398V2.34375C61.25 1.04919 60.2008 0 58.9062 0H2.34375C1.04919 0 0 1.04919 0 2.34375V77.6562C0 78.9508 1.04919 80 2.34375 80H58.9062C60.2008 80 61.25 78.9508 61.25 77.6562V39.1559L78.3984 22.0081C79.4312 20.9747 80 19.6014 80 18.1409ZM4.6875 75.3125V4.6875H56.5625V17.3273L47.9041 25.9851C47.8986 25.9906 47.8937 25.9967 47.8882 26.0022C47.868 26.0236 47.8485 26.0449 47.829 26.0663C47.8125 26.084 47.7966 26.1017 47.7814 26.1194C47.7722 26.1304 47.7631 26.1407 47.7539 26.1517C47.7435 26.1639 47.7338 26.1768 47.724 26.1896C47.71 26.2073 47.6959 26.225 47.6825 26.2427C47.6648 26.2665 47.6477 26.2915 47.6312 26.3159C47.6288 26.319 47.627 26.3214 47.6251 26.3245C47.6166 26.3367 47.6074 26.3489 47.5989 26.3611C47.597 26.3647 47.5946 26.3684 47.5928 26.3721C47.5757 26.3983 47.5598 26.4252 47.5439 26.4526C47.533 26.4703 47.522 26.4886 47.5116 26.507C47.5073 26.5155 47.5024 26.5234 47.4982 26.532C47.4866 26.5527 47.4768 26.5741 47.4664 26.5948C47.4658 26.5955 47.4658 26.5955 47.4658 26.5961C47.4573 26.6132 47.4475 26.6302 47.4396 26.6479C47.4286 26.6705 47.4194 26.6943 47.4091 26.7181C47.4005 26.7389 47.3907 26.759 47.3822 26.7804C47.3804 26.7847 47.3785 26.7896 47.3767 26.7938C47.3627 26.8298 47.3505 26.8671 47.3383 26.9037C47.334 26.9177 47.3285 26.9312 47.3242 26.9446C47.3224 26.9495 47.3218 26.9537 47.3199 26.958C47.3138 26.9781 47.309 26.9983 47.3035 27.0178C47.2961 27.0453 47.2882 27.0721 47.2815 27.0996L44.7473 37.7374C44.4446 39.0063 44.8499 40.3882 45.8051 41.3428C46.5503 42.088 47.5562 42.4988 48.5657 42.4988C48.8489 42.4988 49.1321 42.4664 49.4098 42.4005L56.5625 40.6964V75.3125H4.6875ZM49.6149 37.533L50.8698 32.265L54.8822 36.2781L49.6149 37.533ZM75.0836 18.6932L59.5056 34.2719L52.876 27.6422L60.5634 19.9554C60.564 19.9548 60.564 19.9548 60.564 19.9548L68.4546 12.0642C68.6536 11.8652 68.8861 11.8353 69.007 11.8353C69.1278 11.8353 69.3604 11.8646 69.5593 12.0642L75.0836 17.5885C75.3882 17.8931 75.3882 18.3887 75.0836 18.6932Z" fill="white"/>
</svg>
