<svg width="100" height="74" viewBox="0 0 100 74" fill="none" xmlns="http://www.w3.org/2000/svg">
<path d="M90 0.333862H10C4.47949 0.339331 0.00546875 4.81316 0 10.3339V57.0005C0.00546875 62.521 4.47949 66.995 10 67.0005H11.6666V68.6671C11.6666 71.4284 13.9053 73.6671 16.6666 73.6671H21.6666C24.4279 73.6671 26.6666 71.4284 26.6666 68.6671V67.0005H73.3332V68.6671C73.3332 71.4284 75.5719 73.6671 78.3332 73.6671H83.3332C86.0945 73.6671 88.3332 71.4284 88.3332 68.6671V67.0005H89.9998C95.5203 66.995 99.9943 62.521 99.9998 57.0005V10.3339C99.9945 4.81316 95.5205 0.339331 90 0.333862V0.333862ZM23.3334 68.6671C23.3334 69.5876 22.5871 70.3337 21.6668 70.3337H16.6668C15.7463 70.3337 15.0002 69.5876 15.0002 68.6671V67.0005H23.3336V68.6671H23.3334ZM85 68.6671C85 69.5876 84.2539 70.3337 83.3334 70.3337H78.3334C77.4129 70.3337 76.6668 69.5876 76.6668 68.6671V67.0005H85V68.6671ZM96.6666 57.0005C96.6666 60.6823 93.6818 63.6671 90 63.6671H10C6.31816 63.6671 3.3334 60.6823 3.3334 57.0005V10.3339C3.3334 6.65203 6.31816 3.66726 10 3.66726H90C93.6818 3.66726 96.6666 6.65203 96.6666 10.3339V57.0005Z" fill="white" fill-opacity="0.5"/>
<path d="M33.3307 7.00061C18.6031 7.00061 6.66406 18.9397 6.66406 33.6672C6.66406 48.3947 18.6031 60.3338 33.3307 60.3338C48.0582 60.3338 59.9973 48.3949 59.9973 33.6672C59.9799 18.9469 48.051 7.01799 33.3307 7.00061V7.00061ZM33.3307 57.0006C20.4439 57.0006 9.99727 46.5539 9.99727 33.6672C9.99727 20.7805 20.4439 10.3338 33.3307 10.3338C46.2174 10.3338 56.6641 20.7805 56.6641 33.6672C56.6502 46.5483 46.2115 56.9867 33.3307 57.0006V57.0006Z" fill="white" fill-opacity="0.5"/>
<path d="M43.3205 27.6372C42.6763 28.2941 41.9228 28.8337 41.0937 29.2322C40.8771 29.3388 40.6544 29.433 40.4271 29.5138C41.8749 27.5687 42.7714 25.2691 43.022 22.8572C43.2872 20.6552 42.5388 18.4519 40.9871 16.8671C39.9472 15.8169 38.6978 14.9976 37.3205 14.4621C34.8201 13.3394 31.9474 13.4005 29.4972 14.6287C27.9417 15.3126 26.7306 16.5986 26.1406 18.1919C25.3601 20.0798 25.8142 22.2531 27.2855 23.6703C27.9408 24.3154 28.4806 25.0679 28.8822 25.8953C28.9869 26.1087 29.0792 26.3279 29.1589 26.5519C27.2132 25.1085 24.914 24.2171 22.5038 23.9718C20.3101 23.7158 18.1175 24.4607 16.5339 26.0001C15.4853 27.0406 14.6669 28.2898 14.1322 29.6667C13.0044 32.1695 13.0658 35.0474 14.2988 37.5001C14.9884 39.0433 16.2695 40.2445 17.8538 40.8335C18.4947 41.0691 19.171 41.1937 19.8538 41.2019C21.1749 41.1941 22.437 40.6531 23.3538 39.7019C23.9984 39.0449 24.7525 38.5052 25.5822 38.107C25.7913 38.0023 26.0068 37.9103 26.2271 37.832C24.7865 39.7773 23.8953 42.0742 23.647 44.482C23.382 46.681 24.1249 48.882 25.6687 50.4703C26.7089 51.5201 27.9581 52.3394 29.3353 52.8753C30.5353 53.3884 31.8253 53.6576 33.1302 53.6669C34.5331 53.6628 35.9158 53.332 37.1685 52.7003C38.7175 52.0124 39.9232 50.7281 40.5119 49.1386C41.2884 47.2525 40.8345 45.0835 39.3669 43.6669C38.7121 43.0191 38.1732 42.2636 37.7736 41.4335C37.6691 41.2234 37.5767 41.0076 37.4968 40.7869C39.4425 42.2279 41.74 43.1189 44.1486 43.3669C44.431 43.3966 44.7146 43.4117 44.9986 43.4119C46.9177 43.4201 48.7632 42.6736 50.1369 41.3335C51.1867 40.2931 52.0066 39.0439 52.5435 37.6669C53.666 35.1621 53.6003 32.2849 52.3652 29.8335C51.6765 28.2908 50.3968 27.0898 48.8134 26.5001C46.9236 25.7091 44.7413 26.1607 43.3205 27.6372V27.6372ZM29.1687 33.6671C29.1687 31.366 31.0341 29.5005 33.3353 29.5005C34.824 29.5027 36.1984 30.2988 36.9408 31.589C37.6833 32.8792 37.681 34.4675 36.9349 35.7556C36.1888 37.0437 34.8122 37.8359 33.3236 37.8339C31.0271 37.8275 29.1687 35.9638 29.1687 33.6671ZM29.297 19.3123C29.6056 18.5496 30.2107 17.9451 30.9738 17.6372C32.5646 16.8355 34.4343 16.8029 36.0521 17.549C37.0021 17.9089 37.8654 18.4656 38.5855 19.1824C39.4603 20.057 39.8769 21.2898 39.7122 22.5158C39.5265 24.3636 38.8345 26.1244 37.7122 27.604C36.446 26.6783 34.9191 26.1771 33.3505 26.1724C33.081 26.1853 32.8122 26.2124 32.5454 26.254C32.407 25.6289 32.1919 25.0232 31.9054 24.4507C31.3386 23.2878 30.5802 22.2287 29.6621 21.3173C29.0943 20.8087 28.9439 19.9796 29.297 19.304V19.3123ZM24.1138 35.1222C22.9513 35.6841 21.8937 36.4412 20.987 37.3605C20.473 37.9246 19.6415 38.0673 18.9687 37.7072C18.2074 37.4007 17.6023 36.7996 17.2904 36.0406C16.4869 34.448 16.4562 32.5753 17.207 30.9572C17.5661 30.0066 18.1214 29.1421 18.837 28.4205C19.7136 27.5492 20.9454 27.1345 22.1704 27.2988C24.0197 27.4896 25.7816 28.1812 27.2671 29.2988C26.3425 30.5638 25.8415 32.0886 25.8355 33.6554C25.8482 33.9279 25.8755 34.1994 25.9171 34.4687C25.2913 34.607 24.6853 34.8236 24.1138 35.1136V35.1222ZM37.3654 48.0439C37.0576 48.8017 36.4564 49.4027 35.6988 49.7105C34.1091 50.514 32.2394 50.5472 30.622 49.8005C29.6712 49.4415 28.807 48.8863 28.0853 48.1705C27.2117 47.2917 26.7966 46.0568 26.9621 44.8289C27.1482 42.98 27.8402 41.2183 28.9621 39.7372C30.2259 40.663 31.7503 41.1648 33.3171 41.1707H33.3355C33.605 41.1597 33.8738 41.1335 34.1406 41.0923C34.2798 41.7175 34.497 42.3228 34.7872 42.8941C35.3505 44.0564 36.106 45.1152 37.0222 46.0257C37.5767 46.5417 37.7173 47.365 37.3656 48.0357V48.0439H37.3654ZM49.4654 36.3939C49.1078 37.3435 48.5535 38.2068 47.8386 38.9273C46.9585 39.8011 45.723 40.2173 44.4937 40.054C42.646 39.8617 40.8853 39.1703 39.4003 38.054C40.5624 36.6011 41.0542 34.7236 40.7537 32.8874C41.3802 32.7494 41.9867 32.5328 42.5587 32.2425C43.7234 31.6794 44.7826 30.9206 45.6904 29.9992C46.2042 29.4396 47.0316 29.2984 47.7021 29.6558C48.458 29.9664 49.0581 30.5665 49.3687 31.3224C50.1683 32.908 50.2039 34.7708 49.4654 36.3857V36.3939Z" fill="white" fill-opacity="0.5"/>
<path d="M90.0051 8.66711H83.3385C82.418 8.66711 81.6719 9.4134 81.6719 10.3337C81.6719 11.254 82.418 12.0003 83.3385 12.0003H90.0051C90.9256 12.0003 91.6717 11.2542 91.6717 10.3337C91.6717 9.41321 90.9256 8.66711 90.0051 8.66711Z" fill="white" fill-opacity="0.5"/>
<path d="M83.3385 18.6673C84.2589 18.6673 85.0051 17.9211 85.0051 17.0007C85.0051 16.0803 84.2589 15.3341 83.3385 15.3341C82.418 15.3341 81.6719 16.0803 81.6719 17.0007C81.6719 17.9211 82.418 18.6673 83.3385 18.6673Z" fill="white" fill-opacity="0.5"/>
<path d="M90.0025 18.6673C90.923 18.6673 91.6691 17.9211 91.6691 17.0007C91.6691 16.0803 90.923 15.3341 90.0025 15.3341C89.0821 15.3341 88.3359 16.0803 88.3359 17.0007C88.3359 17.9211 89.0821 18.6673 90.0025 18.6673Z" fill="white" fill-opacity="0.5"/>
<path d="M89.9973 22.0009H68.3307C67.4102 22.0009 66.6641 22.7471 66.6641 23.6675C66.6641 24.588 67.4103 25.3341 68.3307 25.3341H89.9973C90.9178 25.3341 91.6639 24.5878 91.6639 23.6675C91.6639 22.7471 90.9178 22.0009 89.9973 22.0009Z" fill="white" fill-opacity="0.5"/>
<path d="M89.9973 28.6666H68.3307C67.4102 28.6666 66.6641 29.4129 66.6641 30.3332C66.6641 31.2537 67.4103 31.9998 68.3307 31.9998H89.9973C90.9178 31.9998 91.6639 31.2535 91.6639 30.3332C91.6639 29.4129 90.9178 28.6666 89.9973 28.6666Z" fill="white" fill-opacity="0.5"/>
<path d="M89.9973 35.3336H68.3307C67.4102 35.3336 66.6641 36.0799 66.6641 37.0002C66.6641 37.9207 67.4103 38.6668 68.3307 38.6668H89.9973C90.9178 38.6668 91.6639 37.9205 91.6639 37.0002C91.6639 36.0797 90.9178 35.3336 89.9973 35.3336Z" fill="white" fill-opacity="0.5"/>
<path d="M89.9973 42.0004H68.3307C67.4102 42.0004 66.6641 42.7467 66.6641 43.667C66.6641 44.5875 67.4103 45.3336 68.3307 45.3336H89.9973C90.9178 45.3336 91.6639 44.5873 91.6639 43.667C91.6639 42.7467 90.9178 42.0004 89.9973 42.0004Z" fill="white" fill-opacity="0.5"/>
<path d="M89.9973 48.6674H68.3307C67.4102 48.6674 66.6641 49.4136 66.6641 50.334C66.6641 51.2543 67.4103 52.0006 68.3307 52.0006H89.9973C90.9178 52.0006 91.6639 51.2545 91.6639 50.334C91.6639 49.4135 90.9178 48.6674 89.9973 48.6674Z" fill="white" fill-opacity="0.5"/>
<path d="M89.9973 55.3341H68.3307C67.4102 55.3341 66.6641 56.0802 66.6641 57.0007C66.6641 57.9212 67.4103 58.6673 68.3307 58.6673H89.9973C90.9178 58.6673 91.6639 57.9212 91.6639 57.0007C91.6639 56.0802 90.9178 55.3341 89.9973 55.3341Z" fill="white" fill-opacity="0.5"/>
</svg>
